<svg width="24" height="24" viewBox="0 0 24 24" fill="none" xmlns="http://www.w3.org/2000/svg">
<path d="M11.9999 7.51654C11.1132 7.51654 10.2463 7.77949 9.50902 8.27215C8.77171 8.7648 8.19705 9.46503 7.8577 10.2843C7.51835 11.1035 7.42957 12.005 7.60256 12.8747C7.77556 13.7445 8.20257 14.5433 8.82961 15.1704C9.45664 15.7974 10.2555 16.2244 11.1252 16.3974C11.995 16.5704 12.8964 16.4816 13.7157 16.1423C14.535 15.8029 15.2352 15.2283 15.7278 14.491C16.2205 13.7537 16.4834 12.8868 16.4834 12.0001C16.4822 10.8113 16.0094 9.67165 15.1689 8.83109C14.3283 7.99054 13.1887 7.51777 11.9999 7.51654ZM11.9999 14.9891C11.4088 14.9891 10.8309 14.8138 10.3393 14.4853C9.84778 14.1569 9.46468 13.6901 9.23844 13.1439C9.01221 12.5977 8.95302 11.9967 9.06835 11.4169C9.18368 10.8371 9.46836 10.3045 9.88638 9.8865C10.3044 9.46848 10.837 9.18381 11.4168 9.06847C11.9966 8.95314 12.5976 9.01233 13.1438 9.23857C13.6899 9.4648 14.1568 9.84791 14.4852 10.3394C14.8136 10.831 14.9889 11.4089 14.9889 12.0001C14.9889 12.7928 14.674 13.5531 14.1135 14.1136C13.5529 14.6742 12.7927 14.9891 11.9999 14.9891ZM16.4834 2.28577H7.51641C6.12958 2.28725 4.79998 2.83882 3.81934 3.81946C2.8387 4.8001 2.28713 6.1297 2.28564 7.51654V16.4836C2.28713 17.8704 2.8387 19.2 3.81934 20.1806C4.79998 21.1613 6.12958 21.7129 7.51641 21.7143H16.4834C17.8703 21.7129 19.1999 21.1613 20.1805 20.1806C21.1612 19.2 21.7127 17.8704 21.7142 16.4836V7.51654C21.7127 6.1297 21.1612 4.8001 20.1805 3.81946C19.1999 2.83882 17.8703 2.28725 16.4834 2.28577ZM20.2197 16.4836C20.2197 17.4745 19.8261 18.4248 19.1254 19.1255C18.4247 19.8262 17.4744 20.2198 16.4834 20.2198H7.51641C6.5255 20.2198 5.57516 19.8262 4.87448 19.1255C4.17379 18.4248 3.78015 17.4745 3.78015 16.4836V7.51654C3.78015 6.52562 4.17379 5.57528 4.87448 4.8746C5.57516 4.17391 6.5255 3.78027 7.51641 3.78027H16.4834C17.4744 3.78027 18.4247 4.17391 19.1254 4.8746C19.8261 5.57528 20.2197 6.52562 20.2197 7.51654V16.4836ZM17.978 7.14291C17.978 7.3646 17.9122 7.58131 17.7891 7.76564C17.6659 7.94996 17.4908 8.09363 17.286 8.17847C17.0812 8.2633 16.8558 8.2855 16.6384 8.24225C16.421 8.199 16.2213 8.09225 16.0645 7.93549C15.9077 7.77873 15.801 7.57901 15.7577 7.36158C15.7145 7.14415 15.7367 6.91878 15.8215 6.71397C15.9064 6.50915 16.05 6.3341 16.2343 6.21093C16.4187 6.08777 16.6354 6.02203 16.8571 6.02203C17.1543 6.02203 17.4394 6.14012 17.6497 6.35033C17.8599 6.56053 17.978 6.84563 17.978 7.14291Z" fill="#252525"/>
</svg>
