<svg width="24" height="24" viewBox="0 0 24 24" fill="none" xmlns="http://www.w3.org/2000/svg">
<path d="M12 2.25C10.0716 2.25 8.18657 2.82183 6.58319 3.89317C4.97982 4.96451 3.73013 6.48726 2.99218 8.26884C2.25422 10.0504 2.06114 12.0108 2.43735 13.9021C2.81355 15.7934 3.74215 17.5307 5.10571 18.8943C6.46928 20.2579 8.20656 21.1865 10.0979 21.5627C11.9892 21.9389 13.9496 21.7458 15.7312 21.0078C17.5127 20.2699 19.0355 19.0202 20.1068 17.4168C21.1782 15.8134 21.75 13.9284 21.75 12C21.7473 9.41498 20.7192 6.93661 18.8913 5.10872C17.0634 3.28084 14.585 2.25273 12 2.25ZM16.2806 14.0306C16.211 14.1004 16.1283 14.1557 16.0372 14.1934C15.9462 14.2312 15.8486 14.2506 15.75 14.2506C15.6514 14.2506 15.5538 14.2312 15.4628 14.1934C15.3718 14.1557 15.289 14.1004 15.2194 14.0306L12 10.8103L8.78063 14.0306C8.71095 14.1003 8.62822 14.1556 8.53718 14.1933C8.44613 14.231 8.34855 14.2504 8.25 14.2504C8.15146 14.2504 8.05388 14.231 7.96283 14.1933C7.87179 14.1556 7.78906 14.1003 7.71938 14.0306C7.6497 13.9609 7.59442 13.8782 7.55671 13.7872C7.519 13.6961 7.49959 13.5985 7.49959 13.5C7.49959 13.4015 7.519 13.3039 7.55671 13.2128C7.59442 13.1218 7.6497 13.0391 7.71938 12.9694L11.4694 9.21937C11.539 9.14964 11.6218 9.09432 11.7128 9.05658C11.8038 9.01884 11.9014 8.99941 12 8.99941C12.0986 8.99941 12.1962 9.01884 12.2872 9.05658C12.3783 9.09432 12.461 9.14964 12.5306 9.21937L16.2806 12.9694C16.3504 13.039 16.4057 13.1217 16.4434 13.2128C16.4812 13.3038 16.5006 13.4014 16.5006 13.5C16.5006 13.5986 16.4812 13.6962 16.4434 13.7872C16.4057 13.8783 16.3504 13.961 16.2806 14.0306Z" fill="#252525"/>
</svg>
