<svg width="24" height="24" viewBox="0 0 24 24" fill="none" xmlns="http://www.w3.org/2000/svg">
<path d="M3.96944 15.9696L11.4694 8.46957C11.5391 8.39984 11.6218 8.34452 11.7129 8.30677C11.8039 8.26903 11.9015 8.2496 12.0001 8.2496C12.0986 8.2496 12.1962 8.26903 12.2873 8.30677C12.3783 8.34452 12.461 8.39984 12.5307 8.46957L20.0307 15.9696C20.1714 16.1103 20.2505 16.3012 20.2505 16.5002C20.2505 16.6992 20.1714 16.8901 20.0307 17.0308C19.89 17.1715 19.6991 17.2506 19.5001 17.2506C19.301 17.2506 19.1102 17.1715 18.9694 17.0308L12.0001 10.0605L5.0307 17.0308C4.96101 17.1005 4.87829 17.1558 4.78724 17.1935C4.6962 17.2312 4.59862 17.2506 4.50007 17.2506C4.40152 17.2506 4.30394 17.2312 4.2129 17.1935C4.12185 17.1558 4.03913 17.1005 3.96944 17.0308C3.89976 16.9611 3.84449 16.8784 3.80678 16.7874C3.76906 16.6963 3.74965 16.5987 3.74965 16.5002C3.74965 16.4016 3.76906 16.3041 3.80678 16.213C3.84449 16.122 3.89976 16.0393 3.96944 15.9696Z" fill="#252525"/>
</svg>
