<svg width="24" height="24" viewBox="0 0 24 24" fill="none" xmlns="http://www.w3.org/2000/svg">
<path d="M21 1.5C21.7969 1.5 22.5 2.20312 22.5 3.04688V21C22.5 21.8438 21.7969 22.5 21 22.5H2.95312C2.15625 22.5 1.5 21.8438 1.5 21V3.04688C1.5 2.20312 2.15625 1.5 2.95312 1.5H21ZM7.82812 19.5V9.51562H4.73438V19.5H7.82812ZM6.28125 8.10938C7.26562 8.10938 8.0625 7.3125 8.0625 6.32812C8.0625 5.34375 7.26562 4.5 6.28125 4.5C5.25 4.5 4.45312 5.34375 4.45312 6.32812C4.45312 7.3125 5.25 8.10938 6.28125 8.10938ZM19.5 19.5V14.0156C19.5 11.3438 18.8906 9.23438 15.75 9.23438C14.25 9.23438 13.2188 10.0781 12.7969 10.875H12.75V9.51562H9.79688V19.5H12.8906V14.5781C12.8906 13.2656 13.125 12 14.7656 12C16.3594 12 16.3594 13.5 16.3594 14.625V19.5H19.5Z" fill="#252525"/>
</svg>
