<svg width="24" height="24" viewBox="0 0 24 24" fill="none" xmlns="http://www.w3.org/2000/svg">
<circle cx="12" cy="12" r="10" fill="#FDE3A0"/>
<path d="M12 2C10.0222 2 8.08879 2.58649 6.4443 3.6853C4.79981 4.78412 3.51809 6.3459 2.76121 8.17316C2.00433 10.0004 1.8063 12.0111 2.19215 13.9509C2.578 15.8907 3.53041 17.6725 4.92894 19.0711C6.32746 20.4696 8.10929 21.422 10.0491 21.8078C11.9889 22.1937 13.9996 21.9957 15.8268 21.2388C17.6541 20.4819 19.2159 19.2002 20.3147 17.5557C21.4135 15.9112 22 13.9778 22 12C21.9972 9.34869 20.9427 6.80678 19.068 4.93202C17.1932 3.05727 14.6513 2.0028 12 2ZM12 20.4615C10.3265 20.4615 8.69052 19.9653 7.29902 19.0355C5.90753 18.1057 4.823 16.7842 4.18256 15.2381C3.54213 13.6919 3.37456 11.9906 3.70105 10.3492C4.02754 8.70786 4.83343 7.20016 6.01679 6.01679C7.20016 4.83342 8.70786 4.02754 10.3492 3.70105C11.9906 3.37456 13.6919 3.54212 15.2381 4.18256C16.7842 4.82299 18.1057 5.90753 19.0355 7.29902C19.9653 8.69051 20.4615 10.3265 20.4615 12C20.459 14.2434 19.5667 16.3941 17.9804 17.9804C16.3941 19.5667 14.2434 20.459 12 20.4615ZM13.1538 7.38461V16.6154C13.1538 16.8194 13.0728 17.0151 12.9285 17.1593C12.7843 17.3036 12.5886 17.3846 12.3846 17.3846C12.1806 17.3846 11.9849 17.3036 11.8407 17.1593C11.6964 17.0151 11.6154 16.8194 11.6154 16.6154V8.82692L10.5038 9.56827C10.4198 9.62433 10.3254 9.66328 10.2263 9.6829C10.1271 9.70251 10.0251 9.70241 9.92599 9.68258C9.82688 9.66276 9.73264 9.62361 9.64866 9.56737C9.56468 9.51113 9.49261 9.4389 9.43654 9.35481C9.38048 9.27071 9.34153 9.17639 9.32191 9.07724C9.3023 8.97809 9.3024 8.87605 9.32223 8.77694C9.34205 8.67783 9.3812 8.5836 9.43744 8.49962C9.49368 8.41564 9.56591 8.34356 9.65 8.2875L11.9577 6.74904C12.0732 6.67195 12.2075 6.62758 12.3462 6.62064C12.4849 6.6137 12.6229 6.64445 12.7456 6.70962C12.8682 6.77479 12.9709 6.87196 13.0428 6.9908C13.1147 7.10964 13.1531 7.24573 13.1538 7.38461Z" fill="#431B61"/>
</svg>
