<svg width="20" height="20" viewBox="0 0 20 20" fill="none" xmlns="http://www.w3.org/2000/svg">
<path d="M9.99971 2.2002C8.45702 2.2002 6.94897 2.65766 5.66626 3.51473C4.38356 4.37181 3.38381 5.59 2.79345 7.01526C2.20309 8.44053 2.04862 10.0088 2.34959 11.5219C2.65055 13.035 3.39343 14.4248 4.48428 15.5156C5.57513 16.6065 6.96495 17.3494 8.47801 17.6503C9.99106 17.9513 11.5594 17.7968 12.9846 17.2065C14.4099 16.6161 15.6281 15.6163 16.4852 14.3336C17.3422 13.0509 17.7997 11.5429 17.7997 10.0002C17.7975 7.93218 16.975 5.94948 15.5127 4.48717C14.0504 3.02486 12.0677 2.20238 9.99971 2.2002ZM8.02196 13.0002H11.9775C11.5747 14.3757 10.8997 15.6154 9.99971 16.5919C9.09971 15.6154 8.42471 14.3757 8.02196 13.0002ZM7.74971 11.8002C7.55071 10.6084 7.55071 9.39194 7.74971 8.20019H12.2497C12.4487 9.39194 12.4487 10.6084 12.2497 11.8002H7.74971ZM3.39971 10.0002C3.39919 9.39152 3.48324 8.78573 3.64946 8.20019H6.53396C6.35496 9.39352 6.35496 10.6069 6.53396 11.8002H3.64946C3.48324 11.2147 3.39919 10.6089 3.39971 10.0002ZM11.9775 7.0002H8.02196C8.42471 5.6247 9.09971 4.38495 9.99971 3.40845C10.8997 4.38495 11.5747 5.6247 11.9775 7.0002ZM13.4655 8.20019H16.35C16.683 9.37709 16.683 10.6233 16.35 11.8002H13.4655C13.6445 10.6069 13.6445 9.39352 13.4655 8.20019ZM15.8775 7.0002H13.2202C12.914 5.79533 12.3998 4.65318 11.7007 3.6252C12.5938 3.86521 13.4269 4.28949 14.1462 4.87074C14.8655 5.452 15.4553 6.17736 15.8775 7.0002ZM8.29871 3.6252C7.59963 4.65318 7.08541 5.79533 6.77921 7.0002H4.12196C4.54416 6.17736 5.13388 5.452 5.85322 4.87074C6.57255 4.28949 7.40557 3.86521 8.29871 3.6252ZM4.12196 13.0002H6.77921C7.08541 14.2051 7.59963 15.3472 8.29871 16.3752C7.40557 16.1352 6.57255 15.7109 5.85322 15.1296C5.13388 14.5484 4.54416 13.823 4.12196 13.0002ZM11.7007 16.3752C12.3998 15.3472 12.914 14.2051 13.2202 13.0002H15.8775C15.4553 13.823 14.8655 14.5484 14.1462 15.1296C13.4269 15.7109 12.5938 16.1352 11.7007 16.3752Z" fill="#5A0C94"/>
</svg>
