<svg width="296" height="285" viewBox="0 0 296 285" fill="none" xmlns="http://www.w3.org/2000/svg">
<path d="M145.751 50.3062L65.7513 130.306C65.0545 131.005 64.2266 131.56 63.3149 131.939C62.4033 132.317 61.4259 132.512 60.4388 132.512C59.4517 132.512 58.4743 132.317 57.5627 131.939C56.651 131.56 55.8231 131.005 55.1263 130.306L20.1263 95.3062C19.4286 94.6085 18.8752 93.7803 18.4977 92.8688C18.1201 91.9573 17.9258 90.9803 17.9258 89.9937C17.9258 89.0071 18.1201 88.0301 18.4977 87.1186C18.8752 86.2071 19.4286 85.3788 20.1263 84.6812C20.8239 83.9835 21.6522 83.4301 22.5637 83.0526C23.4752 82.675 24.4522 82.4807 25.4388 82.4807C26.4254 82.4807 27.4024 82.675 28.3139 83.0526C29.2254 83.4301 30.0536 83.9835 30.7513 84.6812L60.445 114.375L135.139 39.6937C136.548 38.2847 138.459 37.4932 140.451 37.4932C142.444 37.4932 144.355 38.2847 145.764 39.6937C147.173 41.1026 147.964 43.0136 147.964 45.0062C147.964 46.9987 147.173 48.9097 145.764 50.3187L145.751 50.3062Z" fill="#FCCF5C"/>
<path d="M126.445 139.69C123.145 129.49 122.915 128.24 125.105 127.45C127.295 126.66 132.875 138.28 133.505 139.69C135.712 144.153 137.412 148.849 138.575 153.69C139.575 158.21 140.825 168.63 141.035 171.14C141.895 181.73 124.435 184.94 123.675 176.71C122.915 168.48 122.835 165.81 122.835 165.81C122.835 165.81 113.835 166.67 112.565 159.93C111.773 154.659 111.468 149.326 111.655 144C111.655 144 97.9555 141.73 98.4455 138.12C98.9355 134.51 125.735 141.81 125.735 141.81L126.445 139.69Z" fill="#B25E47"/>
<path d="M111.655 144C111.655 144 97.9555 141.73 98.4455 138.12C98.9355 134.51 125.735 141.81 125.735 141.81L126.445 139.69C123.145 129.49 122.915 128.24 125.105 127.45C127.295 126.66 132.875 138.28 133.505 139.69" stroke="#934735" stroke-width="0.61" stroke-linecap="round" stroke-linejoin="round"/>
<path d="M125.716 141.81C124.556 146.316 124.754 151.065 126.286 155.46" stroke="#934735" stroke-width="0.61" stroke-linecap="round" stroke-linejoin="round"/>
<path d="M119.295 134C121.445 135.12 123.135 135.36 123.775 132.3C124.415 129.24 121.445 129.14 120.445 129.3C118.915 129.55 118.375 133.51 119.295 134Z" fill="#683F1D"/>
<path d="M119.725 133.199C119.245 134.839 118.895 136.889 118.905 136.829C119.265 137.009 121.325 137.719 121.645 137.009C121.968 135.758 122.195 134.484 122.325 133.199H119.725Z" fill="#683F1D"/>
<path d="M117.786 137.849C116.656 142.849 110.856 170.409 110.666 171.309C110.476 172.209 110.726 176.369 111.086 176.529C111.446 176.689 113.446 173.709 114.196 172.199C114.946 170.689 121.446 140.479 121.856 139.069C122.856 135.639 118.526 134.569 117.786 137.849Z" fill="#683F1D"/>
<path d="M112.675 153.479C109.865 154.129 109.065 156.809 111.145 158.589C113.375 160.499 118.865 159.589 119.145 157.199C119.425 154.809 115.015 152.939 112.675 153.479Z" fill="#B25E47" stroke="#934735" stroke-width="0.61" stroke-linecap="round" stroke-linejoin="round"/>
<path d="M112.445 149.08C109.565 148.66 108.855 151.51 110.915 153.76C112.975 156.01 119.765 156.47 120.145 153.84C120.525 151.21 114.195 149.34 112.445 149.08Z" fill="#B25E47" stroke="#934735" stroke-width="0.61" stroke-linecap="round" stroke-linejoin="round"/>
<path d="M109.876 144.16C113.496 143.3 121.336 148.62 121.026 150.27C120.646 152.34 116.956 152.66 111.706 150.43C106.786 148.35 108.096 144.58 109.876 144.16Z" fill="#B25E47" stroke="#934735" stroke-width="0.61" stroke-linecap="round" stroke-linejoin="round"/>
<mask id="mask0_779_4451" style="mask-type:luminance" maskUnits="userSpaceOnUse" x="111" y="110" width="176" height="136">
<path d="M286.105 123.08V245.42H111.655V123.08C111.654 121.459 111.972 119.854 112.592 118.356C113.212 116.859 114.121 115.498 115.267 114.352C116.413 113.205 117.774 112.297 119.271 111.677C120.769 111.057 122.374 110.739 123.995 110.74H273.765C277.038 110.74 280.177 112.04 282.491 114.355C284.805 116.669 286.105 119.807 286.105 123.08Z" fill="white"/>
</mask>
<g mask="url(#mask0_779_4451)">
<path d="M284.235 184.09C272.995 183.54 263.685 193.69 260.805 205.34C260.715 205.66 260.645 206.02 260.575 206.4C260.265 208.194 260.052 210.004 259.935 211.82C258.735 227.2 259.865 257.82 259.935 258.5C259.985 258.75 251.935 258.5 240.885 257.98C236.805 257.79 232.295 257.58 227.615 257.34C203.775 256.17 175.465 254.59 175.465 254.59L173.755 235.48C173.755 235.48 170.185 241.48 157.995 253.29C145.805 265.1 126.295 258.5 128.395 243.69C129.705 234.39 135.205 227.58 141.855 216.2C143.855 212.67 146.075 208.71 148.265 204.1C151.175 197.97 154.015 192.1 156.725 186.83C157.915 184.5 159.085 182.29 160.215 180.2C164.495 172.31 168.335 166.33 171.425 163.54C180.715 155.14 200.605 159.98 205.905 161.68C213.815 164.251 222.022 165.797 230.325 166.28C242.085 167.1 259.935 172.17 269.395 175.46C274.863 177.292 279.896 180.226 284.185 184.08L284.235 184.09Z" fill="#5A0C94"/>
<path d="M292.145 201.55C281.855 191.22 266.225 186.71 250.545 200.69C232.305 216.94 218.305 219.76 197.785 196.03C182.945 178.87 177.785 174.49 160.255 180.2C164.535 172.31 168.375 166.33 171.465 163.54C180.755 155.14 200.645 159.98 205.945 161.68C213.855 164.251 222.062 165.797 230.365 166.28C242.125 167.1 259.975 172.17 269.435 175.46C274.903 177.292 279.936 180.226 284.225 184.08C288.275 187.32 290.675 193.81 292.145 201.55Z" fill="#5A0C94"/>
<path d="M156.445 231.081C149.915 238.191 143.995 222.761 141.875 216.201C143.875 212.671 146.095 208.711 148.285 204.101C151.195 197.971 154.035 192.101 156.745 186.831C161.575 194.221 155.045 200.991 154.585 204.341C153.445 213.281 165.865 220.871 156.445 231.081Z" fill="#5A0C94"/>
<path d="M115.375 176.27C125.495 178.4 141.225 168.94 141.225 168.94C141.225 168.94 149.895 207.63 152.155 216.21C154.415 224.79 168.895 258.4 140.685 259.78C122.585 260.66 121.365 226.25 120.305 214.92C119.245 203.59 115.375 176.27 115.375 176.27Z" fill="#5A0C94"/>
<path d="M122.085 180.691C129.875 181.241 138.555 176.001 138.555 176.001" stroke="#5A0C94" stroke-width="0.61" stroke-linecap="round" stroke-linejoin="round"/>
<path d="M141.225 168.94C141.225 168.94 149.895 207.63 152.155 216.21C153.395 220.89 158.265 233.02 157.855 243.3" stroke="#5A0C94" stroke-width="0.61" stroke-linecap="round" stroke-linejoin="round"/>
<path d="M197.785 168C202.785 177.37 216.225 186.37 232.385 173.94C232.385 173.94 234.125 168.78 233.945 168.78C233.765 168.78 200.075 164.7 200.075 164.7L197.785 168Z" fill="#431B61"/>
<path d="M211.085 156.38C206.925 155.44 200.885 156.49 196.725 162.88C192.565 169.27 192.035 174.55 192.275 174.49C192.515 174.43 198.785 170.49 201.655 170.74C204.751 171.267 207.81 171.988 210.815 172.9L211.085 156.38Z" fill="#431B61"/>
<path d="M229.845 158.251C229.845 158.251 239.045 158.311 240.285 164.761C241.525 171.211 238.115 178.941 233.945 182.521C229.775 186.101 232.075 177.361 217.125 173.261L229.845 158.251Z" fill="#431B61"/>
<path d="M234.335 165.791C234.335 165.791 229.225 173.561 217.835 173.741C206.445 173.921 204.255 167.121 204.255 167.121C205.485 164.041 206.975 157.471 207.925 152.861C208.525 149.951 208.925 147.861 208.925 147.861C208.925 147.861 210.805 129.621 230.365 130.721L230.695 133.721L234.335 165.791Z" fill="#B25E47"/>
<path d="M207.925 153C208.525 150.09 208.925 148 208.925 148L220.055 142.78C220.055 142.78 221.815 155.49 207.925 153Z" fill="#914839"/>
<path d="M173.785 235.481C172.215 217.481 172.215 202.961 172.215 202.961" stroke="#5A0C94" stroke-width="0.61" stroke-linecap="round" stroke-linejoin="round"/>
</g>
<path d="M248.096 279.17C247.142 278.821 246.232 278.361 245.386 277.8C239.686 274.04 239.196 266.71 240.926 257.98C242.266 251.29 244.926 243.78 247.496 236.42C250.436 228.03 253.316 219.84 254.126 213.29C254.246 212.37 254.316 211.49 254.346 210.65C254.494 205.619 255.415 200.641 257.076 195.89C261.776 182.66 272.076 174.33 284.226 184.08C288.226 187.31 290.666 193.8 292.136 201.54C292.666 204.3 293.076 207.22 293.416 210.2C294.536 220.33 294.686 231.2 295.186 239.33C297.636 278.63 288.226 294.31 248.096 279.17Z" fill="#5A0C94"/>
<path d="M292.146 201.55C283.296 192.66 270.466 188.08 257.076 195.89C261.776 182.66 272.076 174.33 284.226 184.08C288.276 187.32 290.676 193.81 292.146 201.55Z" fill="#5A0C94"/>
<path d="M259.976 258.499C260.026 258.749 251.976 258.499 240.926 257.979C236.846 257.789 232.336 257.579 227.656 257.339C219.656 253.729 214.656 248.509 218.926 241.029C230.546 220.699 251.926 248.869 253.006 228.709C253.756 214.899 257.106 211.909 259.936 211.819C258.736 227.199 259.866 257.799 259.976 258.499Z" fill="#5A0C94"/>
<path d="M262.706 199.34C261.117 203.324 260.181 207.538 259.936 211.82C258.866 227.21 259.866 257.82 259.936 258.5" stroke="#5A0C94" stroke-width="0.61" stroke-linecap="round" stroke-linejoin="round"/>
<path d="M248.096 279.17C247.142 278.821 246.232 278.361 245.386 277.8C254.576 279.8 268.316 281.55 274.386 276.38C283.936 268.25 277.866 257.83 283.146 252.09C288.426 246.35 296.036 244.5 293.426 210.24C294.546 220.37 294.696 231.24 295.196 239.37C297.636 278.63 288.226 294.31 248.096 279.17Z" fill="#5A0C94"/>
<path d="M225.095 210.22C226.555 203.65 218.315 203.95 218.315 203.95C219.045 197.89 211.025 196.22 209.175 202.12C202.665 200.12 200.605 202.12 199.655 205.55L225.095 210.22Z" fill="#DEDEDE"/>
<path d="M213.985 204.58C215.062 204.58 215.935 203.707 215.935 202.63C215.935 201.553 215.062 200.68 213.985 200.68C212.908 200.68 212.035 201.553 212.035 202.63C212.035 203.707 212.908 204.58 213.985 204.58Z" fill="#F9F9F9" stroke="#DEDEDE" stroke-width="0.82" stroke-linecap="round" stroke-linejoin="round"/>
<path d="M187.275 200.689L175.115 266.629L223.405 276.379L236.375 210.349L187.275 200.689Z" fill="#F9F9F9" stroke="#DEDEDE" stroke-width="0.82" stroke-linecap="round" stroke-linejoin="round"/>
<path d="M202.155 244.38C199.685 250.8 199.545 257.54 200.675 259.8C200.675 259.8 205.285 260.65 209.885 248.16L202.155 244.38Z" fill="#431B61"/>
<path d="M208.445 232C197.395 228.21 192.115 225.91 190.125 225.37C188.135 224.83 180.945 224.23 179.795 225.37C179.288 225.916 178.941 226.591 178.793 227.321C178.644 228.052 178.701 228.809 178.955 229.51C179.335 231.04 178.115 232.15 177.955 233.7C177.795 235.25 179.645 235.7 179.255 237.24C178.865 238.78 177.655 240.45 178.495 242.14C179.335 243.83 177.655 245.58 179.255 247.65C180.855 249.72 197.145 250.71 200.715 249.95L207.715 253.08C207.715 253.08 220.065 240.35 208.445 232Z" fill="#B25E47"/>
<path d="M190.085 225.339C188.085 224.809 180.905 224.199 179.755 225.339C179.248 225.885 178.901 226.561 178.753 227.291C178.604 228.022 178.661 228.779 178.915 229.479C179.295 231.009 178.075 232.119 177.915 233.669C177.755 235.219 179.605 235.669 179.215 237.209C178.825 238.749 177.615 240.419 178.455 242.109C179.295 243.799 177.615 245.549 179.215 247.619" stroke="#934735" stroke-width="0.61" stroke-linecap="round" stroke-linejoin="round"/>
<path d="M274.445 276.38C271.575 281.57 264.375 284.08 250.725 279.95C247.035 278.84 243.475 277.68 240.075 276.51C234.435 274.58 229.235 272.6 224.575 270.71C216.448 267.477 208.491 263.833 200.735 259.79C202.78 257.517 204.43 254.918 205.615 252.1C206.361 250.427 206.973 248.699 207.445 246.93C208.72 242.037 209.059 236.948 208.445 231.93C210.305 232.49 212.305 233.056 214.445 233.63C219.535 235.02 225.235 236.47 231.015 237.99C248.335 242.55 266.345 247.78 270.735 254.28C271.135 254.87 271.515 255.48 271.875 256.1C272.015 256.34 272.165 256.59 272.295 256.84C272.336 256.904 272.373 256.971 272.405 257.04C272.565 257.33 272.725 257.64 272.875 257.94C273.149 258.466 273.399 258.996 273.625 259.53C276.135 265.48 276.865 271.92 274.445 276.38Z" fill="#5A0C94"/>
<path d="M208.445 231.999C228.275 237.999 264.235 244.789 270.695 254.349C271.812 256.01 272.779 257.767 273.585 259.599" stroke="#5A0C94" stroke-width="0.61" stroke-linecap="round" stroke-linejoin="round"/>
<path d="M214.365 233.67C215.595 246.1 209.175 258.03 209.175 258.03" stroke="#5A0C94" stroke-width="0.61" stroke-linecap="round" stroke-linejoin="round"/>
<path d="M274.386 276.38C271.516 281.57 264.316 284.08 250.666 279.95C246.976 278.84 243.416 277.68 240.016 276.51C248.006 278.62 266.946 282.72 274.386 276.38Z" fill="#431B61"/>
<path d="M230.366 130.83L230.706 133.83C223.776 144.62 214.316 148 208.926 148C200.026 145.78 196.986 137.77 196.466 129.18C196.332 127.122 196.326 125.058 196.446 123C196.865 117.17 197.87 111.398 199.446 105.77C199.446 105.77 226.176 93.3297 228.026 118.3C228.026 118.3 233.756 117.3 234.826 123.63C235.656 128.89 230.366 130.83 230.366 130.83Z" fill="#B25E47"/>
<path d="M200.736 123.03C201.327 123.03 201.806 122.551 201.806 121.96C201.806 121.369 201.327 120.89 200.736 120.89C200.145 120.89 199.666 121.369 199.666 121.96C199.666 122.551 200.145 123.03 200.736 123.03Z" fill="#683F1D"/>
<path d="M208.175 121.669C208.766 121.669 209.245 121.19 209.245 120.599C209.245 120.008 208.766 119.529 208.175 119.529C207.585 119.529 207.105 120.008 207.105 120.599C207.105 121.19 207.585 121.669 208.175 121.669Z" fill="#683F1D"/>
<path d="M206.545 114.859C206.665 116.309 211.645 116.859 211.925 116.049C212.355 114.799 206.285 111.439 206.545 114.859Z" fill="#604730"/>
<path d="M197.056 116.999C197.056 117.789 202.476 118.159 202.276 115.359C202.146 113.369 197.176 114.839 197.056 116.999Z" fill="#604730"/>
<path d="M226.575 126.189C228.805 122.889 232.335 123.249 232.705 123.879" stroke="#934735" stroke-width="0.61" stroke-linecap="round" stroke-linejoin="round"/>
<path d="M227.525 125.059C230.815 123.129 232.605 127.459 228.445 127.459" stroke="#934735" stroke-width="0.61" stroke-linecap="round" stroke-linejoin="round"/>
<path d="M203.616 118.859C204.516 120.609 204.446 121.659 203.846 122.789C203.246 123.919 201.436 126.469 202.386 128.729" stroke="#934735" stroke-width="0.61" stroke-linecap="round" stroke-linejoin="round"/>
<path d="M209.446 129.119C208.656 131.829 205.446 133.529 203.896 133.179C203.896 133.179 205.446 137.389 208.176 136.309C211.316 135.079 209.446 129.119 209.446 129.119Z" fill="#FCFCFC" stroke="#934735" stroke-width="0.61" stroke-linecap="round" stroke-linejoin="round"/>
<path d="M226.086 130.049C226.704 130.474 227.405 130.763 228.142 130.897C228.88 131.032 229.638 131.008 230.366 130.829" stroke="#934735" stroke-width="0.61" stroke-linecap="round" stroke-linejoin="round"/>
<path d="M235.796 115.719C238.876 119.939 234.256 121.719 234.256 121.719C233.784 121.043 233.165 120.483 232.446 120.079C231.991 119.812 231.483 119.65 230.957 119.604C230.432 119.558 229.903 119.629 229.409 119.813C228.915 119.997 228.468 120.288 228.101 120.667C227.733 121.045 227.455 121.5 227.286 121.999C220.996 122.129 223.706 117.219 223.706 117.219C218.066 119.469 217.886 113.699 220.316 111.089C215.916 116.029 210.316 111.089 211.236 106.639C209.676 111.499 204.126 111.639 204.866 107.639C204.389 108.471 203.811 109.24 203.146 109.929C199.326 113.759 195.916 109.659 197.346 106.629C191.626 112.079 189.146 105.979 194.606 102.699C190.286 99.1593 195.386 94.1193 198.876 96.6993C198.086 90.4293 204.546 90.1493 207.386 93.8093C208.506 86.9193 217.126 90.6793 217.476 93.9493C223.826 89.5093 228.746 92.7893 228.106 99.9993C230.676 96.5693 236.176 98.5793 234.106 107.379C239.336 106.999 240.246 113.569 235.796 115.719Z" fill="#604730"/>
<path d="M232.445 120.08C231.991 119.813 231.483 119.65 230.957 119.604C230.432 119.558 229.903 119.629 229.409 119.813C228.915 119.997 228.468 120.289 228.101 120.667C227.733 121.045 227.455 121.5 227.285 122C220.995 122.13 223.705 117.22 223.705 117.22C218.065 119.47 217.885 113.7 220.315 111.09C215.915 116.03 210.315 111.09 211.235 106.64C209.675 111.5 204.125 111.64 204.865 107.64C204.389 108.471 203.811 109.24 203.145 109.93C201.605 105.26 205.055 99.0996 210.325 101.93C211.015 98.1796 219.635 95.7496 219.585 105.25C222.775 100.79 229.995 102.32 226.585 110.81C229.265 108.69 235.445 112.17 232.445 120.08Z" fill="#473526"/>
<path d="M220.876 121.729C221.636 123.249 220.206 125.509 217.676 126.779C215.146 128.049 212.476 127.779 211.676 126.309C210.876 124.839 212.346 122.529 214.876 121.259C217.406 119.989 220.106 120.209 220.876 121.729Z" fill="#A0503D"/>
<path d="M199.786 127.519C199.396 128.599 198.076 129.179 196.446 129.149C196.32 127.101 196.32 125.047 196.446 122.999C198.866 124.059 200.346 125.999 199.786 127.519Z" fill="#A0503D"/>
</svg>
