<svg width="20" height="20" viewBox="0 0 20 20" fill="none" xmlns="http://www.w3.org/2000/svg">
<path d="M17.2001 1.60059C17.8376 1.60059 18.4001 2.16309 18.4001 2.83809V17.2006C18.4001 17.8756 17.8376 18.4006 17.2001 18.4006H2.7626C2.1251 18.4006 1.6001 17.8756 1.6001 17.2006V2.83809C1.6001 2.16309 2.1251 1.60059 2.7626 1.60059H17.2001ZM6.6626 16.0006V8.01309H4.1876V16.0006H6.6626ZM5.4251 6.88809C6.2126 6.88809 6.8501 6.25059 6.8501 5.46309C6.8501 4.67559 6.2126 4.00059 5.4251 4.00059C4.6001 4.00059 3.9626 4.67559 3.9626 5.46309C3.9626 6.25059 4.6001 6.88809 5.4251 6.88809ZM16.0001 16.0006V11.6131C16.0001 9.47559 15.5126 7.78809 13.0001 7.78809C11.8001 7.78809 10.9751 8.46309 10.6376 9.10059H10.6001V8.01309H8.2376V16.0006H10.7126V12.0631C10.7126 11.0131 10.9001 10.0006 12.2126 10.0006C13.4876 10.0006 13.4876 11.2006 13.4876 12.1006V16.0006H16.0001Z" fill="#5A0C94"/>
</svg>
