<svg width="121" height="121" viewBox="0 0 121 121" fill="none" xmlns="http://www.w3.org/2000/svg">
<rect x="0.666687" y="0.870605" width="120" height="120" rx="60" fill="#FCCF5C"/>
<path d="M64.1511 94.4705C62.0391 94.4705 60.5671 94.0545 59.7351 93.2225C58.9031 92.3265 58.4871 90.7905 58.4871 88.6145V32.9345C58.4871 30.8225 58.9031 29.3505 59.7351 28.5185C60.5671 27.6865 62.0711 27.2705 64.2471 27.2705C66.3591 27.2705 67.8311 27.7185 68.6631 28.6145C69.4951 29.4465 69.9111 30.9505 69.9111 33.1265V88.7105C69.9111 90.8225 69.4951 92.3265 68.6631 93.2225C67.8311 94.0545 66.3271 94.4705 64.1511 94.4705ZM49.3671 52.3265C47.8951 53.6705 46.5831 54.3425 45.4311 54.3425C44.2791 54.2785 42.9991 53.4785 41.5911 51.9425C40.2471 50.4705 39.6071 49.0945 39.6711 47.8145C39.7991 46.5345 40.6951 45.1585 42.3591 43.6865L58.7751 29.1905C60.2471 27.9105 61.5591 27.3345 62.7111 27.4625C63.9271 27.5265 65.2071 28.2945 66.5511 29.7665C67.9591 31.2385 68.5991 32.6145 68.4711 33.8945C68.3431 35.1745 67.4151 36.5505 65.6871 38.0225L49.3671 52.3265Z" fill="#5A0C94"/>
</svg>
