<svg width="120" height="121" viewBox="0 0 120 121" fill="none" xmlns="http://www.w3.org/2000/svg">
<rect x="3.05176e-05" y="0.870605" width="120" height="120" rx="60" fill="#FCCF5C"/>
<path d="M40.752 94.6147C39.28 94.6147 37.936 94.0387 36.72 92.8867C35.568 91.6707 34.992 90.2627 34.992 88.6627C34.992 87.6387 35.056 86.6467 35.184 85.6867C35.312 84.7267 35.6 83.7987 36.048 82.9027C36.496 82.0067 37.168 81.1427 38.064 80.3107C41.008 77.8787 43.984 75.6387 46.992 73.5907C50.064 71.5427 53.008 69.5907 55.824 67.7347C58.64 65.8787 61.168 64.0227 63.408 62.1667C65.648 60.2467 67.408 58.2627 68.688 56.2147C69.968 54.1027 70.608 51.8307 70.608 49.3987C70.608 47.4147 70.192 45.6227 69.36 44.0227C68.592 42.4227 67.344 41.1427 65.616 40.1827C63.888 39.2227 61.584 38.7427 58.704 38.7427C56.72 38.7427 54.96 39.0307 53.424 39.6067C51.952 40.1827 50.704 41.0147 49.68 42.1027C48.72 43.1907 47.952 44.5347 47.376 46.1347C46.864 47.6707 46.608 49.4307 46.608 51.4147C46.608 52.5027 46.512 53.4627 46.32 54.2947C46.128 55.1267 45.616 55.7987 44.784 56.3107C44.016 56.7587 42.672 56.9827 40.752 56.9827C38.832 56.9827 37.456 56.6947 36.624 56.1187C35.856 55.5427 35.376 54.7747 35.184 53.8147C35.056 52.7907 34.992 51.7347 34.992 50.6467C34.992 47.4467 35.504 44.4387 36.528 41.6227C37.616 38.7427 39.184 36.2467 41.232 34.1347C43.28 31.9587 45.744 30.2627 48.624 29.0467C51.568 27.7667 54.896 27.1267 58.608 27.1267C63.28 27.1267 67.376 28.0867 70.896 30.0067C74.48 31.9267 77.264 34.6147 79.248 38.0707C81.296 41.5267 82.32 45.6547 82.32 50.4547C82.32 52.9507 81.936 55.2867 81.168 57.4627C80.4 59.6387 79.344 61.6867 78 63.6067C76.656 65.4627 75.088 67.1907 73.296 68.7907C71.568 70.3907 69.68 71.9267 67.632 73.3987C65.648 74.8067 63.632 76.1507 61.584 77.4307C59.536 78.6467 57.552 79.8307 55.632 80.9827L51.984 82.9027H79.248C80.336 82.9027 81.328 83.0307 82.224 83.2867C83.12 83.4787 83.792 83.9907 84.24 84.8227C84.752 85.6547 85.008 86.9987 85.008 88.8547C85.008 90.6467 84.752 91.9587 84.24 92.7907C83.728 93.6227 83.024 94.1347 82.128 94.3267C81.232 94.5187 80.208 94.6147 79.056 94.6147H40.752Z" fill="#5A0C94"/>
</svg>
