<svg width="328" height="218" viewBox="0 0 328 218" fill="none" xmlns="http://www.w3.org/2000/svg">
<g clip-path="url(#clip0_782_4901)">
<path d="M237.419 130.494H124.325C123.03 130.494 121.98 131.546 121.98 132.843V133.052C121.98 134.349 123.03 135.401 124.325 135.401H237.419C238.715 135.401 239.764 134.349 239.764 133.052V132.843C239.764 131.546 238.715 130.494 237.419 130.494Z" stroke="#DEDEDE" stroke-width="2" stroke-miterlimit="10"/>
<path d="M235.438 53.7764H126.302V130.494H235.438V53.7764Z" stroke="#DEDEDE" stroke-width="2" stroke-miterlimit="10"/>
<path d="M236.615 47.1807H125.129C123.39 47.1807 121.98 48.5932 121.98 50.3356V50.6219C121.98 52.3643 123.39 53.7768 125.129 53.7768H236.615C238.354 53.7768 239.764 52.3643 239.764 50.6219V50.3356C239.764 48.5932 238.354 47.1807 236.615 47.1807Z" stroke="#DEDEDE" stroke-width="2" stroke-miterlimit="10"/>
<path d="M227.361 76.1761L215.065 75.914C215.065 75.914 218.103 68.4102 216.126 62.9643L227.948 62.7119C228.498 64.2246 228.851 65.8022 228.999 67.4054C229.251 69.973 229.052 73.2056 227.361 76.1761Z" stroke="#DEDEDE" stroke-linecap="round" stroke-linejoin="round"/>
<path d="M219.144 67.0039H226.896" stroke="#DEDEDE" stroke-linecap="round" stroke-linejoin="round"/>
<path d="M218.762 71.4883H226.514" stroke="#DEDEDE" stroke-linecap="round" stroke-linejoin="round"/>
<path d="M220.496 69.1826L226.596 69.304" stroke="#DEDEDE" stroke-linecap="round" stroke-linejoin="round"/>
<path d="M134.557 65.0762H146.573C146.573 65.0762 145.914 74.4195 149.644 77.6084L136.316 77.9385C136.316 77.9385 133.68 73.541 134.557 65.0762Z" stroke="#DEDEDE" stroke-linecap="round" stroke-linejoin="round"/>
<path d="M142.493 68.9648H144.441" stroke="#DEDEDE" stroke-linecap="round" stroke-linejoin="round"/>
<path d="M136.704 68.9648H141.52" stroke="#DEDEDE" stroke-linecap="round" stroke-linejoin="round"/>
<path d="M137.091 71.7891H142.014" stroke="#DEDEDE" stroke-linecap="round" stroke-linejoin="round"/>
<path d="M137.595 74.1581C137.692 74.0611 144.916 73.9834 144.916 73.9834" stroke="#DEDEDE" stroke-linecap="round" stroke-linejoin="round"/>
<path d="M153.767 76.5303H165.008C165.008 76.5303 164.223 86.029 167.227 89.412H155.434C153.274 85.4831 152.679 80.8809 153.767 76.5303Z" fill="#EDEDED" stroke="#DEDEDE" stroke-linecap="round" stroke-linejoin="round"/>
<path d="M156.267 83.1367H162.75" stroke="#F9F9F9" stroke-linecap="round" stroke-linejoin="round"/>
<path d="M156.587 85.6221H160.342" stroke="#F9F9F9" stroke-linecap="round" stroke-linejoin="round"/>
<path d="M156.267 79.7393L162.042 80.0159" stroke="#F9F9F9" stroke-linecap="round" stroke-linejoin="round"/>
<path d="M154.78 106.396L163.283 106.071L169.16 89.4129L188.922 87.5005L198.389 71.7891" stroke="#DEDEDE" stroke-width="2" stroke-linecap="round" stroke-linejoin="round"/>
<path d="M198.893 70.9258L193.001 75.1388L197.914 78.1141L198.893 70.9258Z" fill="#DEDEDE" stroke="#DEDEDE" stroke-width="2" stroke-linecap="round" stroke-linejoin="round"/>
<path d="M33.1534 138.766L49.3306 133.538L61.1376 140.547L63.3614 210.663H42.0438L33.1534 138.766Z" fill="#FCCF5C"/>
<path d="M47.6156 208.377H9.68973L11.5308 155.957C10.9759 154.809 10.4905 153.629 10.0773 152.423C5.65877 139.318 14.835 133.538 20.9493 132.077C25.1353 131.082 31.1623 131.266 34.6604 131.417C35.7214 131.46 36.5499 131.499 37.0247 131.499C39.8346 140.605 42.0995 149.871 43.8075 159.248C44.0562 160.571 44.2856 161.878 44.4955 163.169C44.4976 163.181 44.4976 163.192 44.4955 163.203C48.9577 189.729 47.6156 208.377 47.6156 208.377Z" fill="#5A0C94"/>
<path d="M82.2761 190.293C76.3605 193.763 68.4293 191.613 68.4293 191.613L67.5476 209.149L59.7957 209.635C59.7957 209.635 61.0457 194.074 60.5612 179.187C60.382 173.931 59.8587 168.135 59.1465 162.374C58.9624 160.918 58.7735 159.486 58.57 158.054C57.2909 149.022 55.6146 140.426 54.1417 134.543C55.528 133.747 57.0305 133.174 58.5942 132.844C62.1189 132.144 65.7699 132.467 69.1173 133.776C69.4565 135.926 69.9361 140.29 70.4158 145.163C71.3847 154.996 72.3876 166.912 72.3876 166.912C73.4196 152.206 87.6055 151.414 89.2285 173.664C89.3254 184.158 86.7915 187.652 82.2761 190.293Z" fill="#5A0C94"/>
<path d="M81.9854 172.867L64.4807 177.022L66.3751 146.114L66.782 139.498L69.1221 133.775C69.1221 133.775 77.5232 138.716 79.3303 143.9C79.8381 145.695 80.1834 147.533 80.3623 149.39C81.4669 158.199 81.9854 172.867 81.9854 172.867Z" fill="#5A0C94"/>
<path d="M80.3624 149.395C77.7703 147.773 73.8896 145.682 70.4206 145.167L66.3751 146.114L66.7821 139.498L69.1222 133.775C69.1222 133.775 77.5232 138.716 79.3304 143.9C79.8384 145.697 80.1838 147.536 80.3624 149.395Z" fill="#9940DC"/>
<path d="M37.0392 131.499C39.8491 140.605 42.1141 149.871 43.8221 159.248C42.0438 158.043 40.4825 156.544 39.2049 154.816C29.142 141.711 17.8437 143.352 10.0773 152.423C5.65877 139.318 14.835 133.538 20.9493 132.077C25.1353 131.082 31.1623 131.266 34.6604 131.417C35.7359 131.46 36.5644 131.499 37.0392 131.499Z" fill="#5A0C94"/>
<path d="M70.4204 145.167C69.1075 145.87 68.1579 146.725 67.7364 147.593C66.6414 149.894 63.1628 154.811 58.565 158.039C57.2859 149.006 55.6096 140.41 54.1367 134.527C55.523 133.731 57.0254 133.158 58.5892 132.828C62.1182 132.127 65.7739 132.456 69.122 133.775C69.4611 135.93 69.9408 140.293 70.4204 145.167Z" fill="#5A0C94"/>
<path d="M44.5245 163.17C43.2406 157.074 34.5052 148.468 34.5052 148.468L36.4189 143.275L32.5963 141.474L34.6748 131.417C35.7358 131.461 36.5643 131.499 37.0391 131.499C40.2481 141.874 42.749 152.455 44.5245 163.17Z" fill="#5A0C94"/>
<path d="M64.4808 147.293C62.0689 152.071 60.2778 157.14 59.1514 162.374C58.0061 153.01 56.3352 143.718 54.1466 134.543C55.5329 133.746 57.0353 133.173 58.5991 132.844L63.788 141.056L60.6097 144.701L64.4808 147.293Z" fill="#5A0C94"/>
<path d="M39.447 128.699C38.5076 129.511 37.6915 130.456 37.0245 131.505L37.8772 143.275C37.8772 143.275 41.7532 137.936 48.2453 138.319L39.447 128.699Z" fill="#431B61"/>
<path d="M53.4103 130.378C53.4103 130.485 51.2543 138.207 51.2543 138.207C51.2543 138.207 55.4839 140.105 58.4005 143.298C58.4005 143.298 56.9809 134.649 56.4625 133.203C55.9441 131.756 53.4103 130.378 53.4103 130.378Z" fill="#431B61"/>
<path d="M68.4536 150.143C68.6377 155.409 68.6862 186.492 68.4536 191.613" stroke="#5A0C94" stroke-width="0.75" stroke-linecap="round" stroke-linejoin="round"/>
<path d="M55.6097 122.758L54.4469 125.053L54.2143 125.539C54.2143 125.539 53.788 127.689 53.5312 129.499C53.4032 130.237 53.3415 130.984 53.3471 131.732C53.4585 132.946 54.2144 139.367 47.9741 138.726C41.7339 138.086 39.2533 129.936 39.2533 129.936C39.4859 127.912 41.7678 117.69 41.7678 117.69C41.7678 117.69 44.1515 111.987 51.3559 113.002C56.2008 113.681 55.8229 119.108 55.0525 122.593L55.6097 122.758Z" fill="#FEBD9D"/>
<path d="M55.6097 122.758L54.4469 125.053L54.2144 125.539C54.2144 125.539 53.788 127.689 53.5312 129.499C50.4305 128.689 46.5206 125.966 47.1747 120.103L55.0574 122.592L55.6097 122.758Z" fill="#F4A789"/>
<path d="M41.4527 113.628C34.7813 108.026 36.0652 100.673 41.4527 101.857C41.4527 101.857 39.4518 98.9743 43.4536 95.3777C45.7937 93.2712 49.8005 92.7615 52.5378 94.8098C54.3305 96.1591 57.8188 94.6982 58.4389 93.6304C61.7528 96.8144 60.2509 102.391 55.9438 102.906L41.4527 113.628Z" fill="#BF8228"/>
<path d="M42.1506 113.429C38.4346 109.546 38.2747 104.556 41.6419 102.687C41.6419 102.687 40.9588 97.0912 47.4946 96.499C54.5875 95.8583 56.7919 101.193 53.8704 105.158L42.1506 113.429Z" fill="#B57724"/>
<path d="M46.3851 103.57C46.8696 99.6146 49.6312 97.2897 52.5575 97.6149C55.4839 97.9401 57.9354 97.0664 58.2842 95.4453" stroke="#9B621F" stroke-width="0.75" stroke-linecap="round" stroke-linejoin="round"/>
<path d="M50.7939 100.425C51.0507 100.425 57.8627 102.939 59.0981 97.7266" stroke="#9B621F" stroke-width="0.75" stroke-linecap="round" stroke-linejoin="round"/>
<path d="M41.1819 111.687C41.1819 111.575 43.4977 108.289 43.0908 105.042" stroke="#9B621F" stroke-width="0.75" stroke-linecap="round" stroke-linejoin="round"/>
<path d="M41.2593 113.317C39.646 110.972 37.7322 105.123 41.4531 103.726" stroke="#9B621F" stroke-width="0.75" stroke-linecap="round" stroke-linejoin="round"/>
<path d="M41.453 101.857C41.8176 101.84 42.1812 101.906 42.5168 102.05C42.8524 102.194 43.1512 102.411 43.391 102.687" stroke="#9B621F" stroke-width="0.75" stroke-linecap="round" stroke-linejoin="round"/>
<path d="M43.1196 100.077C43.5508 96.3688 49.0159 93.5682 52.4073 94.738" stroke="#9B621F" stroke-width="0.75" stroke-linecap="round" stroke-linejoin="round"/>
<path d="M59.3453 115.409L59.137 115.817L55.6099 122.758L54.4471 125.054L54.2097 125.539L48.1972 120.428L44.3213 117.118C43.4942 117.386 42.6444 117.578 41.7825 117.691C41.0556 117.669 40.3553 117.412 39.7866 116.958C39.2179 116.503 38.8116 115.877 38.6285 115.172C37.8 112.483 39.8397 110.643 42.0199 111.031C42.3286 111.081 42.6287 111.174 42.9114 111.308C45.8813 109.274 45.8716 105.28 44.2728 104.086C43.6963 100.907 50.5954 97.5284 51.7243 99.9795C53.3086 103.43 55.9442 102.892 55.9442 102.892C57.0125 105.385 57.8872 107.957 58.5604 110.585C58.5992 110.74 58.638 110.9 58.6719 111.046C59.0485 112.473 59.2742 113.935 59.3453 115.409Z" fill="#FEBD9D"/>
<path d="M49.5488 120.302C51.6868 120.302 53.4199 118.566 53.4199 116.424C53.4199 114.282 51.6868 112.546 49.5488 112.546C47.4109 112.546 45.6777 114.282 45.6777 116.424C45.6777 118.566 47.4109 120.302 49.5488 120.302Z" fill="#F4AF90"/>
<path d="M59.3451 115.409L59.1368 115.816C58.7292 115.532 58.387 115.164 58.1331 114.736C57.8793 114.308 57.7198 113.831 57.6652 113.336C57.6106 112.842 57.6622 112.341 57.8165 111.868C57.9709 111.395 58.2245 110.961 58.5602 110.594C58.599 110.749 58.6378 110.909 58.6717 111.055C59.0476 112.479 59.2733 113.938 59.3451 115.409Z" fill="#F4AF90"/>
<path d="M55.6098 122.758L54.4471 125.053L54.2097 125.539L48.1971 120.428L55.6098 122.758Z" fill="#F4A789"/>
<path d="M51.9033 110.366C52.2618 110.366 52.5525 110.075 52.5525 109.716C52.5525 109.357 52.2618 109.065 51.9033 109.065C51.5447 109.065 51.254 109.357 51.254 109.716C51.254 110.075 51.5447 110.366 51.9033 110.366Z" fill="#683F1D"/>
<path d="M56.4092 109.06C56.7678 109.06 57.0584 108.768 57.0584 108.409C57.0584 108.05 56.7678 107.759 56.4092 107.759C56.0507 107.759 55.76 108.05 55.76 108.409C55.76 108.768 56.0507 109.06 56.4092 109.06Z" fill="#683F1D"/>
<path d="M53.5506 103.416C53.4973 104.469 56.4576 104.304 56.6562 103.988C56.9275 103.571 53.6427 101.659 53.5506 103.416Z" fill="#BF8228"/>
<path d="M47.6448 106.201C47.4607 107.361 50.5905 105.595 50.7697 104.92C50.8022 104.776 50.8015 104.626 50.7675 104.483C50.7336 104.339 50.6674 104.205 50.574 104.091C50.4805 103.977 50.3623 103.885 50.2283 103.824C50.0943 103.762 49.9481 103.732 49.8008 103.736C49.1176 103.823 47.7707 105.4 47.6448 106.201Z" fill="#BF8228"/>
<path d="M61.5301 118.874C61.5261 119.445 61.4611 120.015 61.3364 120.573C60.13 125.81 53.8268 127.596 48.1631 122.514C43.3811 118.228 42.0197 111.04 42.0197 111.04C42.0183 111.03 42.0183 111.02 42.0197 111.011C42.3284 111.06 42.6285 111.154 42.9112 111.287C42.9112 111.287 44.1321 114.573 46.5885 116.573C47.6737 117.461 48.6863 117.932 49.6892 117.942C50.9489 117.942 52.194 117.238 53.5651 115.709C55.9876 112.972 57.8189 113.219 58.4924 113.374C58.6874 112.613 58.7513 111.823 58.6813 111.04C59.6842 112.19 61.5689 115.496 61.5301 118.874Z" fill="#BF8228"/>
<path d="M53.8557 106.201C54.2772 109.332 55.3673 109.909 56.8789 110.37C57.8188 110.662 56.8789 112.458 56.8789 112.458" stroke="#EF8A66" stroke-width="0.75" stroke-linecap="round" stroke-linejoin="round"/>
<path d="M58.2164 114.604C57.9354 117.923 54.6215 118.166 53.9723 116.385C53.9723 116.385 56.7726 115.924 58.2164 114.604Z" fill="#FCFCFC" stroke="#EF8A66" stroke-width="0.75" stroke-linecap="round" stroke-linejoin="round"/>
<path d="M41.7629 117.68C42.3308 117.651 42.8895 117.524 43.4151 117.307" stroke="#EF8A66" stroke-width="0.75" stroke-linecap="round" stroke-linejoin="round"/>
<path d="M40.1836 113.943C40.5663 113.346 42.3202 112.579 43.0663 114.603" stroke="#EF8A66" stroke-width="0.75" stroke-linecap="round" stroke-linejoin="round"/>
<path d="M42.7271 113.948C41.041 113.71 40.9441 116.283 42.9984 115.793" stroke="#EF8A66" stroke-width="0.75" stroke-linecap="round" stroke-linejoin="round"/>
<path d="M52.7001 107.813L48.3683 109.313C48.0345 109.429 47.8575 109.794 47.9729 110.128L48.7216 112.298C48.837 112.632 49.2012 112.81 49.535 112.694L53.8667 111.194C54.2005 111.078 54.3776 110.713 54.2622 110.379L53.5135 108.209C53.3981 107.875 53.0339 107.697 52.7001 107.813Z" stroke="#683F1D" stroke-linecap="round" stroke-linejoin="round"/>
<path d="M55.9926 106.842L59.7861 105.526C59.939 105.474 60.1065 105.484 60.2518 105.555C60.3972 105.626 60.5085 105.752 60.5613 105.905L61.3268 108.133C61.3795 108.285 61.3699 108.453 61.3 108.598C61.2301 108.744 61.1056 108.855 60.9537 108.909L57.8578 109.977" stroke="#683F1D" stroke-linecap="round" stroke-linejoin="round"/>
<path d="M61.5301 118.874C61.5261 119.445 61.4611 120.015 61.3364 120.573C60.13 125.81 53.8268 127.596 48.1631 122.514C43.3811 118.228 42.0197 111.04 42.0197 111.04C42.0183 111.03 42.0183 111.02 42.0197 111.011C42.3284 111.06 42.6285 111.154 42.9112 111.287C42.9112 111.287 44.1321 114.573 46.5885 116.573C47.6737 117.461 48.6863 117.932 49.6892 117.942C52.3103 120.907 54.2822 121.825 56.6756 121.495C58.5554 121.233 60.2786 120.303 61.5301 118.874Z" fill="#B57724"/>
<path d="M51.4722 124.718C55.227 122.869 58.1775 122.573 60.1494 123.131" stroke="#9B621F" stroke-width="0.75" stroke-linecap="round" stroke-linejoin="round"/>
<path d="M48.4829 122.806C51.666 121.078 57.6882 120.68 61.1378 121.248" stroke="#9B621F" stroke-width="0.75" stroke-linecap="round" stroke-linejoin="round"/>
<path d="M43.89 116.549C47.1652 121.544 55.8618 119.573 57.8191 118.413C59.6747 117.306 59.539 114.423 58.5894 112.875" stroke="#9B621F" stroke-width="0.75" stroke-linecap="round" stroke-linejoin="round"/>
<path d="M53.7786 108.91L55.1351 108.425" stroke="#683F1D" stroke-linecap="round" stroke-linejoin="round"/>
<path d="M60.106 104.939C59.5537 105.57 60.8715 106.851 62.8676 107.535C64.0551 107.943 65.1248 108.637 65.9828 109.555C65.9828 109.555 65.5226 112.302 67.1311 113.277C67.1311 113.277 66.4189 114.132 65.9586 113.53C65.4983 112.928 64.5439 109.773 62.761 109.977C61.5304 110.118 63.3908 113.675 63.6573 115.068C63.9238 116.461 64.7329 118.417 66.4189 119.233C68.1049 120.048 69.8636 124.955 69.8636 124.955C69.8636 124.955 76.6755 122.475 76.6998 122.417C76.724 122.359 75.7841 119.99 75.7841 119.99C75.7841 119.99 75.973 116.539 75.9488 113.976C75.9246 111.414 75.0573 109.506 73.0031 109.443C73.0031 109.443 73.2114 108.171 71.6078 108.05C71.6078 108.05 71.5012 106.108 68.2163 107.113C68.226 107.123 61.2881 103.585 60.106 104.939Z" fill="#FEBD9D"/>
<path d="M69.1223 127.329C69.0254 127.189 68.5215 124.199 68.5215 124.199L76.8499 121.505L78.3033 124.902L69.1223 127.329Z" fill="#431B61"/>
<path d="M73.0029 109.453C73.0029 109.453 73.2112 108.181 71.6076 108.06C71.6076 108.06 71.501 106.118 68.2161 107.123C68.2161 107.123 61.2782 103.584 60.0961 104.939C59.5438 105.57 60.8616 106.851 62.8577 107.535C64.0452 107.943 65.1149 108.637 65.973 109.555C65.973 109.555 65.5127 112.302 67.1212 113.277C67.1212 113.277 66.409 114.132 65.9487 113.53C65.4885 112.928 64.534 109.773 62.7511 109.977C61.5205 110.118 63.3809 113.675 63.6474 115.068C63.9139 116.461 64.723 118.417 66.409 119.233" stroke="#EF8A66" stroke-width="0.75" stroke-linecap="round" stroke-linejoin="round"/>
<path d="M66.0508 113.628C66.7145 114.055 70.2658 114.395 70.4451 117.108" stroke="#EF8A66" stroke-width="0.75" stroke-linecap="round" stroke-linejoin="round"/>
<path d="M67.1311 113.277C67.3211 113.367 67.5301 113.41 67.7403 113.402C67.9504 113.393 68.1554 113.334 68.3375 113.229" stroke="#EF8A66" stroke-width="0.75" stroke-linecap="round" stroke-linejoin="round"/>
<path d="M65.9828 109.555C66.1612 109.013 66.4538 108.516 66.8408 108.097C67.2279 107.678 67.7003 107.348 68.226 107.128" stroke="#EF8A66" stroke-width="0.75" stroke-linecap="round" stroke-linejoin="round"/>
<path d="M71.5253 108.051C68.5845 109.085 68.0952 111.249 68.226 112.482C68.3568 113.715 68.8897 114.205 69.5874 114.098C69.7675 114.054 69.9326 113.962 70.0654 113.833C70.1983 113.703 70.2942 113.54 70.3432 113.361" stroke="#EF8A66" stroke-width="0.75" stroke-linecap="round" stroke-linejoin="round"/>
<path d="M73.0028 109.452C72.2831 109.525 71.6133 109.854 71.1153 110.379C70.6174 110.905 70.3244 111.592 70.2897 112.316C70.1346 114.083 71.0842 114.485 71.7431 114.087C72.4699 113.626 73.1966 111.942 73.1966 111.942" stroke="#EF8A66" stroke-width="0.75" stroke-linecap="round" stroke-linejoin="round"/>
<path d="M89.2336 173.667C88.3372 187.257 73.7008 184.903 72.3927 166.915C72.3927 166.915 71.3898 155 70.4208 145.166C69.9363 140.312 69.4518 135.944 69.1224 133.779L68.1146 126.902L81.1426 123.019C81.1426 123.019 83.7055 133.27 85.9487 145.676C86.8789 150.83 87.7559 156.354 88.3712 161.664C88.8697 165.647 89.1575 169.653 89.2336 173.667Z" fill="#5A0C94"/>
<path d="M72.3926 166.916C72.3926 166.916 71.3897 155 70.4208 145.166C69.9363 140.312 69.4518 135.944 69.1223 133.779" stroke="#5A0C94" stroke-width="0.75" stroke-linecap="round" stroke-linejoin="round"/>
<path d="M92.3439 165.325C92.3778 165.213 94.8051 161.49 97.087 160.529C99.369 159.568 102.349 158.102 103.308 156.748C104.267 155.394 106.215 155.37 104.999 158.064C103.783 160.757 102.387 161.267 102.387 161.267C102.387 161.267 108.603 159.428 112.247 158.69C115.89 157.952 117.029 159.573 113.279 160.976C111.188 161.73 109.168 162.667 107.242 163.776C107.242 163.776 113.569 162.966 116.181 163C118.792 163.034 119.572 164.456 116.035 165.325C118.429 165.359 118.797 166.723 115.963 167.349C113.129 167.975 108.347 169.208 108.347 169.208C108.347 169.208 113.39 168.878 115.43 169.208C117.47 169.538 116.399 171.149 113.647 171.455C110.895 171.761 96.2053 174.401 93.9233 174.071L92.3439 165.325Z" fill="#FEBD9D"/>
<path d="M100.013 159.142C101.467 158.384 102.736 157.535 103.308 156.715C104.277 155.375 106.215 155.336 104.999 158.03C103.783 160.724 102.387 161.234 102.387 161.234C102.387 161.234 108.603 159.394 112.247 158.656C115.89 157.918 117.029 159.54 113.279 160.942C111.188 161.696 109.168 162.634 107.242 163.743C107.242 163.743 113.569 162.932 116.181 162.966C118.792 163 119.572 164.422 116.035 165.291C118.429 165.325 118.797 166.689 115.963 167.315C113.128 167.941 108.347 169.208 108.347 169.208C108.347 169.208 113.39 168.878 115.43 169.208C117.469 169.538 116.399 171.15 113.647 171.455" stroke="#EF8A66" stroke-width="0.75" stroke-linecap="round" stroke-linejoin="round"/>
<path d="M88.3712 164.165L92.7849 162.985L95.5078 175.333L91.9371 176.513L88.3712 164.165Z" fill="#431B61"/>
<path d="M100.067 162.03L102.387 161.253" stroke="#EF8A66" stroke-width="0.75" stroke-linecap="round" stroke-linejoin="round"/>
<path d="M107.634 166.524L116.035 165.311" stroke="#EF8A66" stroke-width="0.75" stroke-linecap="round" stroke-linejoin="round"/>
<path d="M93.7681 177.507C93.7681 177.507 80.7838 182.9 69.8295 187.797C67.1357 189.006 64.5679 190.18 62.3393 191.234C51.0652 196.597 46.2784 199 38.5556 196.146C33.0809 194.117 27.4123 185.259 20.5665 172.819C17.7661 167.722 14.7817 162.029 11.5308 155.957C9.91255 149.749 20.0675 145.279 27.1217 146.385C27.1556 146.385 29.2776 146.385 31.5499 148.812C34.2582 151.686 47.8045 174.852 47.8045 174.852C52.165 172.736 90.0133 161.689 90.0133 161.689L93.7681 177.507Z" fill="#5A0C94"/>
<path d="M69.8294 187.798C67.1356 189.007 64.5678 190.181 62.3392 191.234C51.0651 196.598 46.2783 199 38.5555 196.146C33.0808 194.118 27.4123 185.26 20.5664 172.819C24.1371 171.975 28.3667 172.465 30.0963 178.285C33.4102 189.448 41.2396 195.02 49.2579 187.856C55.5175 182.275 65.9244 181.124 69.8294 187.798Z" fill="#5A0C94"/>
<path d="M27.1313 146.396C27.1313 146.396 29.2728 146.396 31.5596 148.822C34.2679 151.701 47.8142 174.867 47.8142 174.867C52.1746 172.746 90.023 161.704 90.023 161.704L93.7778 177.522C93.7778 177.522 73.623 185.89 62.3489 191.249C51.0748 196.607 46.2929 199.014 38.5701 196.156C32.0683 193.758 25.2806 181.735 16.6276 165.519" stroke="#5A0C94" stroke-width="0.75" stroke-linecap="round" stroke-linejoin="round"/>
<path d="M42.9015 179.187C42.9015 179.187 44.9363 175.959 47.8045 174.853" stroke="#5A0C94" stroke-width="0.75" stroke-linecap="round" stroke-linejoin="round"/>
<path d="M322.772 206.867H5.22773C2.34053 206.867 0 209.257 0 212.204V212.694C0 215.641 2.34053 218.031 5.22773 218.031H322.772C325.659 218.031 328 215.641 328 212.694V212.204C328 209.257 325.659 206.867 322.772 206.867Z" fill="#EDEDED"/>
<path d="M10.0776 217.866C18.4787 213.837 30.9495 212.949 40.4503 217.866" stroke="#DEDEDE" stroke-width="0.75" stroke-linecap="round" stroke-linejoin="round"/>
<path d="M7.17542 206.911C15.465 211.517 20.9737 211.153 31.2013 211.017C38.8126 210.92 47.9792 214.803 54.0886 217.866" stroke="#DEDEDE" stroke-width="0.75" stroke-linecap="round" stroke-linejoin="round"/>
<path d="M46.5111 206.911C52.5236 213.682 56.6854 214.527 58.7154 212.784C60.8569 210.93 63.0758 210.43 65.3384 212.386C67.9692 214.653 71.6368 210.056 73.7007 206.911" stroke="#DEDEDE" stroke-width="0.75" stroke-linecap="round" stroke-linejoin="round"/>
<path d="M69.9556 217.866C72.378 215.618 76.7384 212.842 83.4583 212.386C91.4524 211.847 101.617 215.555 107.063 217.866" stroke="#DEDEDE" stroke-width="0.75" stroke-linecap="round" stroke-linejoin="round"/>
<path d="M96.5394 206.911C105.919 211.838 116.171 214.726 124.451 212.386C132.537 210.11 151.839 212.939 158.85 206.911" stroke="#DEDEDE" stroke-width="0.75" stroke-linecap="round" stroke-linejoin="round"/>
<path d="M132.116 217.866C138.123 214.434 147.484 212.342 154.78 217.866" stroke="#DEDEDE" stroke-width="0.75" stroke-linecap="round" stroke-linejoin="round"/>
<path d="M165.109 217.866C176.253 209.163 198.573 207.576 217.192 212.333C239.222 217.963 249.11 211.469 253.117 206.911" stroke="#DEDEDE" stroke-width="0.75" stroke-linecap="round" stroke-linejoin="round"/>
<path d="M185.182 217.865C193.268 214.22 204.159 213.473 215.632 217.865" stroke="#DEDEDE" stroke-width="0.75" stroke-linecap="round" stroke-linejoin="round"/>
<path d="M255.685 217.866C269.222 211.556 280.06 212.279 290.084 217.866" stroke="#DEDEDE" stroke-width="0.75" stroke-linecap="round" stroke-linejoin="round"/>
<path d="M274.779 206.911C297.089 214.415 315.553 220.23 327.714 210.042" stroke="#DEDEDE" stroke-width="0.75" stroke-linecap="round" stroke-linejoin="round"/>
<path d="M292.579 206.911C303.902 213.57 317.128 213.07 325.263 207.513" stroke="#DEDEDE" stroke-width="0.75" stroke-linecap="round" stroke-linejoin="round"/>
<path d="M109.599 83.8675C109.486 83.8675 109.368 83.8707 109.241 83.8775C107.689 80.1472 104.147 77.7279 100.113 77.6456C99.3748 72.7089 95.1234 69.0215 90.1064 69.0215C85.8496 69.0215 82.0677 71.678 80.6068 75.6611C80.514 75.6455 80.4209 75.6335 80.3279 75.6201C80.2625 75.6106 80.1974 75.5996 80.1318 75.5912C80.0597 75.5821 79.9875 75.5758 79.9152 75.5679C79.8215 75.5576 79.728 75.5463 79.634 75.5383C79.5656 75.5325 79.4972 75.5296 79.4288 75.525C79.3329 75.5186 79.2372 75.5109 79.1411 75.5068C78.9762 75.4998 78.8115 75.4962 78.6473 75.4962C72.1476 75.4962 66.8596 80.7937 66.8596 87.3054C66.8596 93.8168 72.1475 99.1144 78.6473 99.1144H109.599C113.795 99.1144 117.209 95.6945 117.209 91.4909C117.209 87.2875 113.795 83.8675 109.599 83.8675ZM109.599 98.4562H78.6473C72.5099 98.4562 67.5167 93.4539 67.5167 87.3055C67.5167 81.1568 72.5099 76.1545 78.6473 76.1545C78.8156 76.1545 78.9845 76.159 79.1536 76.1668C79.1997 76.1689 79.2456 76.173 79.2916 76.1757C79.4148 76.1829 79.5381 76.1911 79.6613 76.2025C79.718 76.2077 79.7744 76.2146 79.8309 76.2207C79.9408 76.2326 80.0508 76.2452 80.1605 76.2604C80.2298 76.2699 80.299 76.2808 80.368 76.2917C80.4594 76.306 80.5506 76.3213 80.6416 76.3378C82.4641 76.6715 84.1914 77.4558 85.6408 78.63C85.7016 78.6792 85.7747 78.7031 85.8473 78.7031C85.9431 78.7031 86.038 78.6614 86.103 78.581C86.217 78.4396 86.195 78.2324 86.0541 78.118C84.654 76.984 83.0091 76.1938 81.2664 75.795C82.658 72.1243 86.1607 69.6798 90.1064 69.6798C94.8892 69.6798 98.9276 73.2628 99.5 78.0138C99.5202 78.1793 99.6601 78.3036 99.8263 78.3036H99.8285L99.9004 78.3017C103.829 78.3017 107.291 80.6723 108.719 84.341C108.772 84.476 108.902 84.5602 109.051 84.5496C109.255 84.5336 109.435 84.5259 109.599 84.5259C113.433 84.5259 116.552 87.6504 116.552 91.4911C116.552 95.3317 113.433 98.4562 109.599 98.4562Z" fill="#C3C3C3"/>
<path d="M95.7666 83.0105C95.6383 82.8819 95.4304 82.8819 95.3021 83.0105C95.1737 83.139 95.1737 83.3473 95.3021 83.4759L99.9616 88.1439L95.3021 92.8119C95.1737 92.9404 95.1737 93.1487 95.3021 93.2773C95.3663 93.3416 95.4503 93.3737 95.5343 93.3737C95.6184 93.3737 95.7025 93.3416 95.7666 93.2773L100.658 88.3765C100.787 88.2479 100.787 88.0397 100.658 87.9111L95.7666 83.0105Z" fill="#C3C3C3"/>
<path d="M87.4522 83.0105C87.3239 82.8819 87.116 82.8819 86.9877 83.0105L82.0957 87.9112C82.0341 87.973 81.9994 88.0565 81.9994 88.1439C81.9994 88.2313 82.0341 88.3149 82.0957 88.3766L86.9877 93.2774C87.0519 93.3417 87.1359 93.3738 87.2199 93.3738C87.304 93.3738 87.3881 93.3417 87.4522 93.2774C87.5806 93.1488 87.5806 92.9406 87.4522 92.812L82.7925 88.144L87.4522 83.476C87.5806 83.3474 87.5806 83.139 87.4522 83.0105Z" fill="#C3C3C3"/>
<path d="M93.7534 81.5264C93.5814 81.4647 93.3944 81.5537 93.3328 81.7247L88.8032 94.3403C88.7417 94.5116 88.8303 94.6999 89.0011 94.7616C89.0379 94.7748 89.0754 94.7809 89.1123 94.7809C89.2469 94.7809 89.3733 94.6973 89.4214 94.5633L93.9513 81.9475C94.0127 81.7765 93.9241 81.588 93.7534 81.5264Z" fill="#C3C3C3"/>
<path d="M120.377 146.986C120.488 143.268 122.983 140.38 124.088 138.992C125.193 137.604 123.405 136.541 124.088 133.497C125.144 128.838 130.629 131.459 130.629 123.955C130.629 121.625 131.181 121.125 131.181 121.125C131.181 121.125 127.082 112.088 134.505 109.088C134.505 109.088 135.168 105.254 141.927 103.531C148.686 101.808 154.78 108.802 150.406 118.902L150.071 126.896C150.705 127.017 151.282 127.343 151.713 127.825C152.144 128.306 152.405 128.916 152.455 129.561C152.939 132.959 157.271 130.838 157.494 139.603L120.377 146.986Z" fill="#7F542D"/>
<path d="M136.094 135.098C132.736 136.142 130.1 135.953 130.1 132.948C130.1 130.123 133.584 128.619 133.007 124.032C132.431 119.445 133.322 117.266 134.863 115.295C136.404 113.325 138.627 106.559 144.102 107.758C149.577 108.956 150.401 118.921 150.401 118.921L147.494 128.167C147.494 128.167 151.035 133.094 149.994 134.885C148.952 136.676 136.094 135.098 136.094 135.098Z" fill="#704725"/>
<path d="M149.223 128.566C149.223 128.566 151.995 128.61 151.287 132.178C151.035 133.397 151.2 134.666 151.755 135.779C152.311 136.893 153.225 137.787 154.349 138.317" stroke="#A56F42" stroke-width="0.75" stroke-linecap="round" stroke-linejoin="round"/>
<path d="M134.505 111.646C131.428 115.257 132.62 118.863 132.62 118.863" stroke="#A56F42" stroke-width="0.75" stroke-linecap="round" stroke-linejoin="round"/>
<path d="M131.52 130.755C128.182 132.468 126.234 135.817 128.313 139.069C128.738 139.703 129.018 140.424 129.134 141.179C129.249 141.934 129.197 142.705 128.981 143.438" stroke="#A56F42" stroke-width="0.75" stroke-linecap="round" stroke-linejoin="round"/>
<path d="M134.505 109.089C134.505 109.089 136.976 109.807 137.688 111.341" stroke="#A56F42" stroke-width="0.75" stroke-linecap="round" stroke-linejoin="round"/>
<path d="M139.446 108.865C139.446 108.865 144.974 103.769 148.937 108.38" stroke="#A56F42" stroke-width="0.75" stroke-linecap="round" stroke-linejoin="round"/>
<path d="M151.941 125.125C152.062 131.546 147.668 133.172 145.551 133.298C140.706 133.473 136.205 127.959 134.703 125.887C134.65 125.455 134.592 125.013 134.519 124.566C131.636 125.183 130.454 123.834 130.129 121.795C129.805 119.756 132.285 117.393 135.502 120.004C138.516 117.922 138.937 115.029 138.308 112.461C139.019 111.436 140.039 110.666 141.218 110.264C142.398 109.861 143.675 109.847 144.863 110.224C148.23 111.195 150.58 115.825 151.505 120.849C151.717 121.995 151.854 123.154 151.917 124.319C151.927 124.591 151.936 124.858 151.941 125.125Z" fill="#FEBD9D"/>
<path d="M146.845 113.796C146.946 114.65 149.146 114.767 150.134 114.282C151.123 113.796 146.554 111.36 146.845 113.796Z" fill="#7F542D"/>
<path d="M140.018 115.626C139.848 116.383 142.009 115.388 142.799 115.335C143.589 115.281 144 114.932 143.603 113.961C143.206 112.99 140.396 113.995 140.018 115.626Z" fill="#7F542D"/>
<path d="M144.34 120.019C144.698 120.019 144.989 119.727 144.989 119.368C144.989 119.009 144.698 118.718 144.34 118.718C143.981 118.718 143.691 119.009 143.691 119.368C143.691 119.727 143.981 120.019 144.34 120.019Z" fill="#683F1D"/>
<path d="M148.937 118.378C149.296 118.378 149.587 118.087 149.587 117.728C149.587 117.368 149.296 117.077 148.937 117.077C148.579 117.077 148.288 117.368 148.288 117.728C148.288 118.087 148.579 118.378 148.937 118.378Z" fill="#683F1D"/>
<path d="M146.971 117.384C146.927 119.325 147.862 119.995 148.085 120.213C148.618 120.733 149.844 120.213 149.286 122.106" stroke="#EF8A66" stroke-width="0.75" stroke-linecap="round" stroke-linejoin="round"/>
<path d="M144.727 125.459C145.565 124.619 148.753 124.794 149.087 125.129C149.422 125.464 148.84 126.905 147.455 126.886C146.069 126.867 144.335 125.852 144.727 125.459Z" fill="#FCFCFC" stroke="#EF8A66" stroke-width="0.75" stroke-linecap="round" stroke-linejoin="round"/>
<path d="M131.942 122.009C132.678 120.932 134.199 121.291 134.815 121.83C132.843 121.5 132.663 123.703 134.873 123.116" stroke="#EF8A66" stroke-width="0.75" stroke-linecap="round" stroke-linejoin="round"/>
<path d="M144.935 123.994C144.63 124.911 142.997 125.183 141.268 124.605C139.538 124.028 138.409 122.814 138.719 121.897C139.03 120.979 140.657 120.708 142.387 121.29C144.117 121.873 145.246 123.096 144.935 123.994Z" fill="#F4AF90"/>
<path d="M151.912 124.319C151.103 124.469 150.429 124.319 150.119 123.872C149.635 123.14 150.236 121.844 151.5 120.849C151.712 121.995 151.849 123.155 151.912 124.319Z" fill="#F4AF90"/>
<path d="M132.751 125.129C132.751 125.409 132.833 125.682 132.988 125.914C133.143 126.146 133.363 126.327 133.621 126.434C133.879 126.541 134.162 126.569 134.436 126.515C134.709 126.46 134.96 126.325 135.157 126.128C135.355 125.93 135.489 125.679 135.543 125.405C135.598 125.131 135.57 124.847 135.463 124.589C135.356 124.331 135.176 124.11 134.944 123.955C134.712 123.8 134.439 123.717 134.16 123.717C133.975 123.717 133.792 123.753 133.621 123.824C133.45 123.895 133.294 123.999 133.164 124.13C133.033 124.262 132.929 124.417 132.858 124.589C132.787 124.76 132.751 124.944 132.751 125.129Z" fill="#9940DC"/>
<path d="M189.697 145.142L182.803 154.082C182.803 154.082 173.598 191.237 168.942 194.368C167.475 195.337 165.794 195.932 164.045 196.101C162.296 196.27 160.533 196.009 158.908 195.339C158.908 195.314 158.908 195.295 158.908 195.271C158.908 195.246 154.795 191.8 155.58 186.694C155.652 186.209 164.867 170.269 168.816 163.241C171.97 157.582 175.807 151.107 175.807 151.107L189.697 145.142Z" fill="#FEBD9D"/>
<path d="M175.827 151.112C175.827 151.112 176.365 142.72 176.554 141.773C176.742 140.827 182.401 135.376 183.206 134.944C184.01 134.512 189.019 135.997 189.431 136.458C189.843 136.92 189.378 137.997 188.031 137.915C186.684 137.832 187.842 141.099 187.842 141.099C187.842 141.099 190.018 143.409 189.698 145.142C189.698 145.142 181.243 153.675 181.132 153.645C181.021 153.616 175.827 151.112 175.827 151.112Z" fill="#FEBD9D"/>
<path d="M175.827 151.112C175.827 151.112 176.365 142.72 176.554 141.773C176.742 140.827 182.401 135.376 183.206 134.944C184.01 134.512 189.019 135.997 189.431 136.458C189.843 136.92 189.378 137.997 188.031 137.915C186.684 137.832 187.842 141.099 187.842 141.099C187.842 141.099 190.018 143.409 189.698 145.142C189.698 145.142 181.243 153.675 181.132 153.645C181.021 153.616 175.827 151.112 175.827 151.112Z" fill="#FEBD9D"/>
<path d="M176.553 141.773C176.742 140.802 182.401 135.376 183.206 134.944C184.01 134.512 189.019 135.997 189.431 136.458C189.843 136.92 189.378 137.997 188.031 137.915" stroke="#EF8A66" stroke-width="0.75" stroke-linecap="round" stroke-linejoin="round"/>
<path d="M184.635 138.317C184.717 138.133 187.866 137.079 188.404 137.269C188.942 137.458 191.529 141.773 191.611 142.637C191.694 143.501 190.468 147.292 189.349 146.957C188.229 146.622 189.392 143.404 189.392 143.404L184.635 138.317Z" fill="#FEBD9D" stroke="#EF8A66" stroke-width="0.75" stroke-linecap="round" stroke-linejoin="round"/>
<path d="M186.815 145.792C187.731 146.399 188.792 145.006 189.393 143.404L187.358 141.749C187.358 141.749 185.468 144.904 186.815 145.792Z" fill="#FEBD9D" stroke="#EF8A66" stroke-width="0.75" stroke-linecap="round" stroke-linejoin="round"/>
<path d="M189.882 142.181L190.541 143.846C190.56 143.894 190.567 143.947 190.559 143.998C190.551 144.05 190.529 144.098 190.495 144.138C190.462 144.178 190.418 144.208 190.369 144.225C190.32 144.242 190.267 144.245 190.216 144.234L188.467 143.865L173.932 131.576C173.822 131.483 173.731 131.369 173.665 131.241C173.599 131.113 173.558 130.973 173.546 130.829C173.534 130.685 173.55 130.54 173.594 130.403C173.638 130.265 173.708 130.138 173.802 130.028C173.99 129.806 174.258 129.667 174.547 129.643C174.837 129.618 175.124 129.709 175.347 129.896L189.882 142.181Z" fill="#683F1D"/>
<path d="M180.463 141.438C182.101 139.07 183.898 137.206 184.77 136.992C186.088 136.672 186.388 138.24 183.288 142.773C183.795 144.064 183.876 145.484 183.517 146.825C183.159 148.165 182.38 149.355 181.296 150.219" fill="#FEBD9D"/>
<path d="M180.463 141.438C182.101 139.07 183.898 137.206 184.77 136.992C186.088 136.672 186.388 138.24 183.288 142.773C183.795 144.064 183.876 145.484 183.517 146.825C183.159 148.165 182.38 149.355 181.296 150.219" stroke="#EF8A66" stroke-width="0.75" stroke-linecap="round" stroke-linejoin="round"/>
<path d="M167.179 169.206C167.077 169.691 166.34 171.041 166.21 171.511C164.063 180.666 160.468 189.519 158.908 195.256C158.467 196.92 158.112 198.607 157.847 200.308C157.062 205.104 156.815 209.623 156.815 209.623L121.409 208.958L117.121 208.88L117.286 190.737L117.325 186.922C117.325 186.922 107.204 186.223 107.126 186.437C107.049 186.65 107.611 180.894 107.611 180.894C104.292 177.084 104.088 171.497 104.907 168.133C105.459 165.881 107.712 159.814 110.023 154.756C110.947 152.624 112.03 150.565 113.265 148.597C116.171 144.287 117.974 143.962 121.787 143.176C125.6 142.389 132.072 138.977 132.072 138.977L144.379 137.604C144.379 137.604 150.813 138.05 156.544 137.807C161.995 137.574 165.057 138.807 167.45 143.836C167.581 144.098 167.702 144.374 167.828 144.661C169.596 148.791 171.185 154.689 171.956 157.737C169.514 163.648 167.179 169.206 167.179 169.206Z" fill="#FCCF5C"/>
<path d="M167.455 143.836C162.43 143.287 159.291 147.466 155.604 155.378C151.2 164.799 141.593 166.1 132.392 158.712C124.291 152.199 118.342 150.665 110.047 154.761C110.971 152.629 112.054 150.57 113.289 148.602C116.196 144.292 117.998 143.967 121.811 143.18C125.624 142.394 132.097 138.982 132.097 138.982L144.378 137.604C144.378 137.604 150.812 138.05 156.544 137.807C161.999 137.574 165.061 138.807 167.455 143.836Z" fill="#FFE05C"/>
<path d="M122.441 184.345L125.73 163.304C126.646 164.711 129.17 166.667 128.356 170.643C126.283 180.68 133.201 172.73 135.9 177.559C137.019 179.568 127.562 182.854 122.441 184.345Z" fill="#FCCF5C"/>
<path d="M134.442 137.536C133.473 137.119 132.097 138.483 132.097 138.992C132.097 139.502 133.492 143.846 135.353 145.875C137.213 147.904 140.614 148.35 141.903 143.584C145.338 147.166 148.686 145.817 148.235 141.453C147.785 137.09 144.674 136.245 144.674 136.245L134.442 137.536Z" fill="#FCCF5C"/>
<path d="M122.145 186.233L122.441 184.345L125.731 163.304L126.762 156.732" stroke="#FCCF5C" stroke-width="0.75" stroke-linecap="round" stroke-linejoin="round"/>
<path d="M107.635 180.902C112.665 179.292 117.977 178.758 123.226 179.335" stroke="#FCCF5C" stroke-width="0.75" stroke-linecap="round" stroke-linejoin="round"/>
<path d="M143.787 150.597C144.515 150.597 145.105 150.006 145.105 149.277C145.105 148.548 144.515 147.957 143.787 147.957C143.06 147.957 142.47 148.548 142.47 149.277C142.47 150.006 143.06 150.597 143.787 150.597Z" fill="#FCCF5C"/>
<path d="M145.11 156.136C145.838 156.136 146.428 155.544 146.428 154.815C146.428 154.086 145.838 153.495 145.11 153.495C144.382 153.495 143.792 154.086 143.792 154.815C143.792 155.544 144.382 156.136 145.11 156.136Z" fill="#FCCF5C"/>
<path d="M110.518 199.43H110.493C104.927 197.512 106.642 188.96 107.286 184.49L113.502 182.985L123.017 180.685C123.017 180.685 124.65 201.682 110.518 199.43Z" fill="#FEBD9D"/>
<path d="M145.551 133.289C145.551 133.41 145.474 135.619 145.411 137.206C145.386 137.905 145.357 138.487 145.348 138.706C145.309 139.438 143.758 142.496 140.503 141.681C137.247 140.865 134.519 138.055 134.442 137.521C134.364 136.987 135.847 132.799 135.057 126.358C137.891 123.038 146.2 125.13 145.551 133.289Z" fill="#FEBD9D"/>
<path d="M145.551 133.289C145.551 133.289 145.474 135.58 145.411 137.211C143.167 136.905 138.914 135.575 139.17 129.843C140.105 131.26 143.327 133.401 145.551 133.289Z" fill="#F4A789"/>
<path d="M172.701 166.435C172.665 166.433 172.629 166.423 172.597 166.405C172.565 166.388 172.538 166.363 172.517 166.333L161.718 150.966C161.696 150.939 161.681 150.908 161.675 150.874C161.668 150.84 161.669 150.805 161.679 150.772C161.686 150.739 161.701 150.709 161.721 150.682C161.741 150.655 161.766 150.633 161.795 150.617C162.476 150.18 163.256 149.924 164.063 149.874C165.817 149.874 167.595 151.51 170.206 155.524C175.051 162.96 173.486 165.717 172.895 166.357C172.872 166.381 172.844 166.401 172.813 166.414C172.782 166.427 172.749 166.435 172.716 166.435H172.701Z" fill="#F9F9F9"/>
<path d="M164.063 150.116C165.594 150.116 167.261 151.441 170.003 155.659C174.029 161.843 173.753 165.032 172.716 166.192L161.912 150.825C162.557 150.409 163.297 150.165 164.063 150.116ZM164.063 149.631C163.216 149.68 162.395 149.945 161.679 150.403C161.62 150.436 161.568 150.481 161.527 150.535C161.486 150.589 161.457 150.652 161.442 150.718C161.427 150.785 161.426 150.854 161.439 150.921C161.453 150.987 161.48 151.051 161.519 151.106L172.319 166.473C172.361 166.533 172.416 166.582 172.479 166.617C172.543 166.653 172.614 166.673 172.687 166.677H172.716C172.783 166.677 172.85 166.663 172.912 166.635C172.974 166.607 173.029 166.567 173.074 166.517C173.695 165.823 175.337 162.974 170.41 155.392C167.745 151.301 165.909 149.631 164.063 149.631Z" fill="#DEDEDE"/>
<path d="M177.139 169.26C177.093 169.258 177.048 169.245 177.009 169.221L172.585 166.401C172.553 166.38 172.527 166.352 172.508 166.319C172.488 166.286 172.477 166.25 172.474 166.212C172.472 166.175 172.477 166.138 172.491 166.104C172.504 166.069 172.525 166.038 172.551 166.013C173.031 165.579 173.654 165.34 174.3 165.343C174.793 165.361 175.276 165.481 175.72 165.696C176.163 165.91 176.558 166.215 176.878 166.59C178.103 167.954 177.362 169.138 177.362 169.148C177.338 169.185 177.305 169.214 177.266 169.234C177.227 169.254 177.183 169.263 177.139 169.26Z" fill="#F9F9F9"/>
<path d="M174.3 165.585C174.759 165.603 175.209 165.717 175.622 165.918C176.035 166.119 176.401 166.404 176.698 166.755C177.813 167.992 177.139 169.017 177.139 169.017L172.716 166.192C173.149 165.797 173.715 165.581 174.3 165.585ZM174.3 165.1C173.595 165.095 172.913 165.357 172.391 165.833C172.336 165.883 172.292 165.945 172.264 166.015C172.236 166.084 172.225 166.159 172.231 166.234C172.237 166.309 172.261 166.381 172.299 166.445C172.338 166.51 172.391 166.564 172.454 166.604L176.878 169.424C176.985 169.494 177.116 169.518 177.241 169.492C177.366 169.466 177.476 169.391 177.546 169.284C177.58 169.23 178.409 167.929 177.062 166.43C176.72 166.028 176.298 165.703 175.823 165.474C175.349 165.245 174.832 165.117 174.305 165.1H174.3Z" fill="#DEDEDE"/>
<path d="M138.487 163.732L162.92 149.277C162.92 149.277 171.045 157.81 172.716 166.192L146.801 179.671C146.801 179.671 143.923 170.396 138.487 163.732Z" fill="#F9F9F9" stroke="#DEDEDE" stroke-linecap="round" stroke-linejoin="round"/>
<path d="M148.012 179.035L154.267 180.904L177.14 169.017C175.925 167.719 174.404 166.747 172.716 166.192L148.012 179.035Z" fill="#DEDEDE" stroke="#DEDEDE" stroke-miterlimit="10"/>
<path d="M159.514 171.283C159.281 172.385 157.062 172.643 155.701 172.555C154.339 172.468 149.814 172.73 149.814 172.73C149.814 172.73 152.324 174.089 152.585 174.346C153.404 175.557 154.038 176.884 154.465 178.283C155.124 180.307 154.635 181.52 153.981 181.374C153.327 181.229 153.089 180.166 153.089 180.166C152.857 181.52 152.019 180.394 152.019 180.394C152.019 180.826 149.94 184.529 149.112 183.791C148.283 183.054 149.451 181.166 149.451 181.166H148.593C147.01 182.465 145.343 183.658 143.603 184.738C142.01 185.665 140.267 186.304 138.453 186.626C138.453 186.626 134.446 189.47 129.398 192.499C123.162 196.256 115.348 200.309 111.549 199.678C110.563 199.551 109.633 199.15 108.862 198.522C108.092 197.893 107.512 197.061 107.189 196.12C107.179 196.09 107.168 196.061 107.155 196.032C107.131 195.965 107.092 195.858 107.048 195.717C106.481 193.776 105.193 185.408 123.007 180.671L123.119 180.641L135.89 177.55C138.55 174.832 144.465 169.541 145.444 169.25C146.423 168.959 159.746 170.177 159.514 171.283Z" fill="#FEBD9D"/>
<path d="M149.431 181.151C149.431 181.151 148.254 183.025 149.092 183.777C149.93 184.529 151.999 180.826 151.999 180.379C151.999 180.379 152.837 181.505 153.07 180.146C153.07 180.146 153.298 181.219 153.961 181.365C154.625 181.51 155.119 180.292 154.446 178.268C154.021 176.87 153.387 175.544 152.566 174.337C152.309 174.074 149.795 172.715 149.795 172.715C149.795 172.715 154.325 172.453 155.686 172.541C157.047 172.628 159.266 172.371 159.494 171.269C159.722 170.167 146.389 168.954 145.41 169.245C144.926 169.391 143.191 170.784 141.258 172.482" stroke="#EF8A66" stroke-width="0.75" stroke-linecap="round" stroke-linejoin="round"/>
<path d="M149.814 172.73L147.547 171.832" stroke="#EF8A66" stroke-width="0.75" stroke-linecap="round" stroke-linejoin="round"/>
<path d="M148.138 174.852C148.138 174.852 151.762 176.414 152.014 176.944C152.266 177.473 153.007 179.079 153.08 180.162" stroke="#EF8A66" stroke-width="0.75" stroke-linecap="round" stroke-linejoin="round"/>
<path d="M148.545 177.506C148.545 177.506 151.238 179.171 151.558 179.491C151.779 179.751 151.933 180.061 152.009 180.394" stroke="#EF8A66" stroke-width="0.75" stroke-linecap="round" stroke-linejoin="round"/>
<path d="M258.272 173.978C258.445 178.836 258.304 183.7 257.851 188.539C257.105 196.742 256.567 203.654 257.609 208.925H312.952C312.952 208.925 315.093 201.159 312.153 185.399C309.212 169.639 305.2 161.659 303.916 158.927L258.272 173.978Z" fill="#FFE05C"/>
<path d="M303.848 159.013C302.584 160.644 297.482 166.337 285.006 170.555L284.425 170.749C281.459 171.732 278.445 172.563 275.394 173.239C263.364 175.889 257.613 174.21 257.613 174.21C257.453 170.385 255.806 166.755 254.517 164.464C254.049 163.625 253.531 162.815 252.967 162.037C252.703 164.248 252.238 166.43 251.577 168.555C250.351 172.487 247.798 175.763 247.928 175.894C241.47 185.708 229.721 170.264 232.565 156.203C232.565 156.203 235.831 142.841 238.379 132.619C238.738 131.163 239.106 129.925 239.489 128.838C241.834 122.193 244.711 121.475 249.028 119.489C251.397 118.465 257.047 117.519 257.047 117.519C257.414 116.689 257.942 115.94 258.601 115.317C259.26 114.694 260.036 114.208 260.884 113.888L260.743 112.917C261.543 112.816 262.381 112.704 263.243 112.578L264.74 112.354L264.915 112.325L265.637 112.214C266.513 112.073 267.41 111.918 268.301 111.753L269.139 111.597L269.769 111.471C272.958 110.892 276.088 110.023 279.12 108.874C279.512 108.714 279.905 108.569 280.288 108.442L280.636 108.326L280.898 108.248L281.329 108.127C281.475 108.083 281.62 108.049 281.765 108.015L281.988 107.962L282.473 107.865L282.637 107.831L283.122 107.753L283.335 107.724H283.417C283.582 107.698 283.744 107.679 283.902 107.666L284.42 107.627H284.566H285.137C289.696 107.627 293.553 110.093 295.932 115.068C296.829 117.007 297.471 119.054 297.841 121.159C300.064 133.017 298.562 145.136 298.562 145.136L303.974 158.042C304.041 158.201 304.064 158.374 304.042 158.545C304.02 158.715 303.953 158.877 303.848 159.013Z" fill="#5A0C94"/>
<path d="M295.922 115.034C286.678 114.005 278.054 121.092 274.164 128.625C269.125 138.381 256.974 139.157 252.768 134.692C249.939 131.683 245.244 127.698 239.493 128.814C241.838 122.169 244.716 121.451 249.033 119.466C251.359 118.461 256.838 117.524 257.046 117.5C257.414 116.67 257.942 115.922 258.601 115.298C259.259 114.675 260.036 114.189 260.884 113.87L260.743 112.899C261.543 112.797 262.381 112.685 263.243 112.559L264.74 112.336L264.915 112.307L265.637 112.195C266.513 112.054 267.41 111.899 268.301 111.734L269.139 111.579L269.769 111.452C272.519 110.935 275.229 110.225 277.88 109.327C278.311 109.176 278.723 109.016 279.12 108.841C279.517 108.666 279.905 108.535 280.287 108.409L280.636 108.293L280.898 108.215L281.329 108.094C281.474 108.05 281.62 108.016 281.765 107.982L281.988 107.929L282.473 107.832L282.637 107.798L283.122 107.72L283.335 107.691H283.417C283.582 107.665 283.744 107.646 283.902 107.633L284.42 107.594H284.566H285.137C289.687 107.594 293.543 110.059 295.922 115.034Z" fill="#5A0C94"/>
<path d="M252.967 162.008C252.909 162.494 252.846 162.979 252.769 163.416C252.531 163.149 245.177 154.791 235.952 154.116C237.677 153.078 240.109 151.903 241.8 152.306C244.707 152.995 241.315 139.201 247.425 135.4C246.669 138.546 245.39 143.54 245.676 147.908C246.121 154.475 250.094 158.358 252.967 162.008Z" fill="#5A0C94"/>
<path d="M285.365 167.94C285.315 168.812 285.195 169.679 285.006 170.531L284.425 170.726C281.459 171.708 278.444 172.539 275.394 173.216L275.031 172.905C268.65 167.309 275.031 163.411 273.412 154.082C271.586 143.559 274.551 137.657 276.707 134.905C276.094 140.231 275.771 145.586 275.738 150.947C275.835 159.009 276.441 161.931 277.676 162.751C279.284 163.673 281.852 164.377 284.774 164.692L285.365 167.94Z" fill="#5A0C94"/>
<path d="M278.03 112.36C277.904 116.495 276.355 120.46 273.645 123.581C272.516 121.868 270.414 119.538 268.999 119.669C265.123 120.024 264.508 126.542 264.508 126.542C264.508 126.542 263.054 119.747 261.281 120.339C258.771 121.169 256.514 126.77 256.514 126.77C255.81 123.686 255.994 120.464 257.047 117.48C257.414 116.65 257.942 115.902 258.601 115.278C259.26 114.655 260.036 114.169 260.884 113.85L260.743 112.879C261.543 112.777 262.381 112.665 263.243 112.539L264.74 112.316L264.915 112.287L265.637 112.175C266.514 112.034 267.41 111.879 268.301 111.714L269.139 111.559L269.769 111.433C272.519 110.915 275.229 110.205 277.88 109.307C277.995 110.32 278.045 111.34 278.03 112.36Z" fill="#431B61"/>
<path d="M295.903 163.989C294.017 170.8 291.605 177.453 288.689 183.889C283.756 194.863 273.829 213.089 273.829 213.089L264.575 211.793C264.575 211.793 269.575 197.644 271.358 188.626C272.279 183.957 273.737 177.987 275.026 172.895C276.232 168.153 277.293 164.158 277.647 162.741C279.255 163.663 281.823 164.367 284.745 164.683C288.475 165.15 292.259 164.914 295.903 163.989Z" fill="#B25E47"/>
<path d="M295.903 163.989C297.356 162.455 298.553 145.104 298.553 145.104" stroke="#5A0C94" stroke-width="0.75" stroke-linecap="round" stroke-linejoin="round"/>
<path d="M278.65 122.125C278.65 122.125 278.166 125.945 277.652 128.114C277.434 128.993 277.066 131.585 276.683 134.91C276.07 140.235 275.747 145.59 275.714 150.951C275.811 159.013 276.417 161.935 277.652 162.755" stroke="#5A0C94" stroke-width="0.75" stroke-linecap="round" stroke-linejoin="round"/>
<path d="M275.917 156.319C280.566 158.568 285.81 159.267 290.883 158.314" stroke="#5A0C94" stroke-width="0.75" stroke-linecap="round" stroke-linejoin="round"/>
<path d="M291.281 164.804C291.407 161.465 292.531 155.097 294.357 152.772C296.382 150.195 297.942 152.248 297.942 152.248" stroke="#5A0C94" stroke-width="0.75" stroke-linecap="round" stroke-linejoin="round"/>
<path d="M294.43 156.145C294.429 156.356 294.49 156.562 294.606 156.737C294.723 156.913 294.888 157.05 295.082 157.131C295.277 157.212 295.49 157.234 295.697 157.193C295.903 157.152 296.092 157.05 296.241 156.901C296.39 156.753 296.491 156.563 296.532 156.356C296.572 156.149 296.551 155.935 296.47 155.741C296.389 155.546 296.252 155.38 296.077 155.264C295.902 155.148 295.696 155.086 295.486 155.087C295.206 155.088 294.938 155.2 294.74 155.398C294.543 155.596 294.431 155.865 294.43 156.145Z" fill="#5A0C94"/>
<path d="M264.58 122.917C264.89 125.125 264.774 125.781 263.936 128.703C263.098 131.625 261 141.012 262.536 147.681C264.173 154.801 268.107 163.212 267.986 165.639C267.865 168.066 267.061 172.774 271.538 173.963" stroke="#5A0C94" stroke-width="0.75" stroke-linecap="round" stroke-linejoin="round"/>
<path d="M252.768 163.421C252.531 163.154 245.176 154.796 235.952 154.121C235.743 154.121 235.54 154.092 235.336 154.087" stroke="#5A0C94" stroke-width="0.75" stroke-linecap="round" stroke-linejoin="round"/>
<path d="M247.764 130.493C247.872 131.202 247.937 131.917 247.958 132.634C247.864 133.57 247.685 134.496 247.425 135.4C246.669 138.545 245.39 143.54 245.676 147.908C246.107 154.475 250.094 158.358 252.943 162.008" stroke="#5A0C94" stroke-width="0.75" stroke-linecap="round" stroke-linejoin="round"/>
<path d="M205.966 144.643C203.568 144.759 202.745 144.405 200.739 143.225C198.733 142.046 195.986 138.372 195.434 132.673L201.921 129.324C201.921 129.324 211.034 140.828 205.966 144.643Z" fill="#B25E47"/>
<path d="M193.118 133.605C193.602 136.828 194.256 138.211 195.012 138.128C195.768 138.046 196.427 136.187 195.434 132.673L193.118 133.605Z" fill="#B25E47" stroke="#934735" stroke-miterlimit="10"/>
<path d="M195.574 132.892C196.059 136.115 196.708 137.498 197.464 137.416C198.219 137.333 198.878 135.474 197.89 131.96L195.574 132.892Z" fill="#B25E47" stroke="#934735" stroke-miterlimit="10"/>
<path d="M170.565 96.4891L198.389 85.2285L216.136 123.592L190.962 136.236L170.565 96.4891Z" fill="#EDEDED" stroke="#EDEDED" stroke-width="2" stroke-linecap="round" stroke-linejoin="round"/>
<path d="M174.194 96.4891L202.023 85.2285L216.136 123.592L192.905 132.95L174.194 96.4891Z" fill="#F9F9F9" stroke="#DEDEDE" stroke-width="2" stroke-linecap="round" stroke-linejoin="round"/>
<path d="M202.439 132.178C198.912 129.164 196.625 124.067 197.982 123.392C199.019 122.878 201.611 125.785 203.893 126.877C205.822 127.853 207.425 129.371 208.505 131.246C209.024 132.338 211.514 136.959 212.652 137.687C213.791 138.415 229.76 149.738 232.56 151.452C235.36 153.165 248.325 161.528 249.033 170.464C249.74 179.399 239.919 182.312 233.965 178.099C229.454 174.919 207.158 146.2 205.966 144.642C205.966 144.642 207.551 141.065 204.431 138.983C202.594 137.755 201.868 135.231 202.439 132.178Z" fill="#B25E47"/>
<path d="M204.455 138.984C202.619 137.756 201.892 135.241 202.464 132.188C198.936 129.174 196.65 124.078 198.006 123.403C199.043 122.889 201.635 125.796 203.917 126.888C205.846 127.863 207.449 129.382 208.529 131.257C208.81 131.844 209.658 133.45 210.559 134.926" stroke="#934735" stroke-width="0.75" stroke-linecap="round" stroke-linejoin="round"/>
<path d="M260.888 113.875C260.99 114.308 260.99 114.758 260.888 115.191C260.888 115.191 260.476 115.783 261.586 117.448C262.445 118.685 263.601 119.687 264.948 120.36C265.278 120.433 272.109 116.622 273.184 111.963C273.184 111.963 270.195 103.382 272.448 101.828C274.701 100.275 277.986 89.1019 268.054 91.9899C268.054 91.9899 266.164 83.0008 259.982 83.627C253.8 84.2531 251.542 90.2086 250.481 96.1252C249.42 102.042 252.216 111.919 256.872 111.511L260.888 113.875Z" fill="#B25E47"/>
<path d="M253.829 97.6197C253.345 98.5905 251.959 98.8477 250.758 98.2216C249.556 97.5955 248.98 96.3141 249.474 95.3579C249.968 94.4017 251.349 94.1299 252.55 94.7561C253.752 95.3822 254.328 96.6636 253.829 97.6197Z" fill="#A0503D"/>
<path d="M260.273 109.73C261.428 109.419 262.449 108.737 263.18 107.788C263.18 107.788 265.258 111.404 260.104 112.967C260.118 112.967 258.95 109.992 260.273 109.73Z" fill="#914839"/>
<path d="M284.745 105.973C284.628 106.857 281.402 107.837 282.283 109.201C283.252 110.696 282.143 112.667 279.531 111.337C277.279 110.196 276.314 110.609 275.462 112.366C274.609 114.123 272.831 112.4 271.164 112.487C269.498 112.575 267.661 112.104 267.773 110.254C267.884 108.405 270.825 107.828 269.624 106.09C268.422 104.352 267.686 102.891 269.74 99.9937C269.74 99.9937 273.432 99.023 273.374 95.8293C273.315 92.6355 269.449 92.5142 268.131 94.7711C268.131 94.7711 265.762 92.5142 265.176 90.1941C264.692 88.2526 264.096 86.4859 263.345 85.6656C263.216 85.5179 263.062 85.3946 262.889 85.3016C262.889 85.3016 257.594 82.9281 255.05 87.8837C252.507 92.8394 251.174 101.901 252.855 105.59C253.477 106.995 254.539 108.159 255.88 108.906C257.221 109.653 258.768 109.942 260.287 109.73L260.549 111.502L260.903 113.861C260.055 114.18 259.279 114.666 258.62 115.289C257.961 115.913 257.433 116.661 257.066 117.491C257.066 117.491 251.402 118.438 249.028 119.462C249.028 119.462 248.354 117.355 246.334 116.739C244.314 116.123 241.77 115.477 241.538 112.604C241.305 109.73 237.119 110.478 236.184 107.565C235.249 104.653 237.235 102.76 238.524 101.935C239.813 101.11 241.247 99.4453 240.283 97.5086C239.319 95.572 240.254 93.7567 242.419 92.32C244.585 90.8833 244.251 89.3107 244.309 87.6799C244.377 85.6365 245.762 85.054 247.129 84.0202C248.621 82.9038 246.518 79.5888 250.762 79.0063C253.107 78.6811 253.437 78.1569 255.181 76.7154C256.499 75.633 258.694 77.4823 260.995 76.2785C263.296 75.0748 264.507 74.5798 266.62 76.8367C268.732 79.0937 271.818 77.9676 272.196 81.1614C272.564 84.2338 271.116 84.8696 271.009 84.957C271.126 84.957 275.205 84.9861 276.159 88.6846C277.114 92.3831 275.428 93.1112 277.768 95.4798C280.108 97.8484 281.13 99.0181 280.035 100.901C279.42 101.955 279.672 103.396 281.925 103.814C284.178 104.231 284.88 105.095 284.745 105.973Z" fill="#604730"/>
<path d="M255.035 87.8837C252.487 92.8393 251.16 101.901 252.841 105.59C253.463 106.995 254.524 108.159 255.865 108.906C257.206 109.653 258.753 109.942 260.273 109.73L260.534 111.502C258.81 115.011 254.192 115.962 251.397 115.234C247.705 114.264 250.428 112.118 246.838 110.725C242.589 109.08 246.693 105.148 245.932 104.333C245.171 103.517 243.955 102.154 245.273 100.28C246.591 98.4065 249.633 98.2997 249.372 96.0185C249.11 93.7373 249.677 92.9752 251.247 92.0627C254.154 90.3785 253.669 87.6507 253.117 86.0781C252.565 84.5055 253.873 80.8701 257.773 80.5012C261.033 80.2051 262.618 82.0738 263.33 85.6656C263.201 85.5178 263.047 85.3945 262.875 85.3015C262.875 85.3015 257.579 82.9281 255.035 87.8837Z" fill="#473526"/>
<path d="M263.33 85.6656C262.632 82.0738 261.033 80.2051 257.773 80.5012C253.897 80.8604 252.565 84.5104 253.117 86.0781C253.669 87.6459 254.144 90.3785 251.247 92.0627C249.677 92.9752 249.12 93.7373 249.372 96.0185C249.624 98.2997 246.659 98.4453 245.273 100.28C244.345 101.438 243.753 102.831 243.563 104.304" stroke="#896442" stroke-width="0.75" stroke-linecap="round" stroke-linejoin="round"/>
<path d="M252.124 102.227C250.758 102.712 249.701 103.887 249.895 105.037C250.128 106.464 249.692 106.906 248.815 107.168C247.938 107.43 247.066 107.342 246.625 108.891C246.496 109.418 246.41 109.956 246.368 110.497C246.281 111.274 246.16 111.89 245.399 112.342" stroke="#896442" stroke-width="0.75" stroke-linecap="round" stroke-linejoin="round"/>
<path d="M265.912 85.5489C267.142 85.2004 268.406 84.9857 269.682 84.9082" stroke="#896442" stroke-width="0.75" stroke-linecap="round" stroke-linejoin="round"/>
<path d="M249.871 112.968C250.418 111.318 252.322 112.376 252.448 110.594C252.485 109.97 252.754 109.382 253.203 108.947C253.651 108.511 254.247 108.261 254.871 108.245" stroke="#896442" stroke-width="0.75" stroke-linecap="round" stroke-linejoin="round"/>
<path d="M269.246 97.1881C269.788 95.5621 271.412 95.2126 271.814 95.4553" stroke="#934735" stroke-width="0.75" stroke-linecap="round" stroke-linejoin="round"/>
<path d="M269.546 96.5627C271.121 96.0773 271.455 98.3343 269.851 98.1838" stroke="#934735" stroke-width="0.75" stroke-linecap="round" stroke-linejoin="round"/>
<path d="M258.984 89.0385C258.771 89.7763 259.876 90.0821 260.583 89.9122C261.29 89.7423 261.654 90.2908 261.969 89.9899C262.284 89.6889 261.533 88.7085 260.68 88.393C260.526 88.3227 260.361 88.2836 260.192 88.278C260.023 88.2725 259.855 88.3005 259.697 88.3606C259.54 88.4206 259.395 88.5115 259.273 88.6279C259.15 88.7443 259.052 88.8838 258.984 89.0385Z" fill="#604730"/>
<path d="M256.988 89.2813C257.269 89.8832 256.368 90.2909 255.738 90.2521C255.109 90.2133 254.876 90.7375 254.571 90.5045C254.266 90.2715 254.765 89.3541 255.453 88.9707C255.573 88.889 255.709 88.8322 255.852 88.8036C255.995 88.775 256.142 88.7751 256.285 88.804C256.428 88.8329 256.564 88.89 256.685 88.972C256.805 89.0539 256.909 89.1591 256.988 89.2813Z" fill="#604730"/>
<path d="M259.323 94.6309C259.682 94.6309 259.973 94.3397 259.973 93.9805C259.973 93.6213 259.682 93.3301 259.323 93.3301C258.965 93.3301 258.674 93.6213 258.674 93.9805C258.674 94.3397 258.965 94.6309 259.323 94.6309Z" fill="#683F1D"/>
<path d="M254.876 94.2813C255.234 94.2813 255.525 93.9901 255.525 93.6309C255.525 93.2717 255.234 92.9805 254.876 92.9805C254.517 92.9805 254.227 93.2717 254.227 93.6309C254.227 93.9901 254.517 94.2813 254.876 94.2813Z" fill="#683F1D"/>
<path d="M256.101 98.3913C255.133 97.804 254.164 96.4887 255.452 96.0907C256.741 95.6926 257.153 95.1199 257.192 91.8291" stroke="#934735" stroke-width="0.75" stroke-linecap="round" stroke-linejoin="round"/>
<path d="M258.005 101.842C259.459 101.405 259.459 98.959 259.459 98.959C258.287 99.6467 257.062 100.239 255.796 100.731C255.796 100.731 256.416 102.318 258.005 101.842Z" fill="#FCFCFC" stroke="#934735" stroke-width="0.75" stroke-linecap="round" stroke-linejoin="round"/>
<path d="M269.725 99.9941C269.164 100.028 268.601 100.028 268.039 99.9941" stroke="#934735" stroke-width="0.75" stroke-linecap="round" stroke-linejoin="round"/>
<path d="M260.254 97.7174C260.738 98.6881 262.124 98.9454 263.325 98.3193C264.527 97.6931 265.103 96.4118 264.609 95.4556C264.115 94.4994 262.734 94.2276 261.533 94.8537C260.331 95.4798 259.755 96.7612 260.254 97.7174Z" fill="#A0503D"/>
<rect x="214.5" y="19.5" width="113" height="39" rx="15.5" fill="#FCFCFC"/>
<rect x="214.5" y="19.5" width="113" height="39" rx="15.5" stroke="#C3C3C3"/>
<path d="M229.123 27.4336C230.229 27.4336 231.035 27.6504 231.543 28.084C232.055 28.5137 232.311 29.1309 232.311 29.9355C232.311 30.2988 232.25 30.6445 232.129 30.9727C232.012 31.2969 231.82 31.584 231.555 31.834C231.289 32.0801 230.939 32.2754 230.506 32.4199C230.076 32.5605 229.549 32.6309 228.924 32.6309H227.881V36H226.885V27.4336H229.123ZM229.029 28.2832H227.881V31.7754H228.812C229.359 31.7754 229.814 31.7168 230.178 31.5996C230.545 31.4824 230.82 31.293 231.004 31.0312C231.188 30.7656 231.279 30.4141 231.279 29.9766C231.279 29.4062 231.098 28.9824 230.734 28.7051C230.371 28.4238 229.803 28.2832 229.029 28.2832ZM236.875 29.4609C237.004 29.4609 237.139 29.4688 237.279 29.4844C237.42 29.4961 237.545 29.5137 237.654 29.5371L237.531 30.4395C237.426 30.4121 237.309 30.3906 237.18 30.375C237.051 30.3594 236.93 30.3516 236.816 30.3516C236.559 30.3516 236.314 30.4043 236.084 30.5098C235.857 30.6113 235.658 30.7598 235.486 30.9551C235.314 31.1465 235.18 31.3789 235.082 31.6523C234.984 31.9219 234.936 32.2227 234.936 32.5547V36H233.957V29.5781H234.766L234.871 30.7617H234.912C235.045 30.5234 235.205 30.3066 235.393 30.1113C235.58 29.9121 235.797 29.7539 236.043 29.6367C236.293 29.5195 236.57 29.4609 236.875 29.4609ZM244.404 32.7773C244.404 33.3047 244.336 33.7754 244.199 34.1895C244.062 34.6035 243.865 34.9531 243.607 35.2383C243.35 35.5234 243.037 35.7422 242.67 35.8945C242.307 36.043 241.895 36.1172 241.434 36.1172C241.004 36.1172 240.609 36.043 240.25 35.8945C239.895 35.7422 239.586 35.5234 239.324 35.2383C239.066 34.9531 238.865 34.6035 238.721 34.1895C238.58 33.7754 238.51 33.3047 238.51 32.7773C238.51 32.0742 238.629 31.4766 238.867 30.9844C239.105 30.4883 239.445 30.1113 239.887 29.8535C240.332 29.5918 240.861 29.4609 241.475 29.4609C242.061 29.4609 242.572 29.5918 243.01 29.8535C243.451 30.1152 243.793 30.4941 244.035 30.9902C244.281 31.4824 244.404 32.0781 244.404 32.7773ZM239.518 32.7773C239.518 33.293 239.586 33.7402 239.723 34.1191C239.859 34.498 240.07 34.791 240.355 34.998C240.641 35.2051 241.008 35.3086 241.457 35.3086C241.902 35.3086 242.268 35.2051 242.553 34.998C242.842 34.791 243.055 34.498 243.191 34.1191C243.328 33.7402 243.396 33.293 243.396 32.7773C243.396 32.2656 243.328 31.8242 243.191 31.4531C243.055 31.0781 242.844 30.7891 242.559 30.5859C242.273 30.3828 241.904 30.2812 241.451 30.2812C240.783 30.2812 240.293 30.502 239.98 30.9434C239.672 31.3848 239.518 31.9961 239.518 32.7773ZM248.371 36.1172C247.559 36.1172 246.914 35.8398 246.438 35.2852C245.965 34.7305 245.729 33.9062 245.729 32.8125C245.729 31.707 245.971 30.873 246.455 30.3105C246.939 29.7441 247.584 29.4609 248.389 29.4609C248.729 29.4609 249.025 29.5059 249.279 29.5957C249.533 29.6855 249.752 29.8066 249.936 29.959C250.119 30.1074 250.273 30.2773 250.398 30.4688H250.469C250.453 30.3477 250.438 30.1816 250.422 29.9707C250.406 29.7598 250.398 29.5879 250.398 29.4551V26.8828H251.371V36H250.586L250.439 35.0859H250.398C250.277 35.2773 250.123 35.4512 249.936 35.6074C249.752 35.7637 249.531 35.8887 249.273 35.9824C249.02 36.0723 248.719 36.1172 248.371 36.1172ZM248.523 35.3086C249.211 35.3086 249.697 35.1133 249.982 34.7227C250.268 34.332 250.41 33.752 250.41 32.9824V32.8066C250.41 31.9902 250.273 31.3633 250 30.9258C249.73 30.4883 249.238 30.2695 248.523 30.2695C247.926 30.2695 247.479 30.5 247.182 30.9609C246.885 31.418 246.736 32.043 246.736 32.8359C246.736 33.625 246.883 34.2344 247.176 34.6641C247.473 35.0938 247.922 35.3086 248.523 35.3086ZM258.736 29.5781V36H257.939L257.799 35.0977H257.746C257.613 35.3203 257.441 35.5078 257.23 35.6602C257.02 35.8125 256.781 35.9258 256.516 36C256.254 36.0781 255.975 36.1172 255.678 36.1172C255.17 36.1172 254.744 36.0352 254.4 35.8711C254.057 35.707 253.797 35.4531 253.621 35.1094C253.449 34.7656 253.363 34.3242 253.363 33.7852V29.5781H254.348V33.7148C254.348 34.25 254.469 34.6504 254.711 34.916C254.953 35.1777 255.322 35.3086 255.818 35.3086C256.295 35.3086 256.674 35.2188 256.955 35.0391C257.24 34.8594 257.445 34.5957 257.57 34.248C257.695 33.8965 257.758 33.4668 257.758 32.959V29.5781H258.736ZM263.365 36.1172C262.787 36.1172 262.277 35.998 261.836 35.7598C261.395 35.5215 261.051 35.1582 260.805 34.6699C260.559 34.1816 260.436 33.5664 260.436 32.8242C260.436 32.0469 260.564 31.4121 260.822 30.9199C261.084 30.4238 261.443 30.0566 261.9 29.8184C262.357 29.5801 262.877 29.4609 263.459 29.4609C263.779 29.4609 264.088 29.4941 264.385 29.5605C264.686 29.623 264.932 29.7031 265.123 29.8008L264.83 30.6152C264.635 30.5371 264.408 30.4668 264.15 30.4043C263.896 30.3418 263.658 30.3105 263.436 30.3105C262.99 30.3105 262.619 30.4062 262.322 30.5977C262.029 30.7891 261.809 31.0703 261.66 31.4414C261.516 31.8125 261.443 32.2695 261.443 32.8125C261.443 33.332 261.514 33.7754 261.654 34.1426C261.799 34.5098 262.012 34.791 262.293 34.9863C262.578 35.1777 262.934 35.2734 263.359 35.2734C263.699 35.2734 264.006 35.2383 264.279 35.168C264.553 35.0938 264.801 35.0078 265.023 34.9102V35.7773C264.809 35.8867 264.568 35.9707 264.303 36.0293C264.041 36.0879 263.729 36.1172 263.365 36.1172ZM268.621 35.3203C268.781 35.3203 268.945 35.3066 269.113 35.2793C269.281 35.252 269.418 35.2188 269.523 35.1797V35.9355C269.41 35.9863 269.252 36.0293 269.049 36.0645C268.85 36.0996 268.654 36.1172 268.463 36.1172C268.123 36.1172 267.814 36.0586 267.537 35.9414C267.26 35.8203 267.037 35.6172 266.869 35.332C266.705 35.0469 266.623 34.6523 266.623 34.1484V30.3398H265.709V29.8652L266.629 29.4844L267.016 28.0898H267.602V29.5781H269.482V30.3398H267.602V34.1191C267.602 34.5215 267.693 34.8223 267.877 35.0215C268.064 35.2207 268.312 35.3203 268.621 35.3203ZM281.518 31.7051C281.518 32.3652 281.434 32.9668 281.266 33.5098C281.098 34.0488 280.848 34.5137 280.516 34.9043C280.188 35.291 279.779 35.5898 279.291 35.8008C278.803 36.0117 278.236 36.1172 277.592 36.1172C276.928 36.1172 276.348 36.0117 275.852 35.8008C275.359 35.5898 274.949 35.2891 274.621 34.8984C274.297 34.5078 274.053 34.041 273.889 33.498C273.729 32.9551 273.648 32.3535 273.648 31.6934C273.648 30.8184 273.793 30.0508 274.082 29.3906C274.371 28.7305 274.809 28.2168 275.395 27.8496C275.984 27.4824 276.723 27.2988 277.609 27.2988C278.457 27.2988 279.17 27.4805 279.748 27.8438C280.33 28.207 280.77 28.7188 281.066 29.3789C281.367 30.0352 281.518 30.8105 281.518 31.7051ZM274.697 31.7051C274.697 32.4316 274.801 33.0605 275.008 33.5918C275.215 34.123 275.531 34.5332 275.957 34.8223C276.387 35.1113 276.932 35.2559 277.592 35.2559C278.256 35.2559 278.799 35.1113 279.221 34.8223C279.646 34.5332 279.961 34.123 280.164 33.5918C280.367 33.0605 280.469 32.4316 280.469 31.7051C280.469 30.5996 280.236 29.7363 279.771 29.1152C279.311 28.4902 278.59 28.1777 277.609 28.1777C276.945 28.1777 276.398 28.3203 275.969 28.6055C275.539 28.8906 275.219 29.2969 275.008 29.8242C274.801 30.3477 274.697 30.9746 274.697 31.7051ZM288.508 35.9883L287.365 32.25C287.314 32.0898 287.266 31.9336 287.219 31.7812C287.176 31.625 287.135 31.4766 287.096 31.3359C287.061 31.1914 287.027 31.0586 286.996 30.9375C286.969 30.8125 286.945 30.7051 286.926 30.6152H286.885C286.869 30.7051 286.848 30.8125 286.82 30.9375C286.793 31.0586 286.76 31.1914 286.721 31.3359C286.686 31.4805 286.646 31.6328 286.604 31.793C286.561 31.9492 286.512 32.1074 286.457 32.2676L285.262 35.9883H284.166L282.396 29.5664H283.404L284.33 33.1113C284.393 33.3457 284.451 33.5781 284.506 33.8086C284.564 34.0352 284.613 34.25 284.652 34.4531C284.695 34.6523 284.727 34.8262 284.746 34.9746H284.793C284.816 34.877 284.842 34.7598 284.869 34.623C284.9 34.4863 284.934 34.3418 284.969 34.1895C285.008 34.0332 285.049 33.8789 285.092 33.7266C285.135 33.5703 285.178 33.4238 285.221 33.2871L286.404 29.5664H287.453L288.596 33.2812C288.654 33.4688 288.711 33.6641 288.766 33.8672C288.824 34.0703 288.877 34.2676 288.924 34.459C288.971 34.6465 289.004 34.8145 289.023 34.9629H289.07C289.086 34.8301 289.115 34.666 289.158 34.4707C289.201 34.2754 289.25 34.0605 289.305 33.8262C289.363 33.5918 289.424 33.3535 289.486 33.1113L290.424 29.5664H291.414L289.639 35.9883H288.508ZM295.627 29.4609C296.389 29.4609 296.965 29.6484 297.355 30.0234C297.746 30.3945 297.941 30.9922 297.941 31.8164V36H296.98V31.8809C296.98 31.3457 296.857 30.9453 296.611 30.6797C296.369 30.4141 295.996 30.2812 295.492 30.2812C294.781 30.2812 294.281 30.4824 293.992 30.8848C293.703 31.2871 293.559 31.8711 293.559 32.6367V36H292.586V29.5781H293.371L293.518 30.5039H293.57C293.707 30.2773 293.881 30.0879 294.092 29.9355C294.303 29.7793 294.539 29.6621 294.801 29.584C295.062 29.502 295.338 29.4609 295.627 29.4609ZM302.418 29.4609C302.965 29.4609 303.434 29.582 303.824 29.8242C304.215 30.0664 304.514 30.4062 304.721 30.8438C304.928 31.2773 305.031 31.7852 305.031 32.3672V32.9707H300.596C300.607 33.7246 300.795 34.2988 301.158 34.6934C301.521 35.0879 302.033 35.2852 302.693 35.2852C303.1 35.2852 303.459 35.248 303.771 35.1738C304.084 35.0996 304.408 34.9902 304.744 34.8457V35.7012C304.42 35.8457 304.098 35.9512 303.777 36.0176C303.461 36.084 303.086 36.1172 302.652 36.1172C302.035 36.1172 301.496 35.9922 301.035 35.7422C300.578 35.4883 300.223 35.1172 299.969 34.6289C299.715 34.1406 299.588 33.543 299.588 32.8359C299.588 32.1445 299.703 31.5469 299.934 31.043C300.168 30.5352 300.496 30.1445 300.918 29.8711C301.344 29.5977 301.844 29.4609 302.418 29.4609ZM302.406 30.2578C301.887 30.2578 301.473 30.4277 301.164 30.7676C300.855 31.1074 300.672 31.582 300.613 32.1914H304.012C304.008 31.8086 303.947 31.4727 303.83 31.1836C303.717 30.8906 303.543 30.6641 303.309 30.5039C303.074 30.3398 302.773 30.2578 302.406 30.2578ZM309.602 29.4609C309.73 29.4609 309.865 29.4688 310.006 29.4844C310.146 29.4961 310.271 29.5137 310.381 29.5371L310.258 30.4395C310.152 30.4121 310.035 30.3906 309.906 30.375C309.777 30.3594 309.656 30.3516 309.543 30.3516C309.285 30.3516 309.041 30.4043 308.811 30.5098C308.584 30.6113 308.385 30.7598 308.213 30.9551C308.041 31.1465 307.906 31.3789 307.809 31.6523C307.711 31.9219 307.662 32.2227 307.662 32.5547V36H306.684V29.5781H307.492L307.598 30.7617H307.639C307.771 30.5234 307.932 30.3066 308.119 30.1113C308.307 29.9121 308.523 29.7539 308.77 29.6367C309.02 29.5195 309.297 29.4609 309.602 29.4609ZM315.748 34.2422C315.748 34.6523 315.645 34.998 315.438 35.2793C315.234 35.5566 314.941 35.7656 314.559 35.9062C314.18 36.0469 313.727 36.1172 313.199 36.1172C312.75 36.1172 312.361 36.082 312.033 36.0117C311.705 35.9414 311.418 35.8418 311.172 35.7129V34.8164C311.434 34.9453 311.746 35.0625 312.109 35.168C312.473 35.2734 312.844 35.3262 313.223 35.3262C313.777 35.3262 314.18 35.2363 314.43 35.0566C314.68 34.877 314.805 34.6328 314.805 34.3242C314.805 34.1484 314.754 33.9941 314.652 33.8613C314.555 33.7246 314.389 33.5938 314.154 33.4688C313.92 33.3398 313.596 33.1992 313.182 33.0469C312.771 32.8906 312.416 32.7363 312.115 32.584C311.818 32.4277 311.588 32.2383 311.424 32.0156C311.264 31.793 311.184 31.5039 311.184 31.1484C311.184 30.6055 311.402 30.1895 311.84 29.9004C312.281 29.6074 312.859 29.4609 313.574 29.4609C313.961 29.4609 314.322 29.5 314.658 29.5781C314.998 29.6523 315.314 29.7539 315.607 29.8828L315.279 30.6621C315.014 30.5488 314.73 30.4531 314.43 30.375C314.129 30.2969 313.822 30.2578 313.51 30.2578C313.061 30.2578 312.715 30.332 312.473 30.4805C312.234 30.6289 312.115 30.832 312.115 31.0898C312.115 31.2891 312.17 31.4531 312.279 31.582C312.393 31.7109 312.572 31.832 312.818 31.9453C313.064 32.0586 313.389 32.1914 313.791 32.3438C314.193 32.4922 314.541 32.6465 314.834 32.8066C315.127 32.9629 315.352 33.1543 315.508 33.3809C315.668 33.6035 315.748 33.8906 315.748 34.2422ZM248.453 48.7129C248.453 48.0527 248.516 47.4102 248.641 46.7852C248.77 46.1602 248.965 45.5645 249.227 44.998C249.488 44.4316 249.818 43.9102 250.217 43.4336H251.148C250.582 44.1758 250.156 45 249.871 45.9062C249.586 46.8125 249.443 47.7441 249.443 48.7012C249.443 49.3262 249.506 49.9434 249.631 50.5527C249.76 51.1582 249.949 51.7422 250.199 52.3047C250.453 52.8672 250.766 53.3984 251.137 53.8984H250.217C249.818 53.4297 249.488 52.918 249.227 52.3633C248.965 51.8125 248.77 51.2285 248.641 50.6113C248.516 49.9941 248.453 49.3613 248.453 48.7129ZM254.922 43.4336C256.027 43.4336 256.834 43.6504 257.342 44.084C257.854 44.5137 258.109 45.1309 258.109 45.9355C258.109 46.2988 258.049 46.6445 257.928 46.9727C257.811 47.2969 257.619 47.584 257.354 47.834C257.088 48.0801 256.738 48.2754 256.305 48.4199C255.875 48.5605 255.348 48.6309 254.723 48.6309H253.68V52H252.684V43.4336H254.922ZM254.828 44.2832H253.68V47.7754H254.611C255.158 47.7754 255.613 47.7168 255.977 47.5996C256.344 47.4824 256.619 47.293 256.803 47.0312C256.986 46.7656 257.078 46.4141 257.078 45.9766C257.078 45.4062 256.896 44.9824 256.533 44.7051C256.17 44.4238 255.602 44.2832 254.828 44.2832ZM267.332 47.7051C267.332 48.3652 267.248 48.9668 267.08 49.5098C266.912 50.0488 266.662 50.5137 266.33 50.9043C266.002 51.291 265.594 51.5898 265.105 51.8008C264.617 52.0117 264.051 52.1172 263.406 52.1172C262.742 52.1172 262.162 52.0117 261.666 51.8008C261.174 51.5898 260.764 51.2891 260.436 50.8984C260.111 50.5078 259.867 50.041 259.703 49.498C259.543 48.9551 259.463 48.3535 259.463 47.6934C259.463 46.8184 259.607 46.0508 259.896 45.3906C260.186 44.7305 260.623 44.2168 261.209 43.8496C261.799 43.4824 262.537 43.2988 263.424 43.2988C264.271 43.2988 264.984 43.4805 265.562 43.8438C266.145 44.207 266.584 44.7188 266.881 45.3789C267.182 46.0352 267.332 46.8105 267.332 47.7051ZM260.512 47.7051C260.512 48.4316 260.615 49.0605 260.822 49.5918C261.029 50.123 261.346 50.5332 261.771 50.8223C262.201 51.1113 262.746 51.2559 263.406 51.2559C264.07 51.2559 264.613 51.1113 265.035 50.8223C265.461 50.5332 265.775 50.123 265.979 49.5918C266.182 49.0605 266.283 48.4316 266.283 47.7051C266.283 46.5996 266.051 45.7363 265.586 45.1152C265.125 44.4902 264.404 44.1777 263.424 44.1777C262.76 44.1777 262.213 44.3203 261.783 44.6055C261.354 44.8906 261.033 45.2969 260.822 45.8242C260.615 46.3477 260.512 46.9746 260.512 47.7051ZM272.342 43.4336L269.154 52H268.193L271.387 43.4336H272.342ZM275.887 43.4336C276.992 43.4336 277.799 43.6504 278.307 44.084C278.818 44.5137 279.074 45.1309 279.074 45.9355C279.074 46.2988 279.014 46.6445 278.893 46.9727C278.775 47.2969 278.584 47.584 278.318 47.834C278.053 48.0801 277.703 48.2754 277.27 48.4199C276.84 48.5605 276.312 48.6309 275.688 48.6309H274.645V52H273.648V43.4336H275.887ZM275.793 44.2832H274.645V47.7754H275.576C276.123 47.7754 276.578 47.7168 276.941 47.5996C277.309 47.4824 277.584 47.293 277.768 47.0312C277.951 46.7656 278.043 46.4141 278.043 45.9766C278.043 45.4062 277.861 44.9824 277.498 44.7051C277.135 44.4238 276.566 44.2832 275.793 44.2832ZM284.635 52L281.758 44.418H281.711C281.727 44.5781 281.74 44.7734 281.752 45.0039C281.764 45.2344 281.773 45.4863 281.781 45.7598C281.789 46.0293 281.793 46.3047 281.793 46.5859V52H280.867V43.4336H282.344L285.057 50.5586H285.098L287.852 43.4336H289.316V52H288.332V46.5156C288.332 46.2617 288.336 46.0078 288.344 45.7539C288.352 45.4961 288.361 45.2539 288.373 45.0273C288.385 44.7969 288.396 44.5977 288.408 44.4297H288.361L285.449 52H284.635ZM293.547 48.7012C293.547 49.3535 293.482 49.9902 293.354 50.6113C293.229 51.2285 293.035 51.8145 292.773 52.3691C292.516 52.9238 292.186 53.4336 291.783 53.8984H290.863C291.238 53.4023 291.551 52.8711 291.801 52.3047C292.055 51.7383 292.244 51.1523 292.369 50.5469C292.498 49.9375 292.562 49.3203 292.562 48.6953C292.562 48.0586 292.498 47.4316 292.369 46.8145C292.24 46.1973 292.049 45.6035 291.795 45.0332C291.545 44.4629 291.23 43.9297 290.852 43.4336H291.783C292.186 43.9141 292.516 44.4375 292.773 45.0039C293.035 45.5664 293.229 46.1602 293.354 46.7852C293.482 47.4062 293.547 48.0449 293.547 48.7012Z" fill="#252525"/>
<rect x="142.5" y="163.5" width="71" height="39" rx="15.5" fill="#FCFCFC"/>
<rect x="142.5" y="163.5" width="71" height="39" rx="15.5" stroke="#C3C3C3"/>
<path d="M169.551 171.434V176.977C169.551 177.582 169.428 178.121 169.182 178.594C168.939 179.066 168.572 179.439 168.08 179.713C167.588 179.982 166.971 180.117 166.229 180.117C165.17 180.117 164.363 179.83 163.809 179.256C163.258 178.682 162.982 177.914 162.982 176.953V171.434H163.984V176.982C163.984 177.709 164.176 178.27 164.559 178.664C164.945 179.059 165.521 179.256 166.287 179.256C166.811 179.256 167.238 179.162 167.57 178.975C167.906 178.783 168.154 178.518 168.314 178.178C168.479 177.834 168.561 177.438 168.561 176.988V171.434H169.551ZM177.543 180H176.412L174.098 176.227L171.748 180H170.688L173.541 175.535L170.887 171.434H171.994L174.133 174.85L176.283 171.434H177.338L174.689 175.518L177.543 180ZM181.861 171.434L178.674 180H177.713L180.906 171.434H181.861ZM189.648 171.434V176.977C189.648 177.582 189.525 178.121 189.279 178.594C189.037 179.066 188.67 179.439 188.178 179.713C187.686 179.982 187.068 180.117 186.326 180.117C185.268 180.117 184.461 179.83 183.906 179.256C183.355 178.682 183.08 177.914 183.08 176.953V171.434H184.082V176.982C184.082 177.709 184.273 178.27 184.656 178.664C185.043 179.059 185.619 179.256 186.385 179.256C186.908 179.256 187.336 179.162 187.668 178.975C188.004 178.783 188.252 178.518 188.412 178.178C188.576 177.834 188.658 177.438 188.658 176.988V171.434H189.648ZM191.922 180V171.434H192.918V180H191.922ZM158.254 191.635C158.254 192.6 158.078 193.406 157.727 194.055C157.375 194.699 156.865 195.186 156.197 195.514C155.533 195.838 154.727 196 153.777 196H151.451V187.434H154.035C154.906 187.434 155.656 187.594 156.285 187.914C156.914 188.23 157.398 188.701 157.738 189.326C158.082 189.947 158.254 190.717 158.254 191.635ZM157.205 191.67C157.205 190.9 157.076 190.266 156.818 189.766C156.564 189.266 156.189 188.895 155.693 188.652C155.201 188.406 154.598 188.283 153.883 188.283H152.447V195.145H153.66C154.84 195.145 155.725 194.854 156.314 194.271C156.908 193.689 157.205 192.822 157.205 191.67ZM162.484 189.461C163.031 189.461 163.5 189.582 163.891 189.824C164.281 190.066 164.58 190.406 164.787 190.844C164.994 191.277 165.098 191.785 165.098 192.367V192.971H160.662C160.674 193.725 160.861 194.299 161.225 194.693C161.588 195.088 162.1 195.285 162.76 195.285C163.166 195.285 163.525 195.248 163.838 195.174C164.15 195.1 164.475 194.99 164.811 194.846V195.701C164.486 195.846 164.164 195.951 163.844 196.018C163.527 196.084 163.152 196.117 162.719 196.117C162.102 196.117 161.562 195.992 161.102 195.742C160.645 195.488 160.289 195.117 160.035 194.629C159.781 194.141 159.654 193.543 159.654 192.836C159.654 192.145 159.77 191.547 160 191.043C160.234 190.535 160.562 190.145 160.984 189.871C161.41 189.598 161.91 189.461 162.484 189.461ZM162.473 190.258C161.953 190.258 161.539 190.428 161.23 190.768C160.922 191.107 160.738 191.582 160.68 192.191H164.078C164.074 191.809 164.014 191.473 163.896 191.184C163.783 190.891 163.609 190.664 163.375 190.504C163.141 190.34 162.84 190.258 162.473 190.258ZM170.904 194.242C170.904 194.652 170.801 194.998 170.594 195.279C170.391 195.557 170.098 195.766 169.715 195.906C169.336 196.047 168.883 196.117 168.355 196.117C167.906 196.117 167.518 196.082 167.189 196.012C166.861 195.941 166.574 195.842 166.328 195.713V194.816C166.59 194.945 166.902 195.062 167.266 195.168C167.629 195.273 168 195.326 168.379 195.326C168.934 195.326 169.336 195.236 169.586 195.057C169.836 194.877 169.961 194.633 169.961 194.324C169.961 194.148 169.91 193.994 169.809 193.861C169.711 193.725 169.545 193.594 169.311 193.469C169.076 193.34 168.752 193.199 168.338 193.047C167.928 192.891 167.572 192.736 167.271 192.584C166.975 192.428 166.744 192.238 166.58 192.016C166.42 191.793 166.34 191.504 166.34 191.148C166.34 190.605 166.559 190.189 166.996 189.9C167.438 189.607 168.016 189.461 168.73 189.461C169.117 189.461 169.479 189.5 169.814 189.578C170.154 189.652 170.471 189.754 170.764 189.883L170.436 190.662C170.17 190.549 169.887 190.453 169.586 190.375C169.285 190.297 168.979 190.258 168.666 190.258C168.217 190.258 167.871 190.332 167.629 190.48C167.391 190.629 167.271 190.832 167.271 191.09C167.271 191.289 167.326 191.453 167.436 191.582C167.549 191.711 167.729 191.832 167.975 191.945C168.221 192.059 168.545 192.191 168.947 192.344C169.35 192.492 169.697 192.646 169.99 192.807C170.283 192.963 170.508 193.154 170.664 193.381C170.824 193.604 170.904 193.891 170.904 194.242ZM173.441 189.578V196H172.469V189.578H173.441ZM172.967 187.176C173.127 187.176 173.264 187.229 173.377 187.334C173.494 187.436 173.553 187.596 173.553 187.814C173.553 188.029 173.494 188.189 173.377 188.295C173.264 188.4 173.127 188.453 172.967 188.453C172.799 188.453 172.658 188.4 172.545 188.295C172.436 188.189 172.381 188.029 172.381 187.814C172.381 187.596 172.436 187.436 172.545 187.334C172.658 187.229 172.799 187.176 172.967 187.176ZM177.297 198.883C176.453 198.883 175.803 198.725 175.346 198.408C174.889 198.096 174.66 197.656 174.66 197.09C174.66 196.688 174.787 196.344 175.041 196.059C175.299 195.773 175.654 195.584 176.107 195.49C175.939 195.412 175.795 195.295 175.674 195.139C175.557 194.982 175.498 194.803 175.498 194.6C175.498 194.365 175.562 194.16 175.691 193.984C175.824 193.805 176.025 193.633 176.295 193.469C175.959 193.332 175.686 193.102 175.475 192.777C175.268 192.449 175.164 192.068 175.164 191.635C175.164 191.174 175.26 190.781 175.451 190.457C175.643 190.129 175.92 189.879 176.283 189.707C176.646 189.535 177.086 189.449 177.602 189.449C177.715 189.449 177.828 189.455 177.941 189.467C178.059 189.475 178.17 189.488 178.275 189.508C178.381 189.523 178.473 189.543 178.551 189.566H180.754V190.193L179.57 190.34C179.688 190.492 179.785 190.676 179.863 190.891C179.941 191.105 179.98 191.344 179.98 191.605C179.98 192.246 179.764 192.756 179.33 193.135C178.896 193.51 178.301 193.697 177.543 193.697C177.363 193.697 177.18 193.682 176.992 193.65C176.801 193.756 176.654 193.873 176.553 194.002C176.455 194.131 176.406 194.279 176.406 194.447C176.406 194.572 176.443 194.672 176.518 194.746C176.596 194.82 176.707 194.875 176.852 194.91C176.996 194.941 177.17 194.957 177.373 194.957H178.504C179.203 194.957 179.738 195.104 180.109 195.396C180.484 195.689 180.672 196.117 180.672 196.68C180.672 197.391 180.383 197.936 179.805 198.314C179.227 198.693 178.391 198.883 177.297 198.883ZM177.326 198.121C177.857 198.121 178.297 198.066 178.645 197.957C178.996 197.852 179.258 197.697 179.43 197.494C179.605 197.295 179.693 197.057 179.693 196.779C179.693 196.521 179.635 196.326 179.518 196.193C179.4 196.064 179.229 195.979 179.002 195.936C178.775 195.889 178.498 195.865 178.17 195.865H177.057C176.768 195.865 176.516 195.91 176.301 196C176.086 196.09 175.92 196.223 175.803 196.398C175.689 196.574 175.633 196.793 175.633 197.055C175.633 197.402 175.779 197.666 176.072 197.846C176.365 198.029 176.783 198.121 177.326 198.121ZM177.578 192.988C178.043 192.988 178.393 192.871 178.627 192.637C178.861 192.402 178.979 192.061 178.979 191.611C178.979 191.131 178.859 190.771 178.621 190.533C178.383 190.291 178.031 190.17 177.566 190.17C177.121 190.17 176.777 190.295 176.535 190.545C176.297 190.791 176.178 191.152 176.178 191.629C176.178 192.066 176.299 192.402 176.541 192.637C176.783 192.871 177.129 192.988 177.578 192.988ZM185.061 189.461C185.822 189.461 186.398 189.648 186.789 190.023C187.18 190.395 187.375 190.992 187.375 191.816V196H186.414V191.881C186.414 191.346 186.291 190.945 186.045 190.68C185.803 190.414 185.43 190.281 184.926 190.281C184.215 190.281 183.715 190.482 183.426 190.885C183.137 191.287 182.992 191.871 182.992 192.637V196H182.02V189.578H182.805L182.951 190.504H183.004C183.141 190.277 183.314 190.088 183.525 189.936C183.736 189.779 183.973 189.662 184.234 189.584C184.496 189.502 184.771 189.461 185.061 189.461ZM191.852 189.461C192.398 189.461 192.867 189.582 193.258 189.824C193.648 190.066 193.947 190.406 194.154 190.844C194.361 191.277 194.465 191.785 194.465 192.367V192.971H190.029C190.041 193.725 190.229 194.299 190.592 194.693C190.955 195.088 191.467 195.285 192.127 195.285C192.533 195.285 192.893 195.248 193.205 195.174C193.518 195.1 193.842 194.99 194.178 194.846V195.701C193.854 195.846 193.531 195.951 193.211 196.018C192.895 196.084 192.52 196.117 192.086 196.117C191.469 196.117 190.93 195.992 190.469 195.742C190.012 195.488 189.656 195.117 189.402 194.629C189.148 194.141 189.021 193.543 189.021 192.836C189.021 192.145 189.137 191.547 189.367 191.043C189.602 190.535 189.93 190.145 190.352 189.871C190.777 189.598 191.277 189.461 191.852 189.461ZM191.84 190.258C191.32 190.258 190.906 190.428 190.598 190.768C190.289 191.107 190.105 191.582 190.047 192.191H193.445C193.441 191.809 193.381 191.473 193.264 191.184C193.15 190.891 192.977 190.664 192.742 190.504C192.508 190.34 192.207 190.258 191.84 190.258ZM199.035 189.461C199.164 189.461 199.299 189.469 199.439 189.484C199.58 189.496 199.705 189.514 199.814 189.537L199.691 190.439C199.586 190.412 199.469 190.391 199.34 190.375C199.211 190.359 199.09 190.352 198.977 190.352C198.719 190.352 198.475 190.404 198.244 190.51C198.018 190.611 197.818 190.76 197.646 190.955C197.475 191.146 197.34 191.379 197.242 191.652C197.145 191.922 197.096 192.223 197.096 192.555V196H196.117V189.578H196.926L197.031 190.762H197.072C197.205 190.523 197.365 190.307 197.553 190.111C197.74 189.912 197.957 189.754 198.203 189.637C198.453 189.52 198.73 189.461 199.035 189.461ZM205.182 194.242C205.182 194.652 205.078 194.998 204.871 195.279C204.668 195.557 204.375 195.766 203.992 195.906C203.613 196.047 203.16 196.117 202.633 196.117C202.184 196.117 201.795 196.082 201.467 196.012C201.139 195.941 200.852 195.842 200.605 195.713V194.816C200.867 194.945 201.18 195.062 201.543 195.168C201.906 195.273 202.277 195.326 202.656 195.326C203.211 195.326 203.613 195.236 203.863 195.057C204.113 194.877 204.238 194.633 204.238 194.324C204.238 194.148 204.188 193.994 204.086 193.861C203.988 193.725 203.822 193.594 203.588 193.469C203.354 193.34 203.029 193.199 202.615 193.047C202.205 192.891 201.85 192.736 201.549 192.584C201.252 192.428 201.021 192.238 200.857 192.016C200.697 191.793 200.617 191.504 200.617 191.148C200.617 190.605 200.836 190.189 201.273 189.9C201.715 189.607 202.293 189.461 203.008 189.461C203.395 189.461 203.756 189.5 204.092 189.578C204.432 189.652 204.748 189.754 205.041 189.883L204.713 190.662C204.447 190.549 204.164 190.453 203.863 190.375C203.562 190.297 203.256 190.258 202.943 190.258C202.494 190.258 202.148 190.332 201.906 190.48C201.668 190.629 201.549 190.832 201.549 191.09C201.549 191.289 201.604 191.453 201.713 191.582C201.826 191.711 202.006 191.832 202.252 191.945C202.498 192.059 202.822 192.191 203.225 192.344C203.627 192.492 203.975 192.646 204.268 192.807C204.561 192.963 204.785 193.154 204.941 193.381C205.102 193.604 205.182 193.891 205.182 194.242Z" fill="#252525"/>
<rect x="0.5" y="39.5" width="112" height="23" rx="11.5" fill="#FCFCFC"/>
<rect x="0.5" y="39.5" width="112" height="23" rx="11.5" stroke="#C3C3C3"/>
<path d="M16.3809 51.6348C16.3809 52.5996 16.2051 53.4062 15.8535 54.0547C15.502 54.6992 14.9922 55.1855 14.3242 55.5137C13.6602 55.8379 12.8535 56 11.9043 56H9.57812V47.4336H12.1621C13.0332 47.4336 13.7832 47.5938 14.4121 47.9141C15.041 48.2305 15.5254 48.7012 15.8652 49.3262C16.209 49.9473 16.3809 50.7168 16.3809 51.6348ZM15.332 51.6699C15.332 50.9004 15.2031 50.2656 14.9453 49.7656C14.6914 49.2656 14.3164 48.8945 13.8203 48.6523C13.3281 48.4062 12.7246 48.2832 12.0098 48.2832H10.5742V55.1445H11.7871C12.9668 55.1445 13.8516 54.8535 14.4414 54.2715C15.0352 53.6895 15.332 52.8223 15.332 51.6699ZM20.6113 49.4609C21.1582 49.4609 21.627 49.582 22.0176 49.8242C22.4082 50.0664 22.707 50.4062 22.9141 50.8438C23.1211 51.2773 23.2246 51.7852 23.2246 52.3672V52.9707H18.7891C18.8008 53.7246 18.9883 54.2988 19.3516 54.6934C19.7148 55.0879 20.2266 55.2852 20.8867 55.2852C21.293 55.2852 21.6523 55.248 21.9648 55.1738C22.2773 55.0996 22.6016 54.9902 22.9375 54.8457V55.7012C22.6133 55.8457 22.291 55.9512 21.9707 56.0176C21.6543 56.084 21.2793 56.1172 20.8457 56.1172C20.2285 56.1172 19.6895 55.9922 19.2285 55.7422C18.7715 55.4883 18.416 55.1172 18.1621 54.6289C17.9082 54.1406 17.7812 53.543 17.7812 52.8359C17.7812 52.1445 17.8965 51.5469 18.127 51.043C18.3613 50.5352 18.6895 50.1445 19.1113 49.8711C19.5371 49.5977 20.0371 49.4609 20.6113 49.4609ZM20.5996 50.2578C20.0801 50.2578 19.666 50.4277 19.3574 50.7676C19.0488 51.1074 18.8652 51.582 18.8066 52.1914H22.2051C22.2012 51.8086 22.1406 51.4727 22.0234 51.1836C21.9102 50.8906 21.7363 50.6641 21.502 50.5039C21.2676 50.3398 20.9668 50.2578 20.5996 50.2578ZM29.0312 54.2422C29.0312 54.6523 28.9277 54.998 28.7207 55.2793C28.5176 55.5566 28.2246 55.7656 27.8418 55.9062C27.4629 56.0469 27.0098 56.1172 26.4824 56.1172C26.0332 56.1172 25.6445 56.082 25.3164 56.0117C24.9883 55.9414 24.7012 55.8418 24.4551 55.7129V54.8164C24.7168 54.9453 25.0293 55.0625 25.3926 55.168C25.7559 55.2734 26.127 55.3262 26.5059 55.3262C27.0605 55.3262 27.4629 55.2363 27.7129 55.0566C27.9629 54.877 28.0879 54.6328 28.0879 54.3242C28.0879 54.1484 28.0371 53.9941 27.9355 53.8613C27.8379 53.7246 27.6719 53.5938 27.4375 53.4688C27.2031 53.3398 26.8789 53.1992 26.4648 53.0469C26.0547 52.8906 25.6992 52.7363 25.3984 52.584C25.1016 52.4277 24.8711 52.2383 24.707 52.0156C24.5469 51.793 24.4668 51.5039 24.4668 51.1484C24.4668 50.6055 24.6855 50.1895 25.123 49.9004C25.5645 49.6074 26.1426 49.4609 26.8574 49.4609C27.2441 49.4609 27.6055 49.5 27.9414 49.5781C28.2812 49.6523 28.5977 49.7539 28.8906 49.8828L28.5625 50.6621C28.2969 50.5488 28.0137 50.4531 27.7129 50.375C27.4121 50.2969 27.1055 50.2578 26.793 50.2578C26.3438 50.2578 25.998 50.332 25.7559 50.4805C25.5176 50.6289 25.3984 50.832 25.3984 51.0898C25.3984 51.2891 25.4531 51.4531 25.5625 51.582C25.6758 51.7109 25.8555 51.832 26.1016 51.9453C26.3477 52.0586 26.6719 52.1914 27.0742 52.3438C27.4766 52.4922 27.8242 52.6465 28.1172 52.8066C28.4102 52.9629 28.6348 53.1543 28.791 53.3809C28.9512 53.6035 29.0312 53.8906 29.0312 54.2422ZM33.0684 49.4609C33.6152 49.4609 34.084 49.582 34.4746 49.8242C34.8652 50.0664 35.1641 50.4062 35.3711 50.8438C35.5781 51.2773 35.6816 51.7852 35.6816 52.3672V52.9707H31.2461C31.2578 53.7246 31.4453 54.2988 31.8086 54.6934C32.1719 55.0879 32.6836 55.2852 33.3438 55.2852C33.75 55.2852 34.1094 55.248 34.4219 55.1738C34.7344 55.0996 35.0586 54.9902 35.3945 54.8457V55.7012C35.0703 55.8457 34.748 55.9512 34.4277 56.0176C34.1113 56.084 33.7363 56.1172 33.3027 56.1172C32.6855 56.1172 32.1465 55.9922 31.6855 55.7422C31.2285 55.4883 30.873 55.1172 30.6191 54.6289C30.3652 54.1406 30.2383 53.543 30.2383 52.8359C30.2383 52.1445 30.3535 51.5469 30.584 51.043C30.8184 50.5352 31.1465 50.1445 31.5684 49.8711C31.9941 49.5977 32.4941 49.4609 33.0684 49.4609ZM33.0566 50.2578C32.5371 50.2578 32.123 50.4277 31.8145 50.7676C31.5059 51.1074 31.3223 51.582 31.2637 52.1914H34.6621C34.6582 51.8086 34.5977 51.4727 34.4805 51.1836C34.3672 50.8906 34.1934 50.6641 33.959 50.5039C33.7246 50.3398 33.4238 50.2578 33.0566 50.2578ZM40.375 49.4609C41.1367 49.4609 41.7129 49.6484 42.1035 50.0234C42.4941 50.3945 42.6895 50.9922 42.6895 51.8164V56H41.7285V51.8809C41.7285 51.3457 41.6055 50.9453 41.3594 50.6797C41.1172 50.4141 40.7441 50.2812 40.2402 50.2812C39.5293 50.2812 39.0293 50.4824 38.7402 50.8848C38.4512 51.2871 38.3066 51.8711 38.3066 52.6367V56H37.334V49.5781H38.1191L38.2656 50.5039H38.3184C38.4551 50.2773 38.6289 50.0879 38.8398 49.9355C39.0508 49.7793 39.2871 49.6621 39.5488 49.584C39.8105 49.502 40.0859 49.4609 40.375 49.4609ZM46.1055 56L43.668 49.5781H44.7109L46.123 53.4629C46.2207 53.7285 46.3203 54.0215 46.4219 54.3418C46.5234 54.6621 46.5938 54.9199 46.6328 55.1152H46.6738C46.7207 54.9199 46.7988 54.6621 46.9082 54.3418C47.0176 54.0176 47.1172 53.7246 47.207 53.4629L48.6191 49.5781H49.6621L47.2188 56H46.1055ZM56.2305 52.7773C56.2305 53.3047 56.1621 53.7754 56.0254 54.1895C55.8887 54.6035 55.6914 54.9531 55.4336 55.2383C55.1758 55.5234 54.8633 55.7422 54.4961 55.8945C54.1328 56.043 53.7207 56.1172 53.2598 56.1172C52.8301 56.1172 52.4355 56.043 52.0762 55.8945C51.7207 55.7422 51.4121 55.5234 51.1504 55.2383C50.8926 54.9531 50.6914 54.6035 50.5469 54.1895C50.4062 53.7754 50.3359 53.3047 50.3359 52.7773C50.3359 52.0742 50.4551 51.4766 50.6934 50.9844C50.9316 50.4883 51.2715 50.1113 51.7129 49.8535C52.1582 49.5918 52.6875 49.4609 53.3008 49.4609C53.8867 49.4609 54.3984 49.5918 54.8359 49.8535C55.2773 50.1152 55.6191 50.4941 55.8613 50.9902C56.1074 51.4824 56.2305 52.0781 56.2305 52.7773ZM51.3438 52.7773C51.3438 53.293 51.4121 53.7402 51.5488 54.1191C51.6855 54.498 51.8965 54.791 52.1816 54.998C52.4668 55.2051 52.834 55.3086 53.2832 55.3086C53.7285 55.3086 54.0938 55.2051 54.3789 54.998C54.668 54.791 54.8809 54.498 55.0176 54.1191C55.1543 53.7402 55.2227 53.293 55.2227 52.7773C55.2227 52.2656 55.1543 51.8242 55.0176 51.4531C54.8809 51.0781 54.6699 50.7891 54.3848 50.5859C54.0996 50.3828 53.7305 50.2812 53.2773 50.2812C52.6094 50.2812 52.1191 50.502 51.8066 50.9434C51.498 51.3848 51.3438 51.9961 51.3438 52.7773ZM58.8906 56H57.9121V46.8828H58.8906V56ZM62.3594 56L59.9219 49.5781H60.9648L62.377 53.4629C62.4746 53.7285 62.5742 54.0215 62.6758 54.3418C62.7773 54.6621 62.8477 54.9199 62.8867 55.1152H62.9277C62.9746 54.9199 63.0527 54.6621 63.1621 54.3418C63.2715 54.0176 63.3711 53.7246 63.4609 53.4629L64.873 49.5781H65.916L63.4727 56H62.3594ZM69.4199 49.4609C69.9668 49.4609 70.4355 49.582 70.8262 49.8242C71.2168 50.0664 71.5156 50.4062 71.7227 50.8438C71.9297 51.2773 72.0332 51.7852 72.0332 52.3672V52.9707H67.5977C67.6094 53.7246 67.7969 54.2988 68.1602 54.6934C68.5234 55.0879 69.0352 55.2852 69.6953 55.2852C70.1016 55.2852 70.4609 55.248 70.7734 55.1738C71.0859 55.0996 71.4102 54.9902 71.7461 54.8457V55.7012C71.4219 55.8457 71.0996 55.9512 70.7793 56.0176C70.4629 56.084 70.0879 56.1172 69.6543 56.1172C69.0371 56.1172 68.498 55.9922 68.0371 55.7422C67.5801 55.4883 67.2246 55.1172 66.9707 54.6289C66.7168 54.1406 66.5898 53.543 66.5898 52.8359C66.5898 52.1445 66.7051 51.5469 66.9355 51.043C67.1699 50.5352 67.498 50.1445 67.9199 49.8711C68.3457 49.5977 68.8457 49.4609 69.4199 49.4609ZM69.4082 50.2578C68.8887 50.2578 68.4746 50.4277 68.166 50.7676C67.8574 51.1074 67.6738 51.582 67.6152 52.1914H71.0137C71.0098 51.8086 70.9492 51.4727 70.832 51.1836C70.7188 50.8906 70.5449 50.6641 70.3105 50.5039C70.0762 50.3398 69.7754 50.2578 69.4082 50.2578ZM75.9707 56.1172C75.1582 56.1172 74.5137 55.8398 74.0371 55.2852C73.5645 54.7305 73.3281 53.9062 73.3281 52.8125C73.3281 51.707 73.5703 50.873 74.0547 50.3105C74.5391 49.7441 75.1836 49.4609 75.9883 49.4609C76.3281 49.4609 76.625 49.5059 76.8789 49.5957C77.1328 49.6855 77.3516 49.8066 77.5352 49.959C77.7188 50.1074 77.873 50.2773 77.998 50.4688H78.0684C78.0527 50.3477 78.0371 50.1816 78.0215 49.9707C78.0059 49.7598 77.998 49.5879 77.998 49.4551V46.8828H78.9707V56H78.1855L78.0391 55.0859H77.998C77.877 55.2773 77.7227 55.4512 77.5352 55.6074C77.3516 55.7637 77.1309 55.8887 76.873 55.9824C76.6191 56.0723 76.3184 56.1172 75.9707 56.1172ZM76.123 55.3086C76.8105 55.3086 77.2969 55.1133 77.582 54.7227C77.8672 54.332 78.0098 53.752 78.0098 52.9824V52.8066C78.0098 51.9902 77.873 51.3633 77.5996 50.9258C77.3301 50.4883 76.8379 50.2695 76.123 50.2695C75.5254 50.2695 75.0781 50.5 74.7812 50.9609C74.4844 51.418 74.3359 52.043 74.3359 52.8359C74.3359 53.625 74.4824 54.2344 74.7754 54.6641C75.0723 55.0938 75.5215 55.3086 76.123 55.3086ZM86.5703 52.7773C86.5703 53.3047 86.502 53.7754 86.3652 54.1895C86.2285 54.6035 86.0312 54.9531 85.7734 55.2383C85.5156 55.5234 85.2031 55.7422 84.8359 55.8945C84.4727 56.043 84.0605 56.1172 83.5996 56.1172C83.1699 56.1172 82.7754 56.043 82.416 55.8945C82.0605 55.7422 81.752 55.5234 81.4902 55.2383C81.2324 54.9531 81.0312 54.6035 80.8867 54.1895C80.7461 53.7754 80.6758 53.3047 80.6758 52.7773C80.6758 52.0742 80.7949 51.4766 81.0332 50.9844C81.2715 50.4883 81.6113 50.1113 82.0527 49.8535C82.498 49.5918 83.0273 49.4609 83.6406 49.4609C84.2266 49.4609 84.7383 49.5918 85.1758 49.8535C85.6172 50.1152 85.959 50.4941 86.2012 50.9902C86.4473 51.4824 86.5703 52.0781 86.5703 52.7773ZM81.6836 52.7773C81.6836 53.293 81.752 53.7402 81.8887 54.1191C82.0254 54.498 82.2363 54.791 82.5215 54.998C82.8066 55.2051 83.1738 55.3086 83.623 55.3086C84.0684 55.3086 84.4336 55.2051 84.7188 54.998C85.0078 54.791 85.2207 54.498 85.3574 54.1191C85.4941 53.7402 85.5625 53.293 85.5625 52.7773C85.5625 52.2656 85.4941 51.8242 85.3574 51.4531C85.2207 51.0781 85.0098 50.7891 84.7246 50.5859C84.4395 50.3828 84.0703 50.2812 83.6172 50.2812C82.9492 50.2812 82.459 50.502 82.1465 50.9434C81.8379 51.3848 81.6836 51.9961 81.6836 52.7773ZM91.1699 49.4609C91.2988 49.4609 91.4336 49.4688 91.5742 49.4844C91.7148 49.4961 91.8398 49.5137 91.9492 49.5371L91.8262 50.4395C91.7207 50.4121 91.6035 50.3906 91.4746 50.375C91.3457 50.3594 91.2246 50.3516 91.1113 50.3516C90.8535 50.3516 90.6094 50.4043 90.3789 50.5098C90.1523 50.6113 89.9531 50.7598 89.7812 50.9551C89.6094 51.1465 89.4746 51.3789 89.377 51.6523C89.2793 51.9219 89.2305 52.2227 89.2305 52.5547V56H88.252V49.5781H89.0605L89.166 50.7617H89.207C89.3398 50.5234 89.5 50.3066 89.6875 50.1113C89.875 49.9121 90.0918 49.7539 90.3379 49.6367C90.5879 49.5195 90.8652 49.4609 91.1699 49.4609ZM95.6348 49.4609C96.1816 49.4609 96.6504 49.582 97.041 49.8242C97.4316 50.0664 97.7305 50.4062 97.9375 50.8438C98.1445 51.2773 98.248 51.7852 98.248 52.3672V52.9707H93.8125C93.8242 53.7246 94.0117 54.2988 94.375 54.6934C94.7383 55.0879 95.25 55.2852 95.9102 55.2852C96.3164 55.2852 96.6758 55.248 96.9883 55.1738C97.3008 55.0996 97.625 54.9902 97.9609 54.8457V55.7012C97.6367 55.8457 97.3145 55.9512 96.9941 56.0176C96.6777 56.084 96.3027 56.1172 95.8691 56.1172C95.252 56.1172 94.7129 55.9922 94.252 55.7422C93.7949 55.4883 93.4395 55.1172 93.1855 54.6289C92.9316 54.1406 92.8047 53.543 92.8047 52.8359C92.8047 52.1445 92.9199 51.5469 93.1504 51.043C93.3848 50.5352 93.7129 50.1445 94.1348 49.8711C94.5605 49.5977 95.0605 49.4609 95.6348 49.4609ZM95.623 50.2578C95.1035 50.2578 94.6895 50.4277 94.3809 50.7676C94.0723 51.1074 93.8887 51.582 93.8301 52.1914H97.2285C97.2246 51.8086 97.1641 51.4727 97.0469 51.1836C96.9336 50.8906 96.7598 50.6641 96.5254 50.5039C96.291 50.3398 95.9902 50.2578 95.623 50.2578ZM104.055 54.2422C104.055 54.6523 103.951 54.998 103.744 55.2793C103.541 55.5566 103.248 55.7656 102.865 55.9062C102.486 56.0469 102.033 56.1172 101.506 56.1172C101.057 56.1172 100.668 56.082 100.34 56.0117C100.012 55.9414 99.7246 55.8418 99.4785 55.7129V54.8164C99.7402 54.9453 100.053 55.0625 100.416 55.168C100.779 55.2734 101.15 55.3262 101.529 55.3262C102.084 55.3262 102.486 55.2363 102.736 55.0566C102.986 54.877 103.111 54.6328 103.111 54.3242C103.111 54.1484 103.061 53.9941 102.959 53.8613C102.861 53.7246 102.695 53.5938 102.461 53.4688C102.227 53.3398 101.902 53.1992 101.488 53.0469C101.078 52.8906 100.723 52.7363 100.422 52.584C100.125 52.4277 99.8945 52.2383 99.7305 52.0156C99.5703 51.793 99.4902 51.5039 99.4902 51.1484C99.4902 50.6055 99.709 50.1895 100.146 49.9004C100.588 49.6074 101.166 49.4609 101.881 49.4609C102.268 49.4609 102.629 49.5 102.965 49.5781C103.305 49.6523 103.621 49.7539 103.914 49.8828L103.586 50.6621C103.32 50.5488 103.037 50.4531 102.736 50.375C102.436 50.2969 102.129 50.2578 101.816 50.2578C101.367 50.2578 101.021 50.332 100.779 50.4805C100.541 50.6289 100.422 50.832 100.422 51.0898C100.422 51.2891 100.477 51.4531 100.586 51.582C100.699 51.7109 100.879 51.832 101.125 51.9453C101.371 52.0586 101.695 52.1914 102.098 52.3438C102.5 52.4922 102.848 52.6465 103.141 52.8066C103.434 52.9629 103.658 53.1543 103.814 53.3809C103.975 53.6035 104.055 53.8906 104.055 54.2422Z" fill="#252525"/>
<path d="M179.296 40.6617C189.953 40.6617 198.592 32.007 198.592 21.3309C198.592 10.6547 189.953 2 179.296 2C168.639 2 160 10.6547 160 21.3309C160 32.007 168.639 40.6617 179.296 40.6617Z" stroke="#DEDEDE" stroke-width="2" stroke-linecap="round" stroke-linejoin="round"/>
<path d="M170.354 10.957L179.601 21.3297L187.297 16.9925" stroke="#DEDEDE" stroke-width="2" stroke-linecap="round" stroke-linejoin="round"/>
</g>
<defs>
<clipPath id="clip0_782_4901">
<rect width="328" height="218" fill="white"/>
</clipPath>
</defs>
</svg>
