<svg width="328" height="232" viewBox="0 0 328 232" fill="none" xmlns="http://www.w3.org/2000/svg">
<g clip-path="url(#clip0_782_4902)">
<path d="M186.234 30.4658H130.566V38.0706H186.234V30.4658Z" stroke="#DEDEDE" stroke-linecap="round" stroke-linejoin="round"/>
<path d="M261.137 30.2432H205.469V37.848H261.137V30.2432Z" stroke="#DEDEDE" stroke-linecap="round" stroke-linejoin="round"/>
<path d="M110.829 30.4658H55.1617V38.0706H110.829V30.4658Z" stroke="#DEDEDE" stroke-linecap="round" stroke-linejoin="round"/>
<path d="M283.485 16.0273H31.8826V176.743H283.485V16.0273Z" stroke="#EDEDED" stroke-width="2" stroke-linecap="round" stroke-linejoin="round"/>
<path d="M287.67 176.944H27.6924V183.971H287.67V176.944Z" stroke="#DEDEDE" stroke-width="2" stroke-linecap="round" stroke-linejoin="round"/>
<path d="M287.67 9H27.6923V16.0269H287.67V9Z" stroke="#DEDEDE" stroke-width="2" stroke-linecap="round" stroke-linejoin="round"/>
<path d="M233.45 70.5954C225.338 72.9116 227.843 82.3505 233.637 84.9568C234.997 85.5654 235.583 86.4716 236.059 88.1361C236.535 89.8005 237.23 90.7103 239.067 90.1808C240.905 89.6513 241.012 88.5215 240.535 86.8571C240.059 85.1926 240.084 84.1104 240.904 82.8818C244.443 77.6098 241.565 68.277 233.45 70.5954Z" fill="#F9F9F9" stroke="#DEDEDE" stroke-linecap="round" stroke-linejoin="round"/>
<path d="M238.688 88.2818C237.151 87.0627 236.449 85.9269 237.321 84.829C238.193 83.731 238.575 82.4449 237.487 82.0294C236.398 81.6138 234.306 82.9655 235.589 83.4978C236.872 84.0301 239.41 81.4791 238.019 81.0656C236.629 80.6522 234.452 81.1146 234.977 80.4613C235.502 79.8081 238.164 79.1522 236.985 78.9581C234.619 78.5714 235.874 77.1074 235.109 75.2934" stroke="#DEDEDE" stroke-linecap="round" stroke-linejoin="round"/>
<path d="M240.962 85.7802C241.034 86.318 241.149 86.8493 241.306 87.3689C241.425 87.7623 241.513 88.1645 241.569 88.5718C241.759 90.0199 241.285 91.0315 239.454 91.5568C237.622 92.0821 236.688 91.4672 236.084 90.1395C235.912 89.7644 235.772 89.3759 235.665 88.9778C235.52 88.4561 235.337 87.9458 235.117 87.4509C237.152 87.2584 239.134 86.692 240.962 85.7802Z" fill="#F9F9F9" stroke="#EDEDED" stroke-linecap="round" stroke-linejoin="round"/>
<path d="M240.962 85.7806C241.026 86.2622 241.127 86.7381 241.266 87.2039C241.276 87.2602 241.293 87.315 241.306 87.3693C241.425 87.7626 241.513 88.1649 241.569 88.5721C241.101 89.146 240.289 89.614 239.003 89.9796C237.717 90.3452 236.781 90.3791 236.082 90.1372C235.91 89.7621 235.77 89.3736 235.663 88.9755L235.613 88.8138C235.479 88.3476 235.313 87.8914 235.115 87.4486C237.151 87.2572 239.133 86.6917 240.962 85.7806Z" fill="#F9F9F9" stroke="#EDEDED" stroke-linecap="round" stroke-linejoin="round"/>
<path d="M240.962 85.7801C241.026 86.2617 241.127 86.7377 241.266 87.2035C239.511 88.1183 237.589 88.6669 235.615 88.816C235.481 88.3498 235.315 87.8936 235.117 87.4508C237.152 87.2583 239.133 86.6919 240.962 85.7801Z" fill="#F9F9F9" stroke="#EDEDED" stroke-linecap="round" stroke-linejoin="round"/>
<path d="M233.196 68.1267L232.116 64.3706" stroke="#DEDEDE" stroke-width="2" stroke-linecap="round" stroke-linejoin="round"/>
<path d="M241.137 68.945L243.611 66.3456" stroke="#DEDEDE" stroke-width="2" stroke-linecap="round" stroke-linejoin="round"/>
<path d="M225.665 74.8478L221.06 74.1328" stroke="#DEDEDE" stroke-width="2" stroke-linecap="round" stroke-linejoin="round"/>
<path d="M228.77 70.5839L227.283 68.6953" stroke="#EDEDED" stroke-linecap="round" stroke-linejoin="round"/>
<path d="M226.709 81.3232L224.853 83.2732" stroke="#EDEDED" stroke-linecap="round" stroke-linejoin="round"/>
<path d="M244.673 75.6523L246.487 76.3705" stroke="#EDEDED" stroke-linecap="round" stroke-linejoin="round"/>
<path d="M237.777 68.0127L238.72 66.1089" stroke="#EDEDED" stroke-linecap="round" stroke-linejoin="round"/>
<path d="M91.9033 47.1973H80.0511C79.0296 51.6714 79.3214 56.346 80.8912 60.6578L93.3152 60.4601C93.3152 60.4601 89.965 53.1696 91.9033 47.1973Z" fill="#DEDEDE" stroke="#DEDEDE" stroke-miterlimit="10"/>
<path d="M68.6238 91.8105H56.7717C55.7502 96.2847 56.042 100.959 57.6118 105.271L70.0358 105.073C70.0358 105.073 66.6856 97.7829 68.6238 91.8105Z" fill="#DEDEDE" stroke="#DEDEDE" stroke-miterlimit="10"/>
<path d="M91.3972 92.3193H79.545C78.5235 96.7935 78.8153 101.468 80.3851 105.78L92.8091 105.582C92.8091 105.582 89.4589 98.2917 91.3972 92.3193Z" fill="#DEDEDE" stroke="#DEDEDE" stroke-miterlimit="10"/>
<path d="M112.146 70.5176H100.294C99.2724 74.9917 99.5642 79.6663 101.134 83.9781L113.558 83.7804C113.558 83.7804 110.208 76.4899 112.146 70.5176Z" fill="#DEDEDE" stroke="#DEDEDE" stroke-miterlimit="10"/>
<path d="M144.534 46.6904H132.682C131.661 51.1646 131.952 55.8392 133.522 60.151L145.946 59.9532C145.946 59.9532 142.596 52.6628 144.534 46.6904Z" fill="#DEDEDE" stroke="#DEDEDE" stroke-miterlimit="10"/>
<path d="M89.2313 50.5537H83.199" stroke="#F9F9F9" stroke-linecap="round" stroke-linejoin="round"/>
<path d="M65.9519 95.167H59.9196" stroke="#F9F9F9" stroke-linecap="round" stroke-linejoin="round"/>
<path d="M88.7253 95.6748H82.693" stroke="#F9F9F9" stroke-linecap="round" stroke-linejoin="round"/>
<path d="M109.474 73.875H103.442" stroke="#F9F9F9" stroke-linecap="round" stroke-linejoin="round"/>
<path d="M141.862 50.0459H135.83" stroke="#F9F9F9" stroke-linecap="round" stroke-linejoin="round"/>
<path d="M88.8467 53.1738H84.287" stroke="#F9F9F9" stroke-linecap="round" stroke-linejoin="round"/>
<path d="M65.5674 97.7891H61.0077" stroke="#F9F9F9" stroke-linecap="round" stroke-linejoin="round"/>
<path d="M88.3406 98.2959H83.7809" stroke="#F9F9F9" stroke-linecap="round" stroke-linejoin="round"/>
<path d="M109.089 76.4951H104.53" stroke="#F9F9F9" stroke-linecap="round" stroke-linejoin="round"/>
<path d="M141.478 52.667H136.918" stroke="#F9F9F9" stroke-linecap="round" stroke-linejoin="round"/>
<path d="M89.1401 55.6729H82.8193" stroke="#F9F9F9" stroke-linecap="round" stroke-linejoin="round"/>
<path d="M65.8608 100.288H59.54" stroke="#F9F9F9" stroke-linecap="round" stroke-linejoin="round"/>
<path d="M88.634 100.794H82.3132" stroke="#F9F9F9" stroke-linecap="round" stroke-linejoin="round"/>
<path d="M109.383 78.9951H103.062" stroke="#F9F9F9" stroke-linecap="round" stroke-linejoin="round"/>
<path d="M141.771 55.166H135.451" stroke="#F9F9F9" stroke-linecap="round" stroke-linejoin="round"/>
<path d="M58.0818 47.7031H69.4886C70.3793 51.7134 69.6672 55.9136 67.5048 59.4044L55.1617 58.8974C55.1617 58.8974 58.9269 53.4828 58.0818 47.7031Z" stroke="#DEDEDE" stroke-linecap="round" stroke-linejoin="round"/>
<path d="M60.1669 50.4355H67.6162" stroke="#DEDEDE" stroke-linecap="round" stroke-linejoin="round"/>
<path d="M60.2731 52.9404H66.2194" stroke="#DEDEDE" stroke-linecap="round" stroke-linejoin="round"/>
<path d="M60.1669 56.2158H62.9756" stroke="#DEDEDE" stroke-linecap="round" stroke-linejoin="round"/>
<path d="M63.6128 56.2158H65.4802" stroke="#DEDEDE" stroke-linecap="round" stroke-linejoin="round"/>
<path d="M81.3306 70.0107L92.7424 70.0361C93.6378 74.0421 92.9331 78.2401 90.7789 81.7323L78.4409 81.2253C78.4409 81.2253 82.1757 75.7803 81.3306 70.0107Z" stroke="#EDEDED" stroke-linecap="round" stroke-linejoin="round"/>
<path d="M102.079 47.1973L113.491 47.2226C114.386 51.2286 113.682 55.4266 111.528 58.9188L99.1896 58.4118C99.1896 58.4118 102.924 52.9668 102.079 47.1973Z" stroke="#EDEDED" stroke-linecap="round" stroke-linejoin="round"/>
<path d="M57.0392 69.5039L68.4511 69.5293C69.3464 73.5353 68.6417 77.7333 66.4875 81.2255L54.1495 80.7185C54.1495 80.7185 57.8843 75.2734 57.0392 69.5039Z" stroke="#EDEDED" stroke-linecap="round" stroke-linejoin="round"/>
<path d="M83.4155 72.749H90.8649" stroke="#EDEDED" stroke-linecap="round" stroke-linejoin="round"/>
<path d="M104.165 49.9336H111.614" stroke="#EDEDED" stroke-linecap="round" stroke-linejoin="round"/>
<path d="M59.1244 72.2412H66.5737" stroke="#EDEDED" stroke-linecap="round" stroke-linejoin="round"/>
<path d="M83.5217 75.248H89.468" stroke="#EDEDED" stroke-linecap="round" stroke-linejoin="round"/>
<path d="M104.271 52.4336H110.217" stroke="#EDEDED" stroke-linecap="round" stroke-linejoin="round"/>
<path d="M59.2306 74.7412H65.1769" stroke="#EDEDED" stroke-linecap="round" stroke-linejoin="round"/>
<path d="M83.4155 78.5234H86.2242" stroke="#EDEDED" stroke-linecap="round" stroke-linejoin="round"/>
<path d="M104.165 55.709H106.973" stroke="#EDEDED" stroke-linecap="round" stroke-linejoin="round"/>
<path d="M59.1244 78.0166H61.9331" stroke="#EDEDED" stroke-linecap="round" stroke-linejoin="round"/>
<path d="M86.8621 78.5234H88.7295" stroke="#EDEDED" stroke-linecap="round" stroke-linejoin="round"/>
<path d="M107.611 55.709H109.478" stroke="#EDEDED" stroke-linecap="round" stroke-linejoin="round"/>
<path d="M62.5706 78.0166H64.438" stroke="#EDEDED" stroke-linecap="round" stroke-linejoin="round"/>
<path d="M154.741 47.7031H166.148C167.037 51.7118 166.325 55.91 164.164 59.3993L151.821 58.8924C151.821 58.8924 155.581 53.4727 154.741 47.7031Z" stroke="#EDEDED" stroke-linecap="round" stroke-linejoin="round"/>
<path d="M132.98 68.9961H144.387C145.276 73.0048 144.564 77.2029 142.403 80.6923L130.06 80.1853C130.06 80.1853 133.82 74.7656 132.98 68.9961Z" stroke="#EDEDED" stroke-linecap="round" stroke-linejoin="round"/>
<path d="M153.223 66.9688H164.63C165.519 70.9774 164.807 75.1756 162.646 78.665L150.303 78.158C150.303 78.158 154.063 72.7383 153.223 66.9688Z" stroke="#EDEDED" stroke-linecap="round" stroke-linejoin="round"/>
<path d="M156.821 50.4414H164.27" stroke="#EDEDED" stroke-linecap="round" stroke-linejoin="round"/>
<path d="M135.06 71.7344H142.509" stroke="#EDEDED" stroke-linecap="round" stroke-linejoin="round"/>
<path d="M155.303 69.7061H162.752" stroke="#EDEDED" stroke-linecap="round" stroke-linejoin="round"/>
<path d="M156.927 52.9404H162.874" stroke="#EDEDED" stroke-linecap="round" stroke-linejoin="round"/>
<path d="M135.166 74.2344H141.112" stroke="#EDEDED" stroke-linecap="round" stroke-linejoin="round"/>
<path d="M155.409 72.2061H161.355" stroke="#EDEDED" stroke-linecap="round" stroke-linejoin="round"/>
<path d="M156.821 56.2158H159.629" stroke="#EDEDED" stroke-linecap="round" stroke-linejoin="round"/>
<path d="M135.06 77.5088H137.869" stroke="#EDEDED" stroke-linecap="round" stroke-linejoin="round"/>
<path d="M155.303 75.4814H158.111" stroke="#EDEDED" stroke-linecap="round" stroke-linejoin="round"/>
<path d="M160.267 56.2158H162.135" stroke="#EDEDED" stroke-linecap="round" stroke-linejoin="round"/>
<path d="M138.506 77.5088H140.374" stroke="#EDEDED" stroke-linecap="round" stroke-linejoin="round"/>
<path d="M158.749 75.4814H160.617" stroke="#EDEDED" stroke-linecap="round" stroke-linejoin="round"/>
<path d="M218.763 49.2236L207.356 49.249C206.467 53.2576 207.179 57.4558 209.34 60.9452L221.683 60.4382C221.683 60.4382 217.928 54.9932 218.763 49.2236Z" stroke="#DEDEDE" stroke-linecap="round" stroke-linejoin="round"/>
<path d="M216.688 51.9629H209.239" stroke="#DEDEDE" stroke-linecap="round" stroke-linejoin="round"/>
<path d="M216.582 54.4609H210.641" stroke="#DEDEDE" stroke-linecap="round" stroke-linejoin="round"/>
<path d="M216.688 57.7363H213.88" stroke="#DEDEDE" stroke-linecap="round" stroke-linejoin="round"/>
<path d="M213.242 57.7363H211.375" stroke="#DEDEDE" stroke-linecap="round" stroke-linejoin="round"/>
<path d="M120.946 29.168V148.822" stroke="#EDEDED" stroke-linecap="round" stroke-linejoin="round"/>
<path d="M195.849 28.9453V148.6" stroke="#EDEDED" stroke-linecap="round" stroke-linejoin="round"/>
<path d="M189.619 59.3138C186.851 51.1006 185.631 48.1601 184.053 46.3806C182.474 44.601 178.005 42.71 178.005 42.71C178.005 42.71 176.143 35.4803 173.759 35.7135C171.376 35.9467 175.328 45.5643 175.328 45.5643L173.233 55.0044C173.912 56.1123 174.441 57.3057 174.807 58.5533C176.436 63.9173 180.905 64.4243 182.135 68.9263C182.059 68.6678 189.594 64.1454 189.619 59.3138Z" fill="#FEBD9D"/>
<path d="M189.619 59.3138C186.851 51.1006 185.631 48.1601 184.053 46.3806C182.474 44.601 178.005 42.71 178.005 42.71C178.005 42.71 176.143 35.4803 173.759 35.7135C171.376 35.9467 175.328 45.5643 175.328 45.5643L173.233 55.0044C173.912 56.1123 174.441 57.3057 174.807 58.5533C176.436 63.9173 180.905 64.4243 182.135 68.9263C182.059 68.6678 189.594 64.1454 189.619 59.3138Z" fill="#FEBD9D"/>
<path d="M184.058 46.3806C182.489 44.5706 178.01 42.71 178.01 42.71C178.01 42.71 176.148 35.4803 173.764 35.7135C171.381 35.9467 175.333 45.5643 175.333 45.5643L173.238 55.0044" stroke="#EF8A66" stroke-width="0.75" stroke-linecap="round" stroke-linejoin="round"/>
<path d="M170.87 51.3085C172.838 49.7469 176.214 55.4658 174.174 57.0273C172.712 58.1477 168.997 52.7737 170.87 51.3085Z" fill="#FEBD9D" stroke="#EF8A66" stroke-miterlimit="10"/>
<path d="M178.01 42.7107C176.441 42.0922 176.244 44.7387 177.615 45.7527C178.987 46.7666 179.862 46.9796 180.06 47.6184C180.257 48.2572 180.647 50.2598 180.647 50.2598C180.207 51.5251 180.039 52.8691 180.153 54.2041C180.267 55.539 180.661 56.8347 181.31 58.0066" stroke="#EF8A66" stroke-width="0.75" stroke-linecap="round" stroke-linejoin="round"/>
<path d="M172.342 48.0383C174.311 46.4768 178.481 53.6152 176.441 55.1665C174.984 56.2819 170.47 49.5187 172.342 48.0383Z" fill="#FEBD9D" stroke="#EF8A66" stroke-miterlimit="10"/>
<path d="M174.053 45.7268C176.021 44.1652 180.196 51.3036 178.157 52.855C176.7 53.9704 172.185 47.197 174.053 45.7268Z" fill="#FEBD9D" stroke="#EF8A66" stroke-miterlimit="10"/>
<path d="M182.413 74.1282L179.756 68.9316C179.756 68.9316 186.254 64.4752 189.62 59.2988L191.851 63.0455C191.851 63.0455 189.184 74.7924 182.413 74.1282Z" fill="#431B61"/>
<path d="M221.254 99.1739C212.19 86.0885 200.581 73.211 198.931 71.4112C198.058 70.3779 196.83 69.7089 195.49 69.5354L191.441 62.3311C191.441 62.3311 187.023 68.9219 179.756 72.4708L183.43 79.5281C183.43 79.5281 182.307 80.3849 184.776 85.5815C187.246 90.7782 196.806 110.627 201.639 114.566C213.197 123.986 233.167 116.376 221.254 99.1739Z" fill="#5A0C94"/>
<path d="M189.316 75.5022L185.227 68.9316" stroke="#5A0C94" stroke-width="0.75" stroke-linecap="round" stroke-linejoin="round"/>
<path d="M186.877 77.1346L182.858 70.6807" stroke="#5A0C94" stroke-width="0.75" stroke-linecap="round" stroke-linejoin="round"/>
<path d="M189.619 64.6582L193.931 71.5887" stroke="#5A0C94" stroke-width="0.75" stroke-linecap="round" stroke-linejoin="round"/>
<path d="M187.458 66.8418L191.775 73.7723" stroke="#5A0C94" stroke-width="0.75" stroke-linecap="round" stroke-linejoin="round"/>
<path d="M221.254 99.1739C212.19 86.0885 200.581 73.211 198.931 71.4112C198.058 70.3779 196.83 69.7089 195.49 69.5354L191.441 62.3311" stroke="#5A0C94" stroke-width="0.75" stroke-linecap="round" stroke-linejoin="round"/>
<path d="M305.762 223.163H255.722V183.664L300.474 183.04C303.92 197.606 305.762 223.163 305.762 223.163Z" fill="#431B61"/>
<path d="M280.084 223.163C280.084 223.163 278.445 207.254 278.278 205.738C278.229 205.337 278.05 204.963 277.768 204.673C277.487 204.384 277.118 204.195 276.719 204.136C275.759 203.938 274.769 203.938 273.809 204.136" stroke="#9940DC" stroke-width="0.75" stroke-linecap="round" stroke-linejoin="round"/>
<path d="M309.365 127.216C308.566 140.443 305.823 161.007 303.925 174.107C302.857 181.484 302.073 186.498 302.073 186.498C302.073 186.498 270.054 187.745 261.354 187.512C252.655 187.279 251.704 186.635 251.704 183.122C251.704 179.608 251.85 135.733 251.85 135.733C251.85 135.733 208.895 120.524 202.711 115.358C196.527 110.191 203.931 93.2124 219.831 96.6954C223.829 97.5725 227.802 98.4648 231.861 99.3622C243.925 102.044 256.724 104.741 272.771 107.023C290.2 109.517 301.111 109.659 308.561 114.567C309.664 115.292 309.79 120.235 309.365 127.216Z" fill="#5A0C94"/>
<path d="M297.802 140.515C291.036 144.814 291.02 150.862 293.667 155.547C299.77 166.33 282.028 159.324 281.263 172.698L306.951 166.584L297.802 140.515Z" fill="#5A0C94"/>
<path d="M318.758 131.358C315.824 129.572 312.665 128.186 309.365 127.236C303.905 125.715 298.637 126.035 295.14 129.644C294.515 130.288 293.969 131.004 293.515 131.779C284.755 146.481 260.262 143.799 255.722 128.296C251.861 115.114 245.904 106.921 231.861 99.3975C243.926 102.044 256.724 104.741 272.772 107.023C290.201 109.517 301.111 109.659 308.561 114.567C312.012 116.027 315.61 122.709 318.758 131.358Z" fill="#5A0C94"/>
<path d="M274.406 106.063C268.698 106.063 264.067 109.719 264.067 114.221C264.067 116.756 265.535 119.027 267.843 120.523C268.959 121.243 270.194 121.758 271.491 122.044C272.447 122.266 273.425 122.377 274.406 122.373C274.624 122.373 274.836 122.373 275.049 122.373C276.425 122.313 277.781 122.024 279.062 121.516C280.275 121.054 281.389 120.366 282.346 119.489C283.088 118.83 283.684 118.024 284.099 117.123C284.514 116.221 284.737 115.244 284.755 114.251C284.755 109.719 280.125 106.063 274.406 106.063ZM277.832 118.175C276.822 118.488 275.773 118.659 274.715 118.682H274.406C273.578 118.686 272.752 118.601 271.942 118.429C270.9 118.225 269.9 117.845 268.986 117.303C267.519 116.416 266.608 115.169 266.608 113.79C266.608 111.083 270.1 108.892 274.406 108.892C278.713 108.892 282.21 111.083 282.21 113.79C282.21 114.981 281.532 116.071 280.398 116.923C279.622 117.488 278.754 117.911 277.832 118.175Z" stroke="#5A0C94" stroke-width="0.75" stroke-linecap="round" stroke-linejoin="round"/>
<path d="M269.264 103.979C267.331 104.35 265.18 104.993 264.102 106.849C263.024 108.705 262.974 116.436 263.961 117.283C264.947 118.13 266.263 114.084 272.149 112.112L269.264 103.979Z" fill="#431B61"/>
<path d="M277.099 112.477L283.106 102.966C283.106 102.966 286.294 104.659 286.81 107.716C287.326 110.773 285.929 120.797 283.399 118.257C281.603 116.482 282.007 115.017 277.099 112.477Z" fill="#431B61"/>
<path d="M267.842 120.524L268.986 117.289" stroke="#5A0C94" stroke-width="0.75" stroke-linecap="round" stroke-linejoin="round"/>
<path d="M271.491 122.049L271.941 118.414" stroke="#5A0C94" stroke-width="0.75" stroke-linecap="round" stroke-linejoin="round"/>
<path d="M275.049 122.364L274.715 118.663" stroke="#5A0C94" stroke-width="0.75" stroke-linecap="round" stroke-linejoin="round"/>
<path d="M279.062 121.507L277.832 118.166" stroke="#5A0C94" stroke-width="0.75" stroke-linecap="round" stroke-linejoin="round"/>
<path d="M282.346 119.458L280.398 116.908" stroke="#5A0C94" stroke-width="0.75" stroke-linecap="round" stroke-linejoin="round"/>
<path d="M284.016 104.254C284.062 105.441 281.648 113.238 274.948 113.887C268.247 114.536 267.265 107.225 267.306 105.304C267.306 104.528 267.392 103.159 267.488 101.446C267.62 99.0931 267.797 96.0968 267.928 93.1259L267.959 92.4769C268.698 75.2393 283.47 78.6818 282.549 87.8177C281.987 93.4503 283.961 103.073 284.016 104.254Z" fill="#FEBD9D"/>
<path d="M267.488 101.446C267.619 99.0931 267.797 96.0968 267.928 93.1259L276.111 91.8584C276.41 97.0854 273.89 101.582 267.488 101.446Z" fill="#F4A789"/>
<path d="M300.605 165.204C300.605 165.103 300.55 165.001 300.524 164.895C298.232 155.663 296.329 146.004 295.529 137.573" stroke="#5A0C94" stroke-width="0.75" stroke-linecap="round" stroke-linejoin="round"/>
<path d="M263.156 153.614C262.418 150.4 264.351 149.457 266.036 148.879C265.879 147.971 266.213 146.501 268.222 146.187C270.125 145.887 270.808 147.763 270.808 147.763C270.808 147.763 274.811 146.405 275.823 150.486L263.156 153.614Z" fill="#DEDEDE"/>
<path d="M253.435 154.511L283.672 147.51L295.14 196.186L264.639 202.335L253.435 154.511Z" fill="#F9F9F9" stroke="#DEDEDE" stroke-linecap="round" stroke-linejoin="round"/>
<path d="M267.204 148.657C267.203 148.927 267.282 149.191 267.431 149.416C267.58 149.641 267.793 149.816 268.041 149.92C268.29 150.024 268.564 150.052 268.828 150C269.093 149.948 269.336 149.818 269.527 149.628C269.717 149.437 269.848 149.194 269.901 148.93C269.954 148.665 269.927 148.39 269.824 148.141C269.721 147.891 269.547 147.678 269.323 147.528C269.099 147.378 268.835 147.298 268.566 147.298C268.206 147.298 267.86 147.441 267.605 147.695C267.35 147.95 267.206 148.296 267.204 148.657Z" fill="#F9F9F9" stroke="#DEDEDE" stroke-linecap="round" stroke-linejoin="round"/>
<path d="M327.933 175.125C327.943 176.09 327.899 177.054 327.802 178.014V178.156C327.77 178.352 327.726 178.545 327.67 178.734C326.435 182.79 318.622 186.618 311.364 182.41C310.728 182.041 310.119 181.625 309.543 181.168C307.192 179.224 305.276 176.805 303.92 174.07C302.475 171.253 301.363 168.278 300.605 165.203C300.605 165.101 300.55 165 300.524 164.894C297.488 152.584 295.099 139.514 295.12 129.622C295.12 117.698 298.627 110.387 308.561 114.575C311.992 116.025 315.59 122.687 318.738 131.336C321.402 138.831 323.551 146.499 325.17 154.287C326.921 162.384 327.933 169.979 327.933 175.125Z" fill="#5A0C94"/>
<path d="M327.822 178.029V178.171C327.79 178.367 327.746 178.56 327.691 178.749C326.456 182.805 318.642 186.633 311.385 182.425C310.749 182.055 310.14 181.64 309.563 181.183C311.777 180.038 314.267 179.541 316.749 179.748C330.104 180.955 315.935 166.176 325.206 154.287C326.911 162.399 327.954 169.978 327.969 175.124C328.033 176.095 327.983 177.07 327.822 178.029Z" fill="#5A0C94"/>
<path d="M318.758 131.357C315.824 129.571 312.665 128.185 309.366 127.235C303.905 125.714 298.637 126.033 295.14 129.643C295.14 117.719 298.647 110.408 308.581 114.596C312.012 116.025 315.611 122.707 318.758 131.357Z" fill="#5A0C94"/>
<path d="M268.252 175.344C267.427 174.837 262.544 172.008 261.127 171.917C259.71 171.826 256.688 173.92 256.688 173.92C256.688 173.92 250.691 174.274 250.029 175.344C249.366 176.414 250.712 177.92 251.744 178.457C252.776 178.995 251.805 180.1 251.936 180.992C252.068 181.884 253.181 182.513 253.313 183.126C253.444 183.74 252.868 185.413 254.244 185.824C255.621 186.234 254.75 187.081 255.443 188.283C256.137 189.484 260.373 189.261 271.132 187.127L268.252 175.344Z" fill="#FEBD9D"/>
<path d="M261.132 171.917C259.71 171.83 256.694 173.919 256.694 173.919C256.694 173.919 250.697 174.274 250.034 175.344C249.371 176.414 250.717 177.919 251.749 178.457C252.782 178.994 251.81 180.099 251.942 180.992C252.073 181.884 253.187 182.513 253.318 183.126C253.45 183.74 252.873 185.413 254.249 185.823C255.626 186.234 254.756 187.081 255.449 188.282C255.727 188.754 256.552 189.007 258.101 189.007" stroke="#EF8A66" stroke-width="0.75" stroke-linecap="round" stroke-linejoin="round"/>
<path d="M267.498 174.371L269.659 188.222L274.219 187.548L272.802 174.031L267.498 174.371Z" fill="#431B61"/>
<path d="M327.806 178.173C327.766 178.366 327.725 178.563 327.675 178.751C326.47 183.501 321.389 186.574 307.462 187.547C306.248 187.635 305.045 187.713 303.854 187.78C287.336 188.764 273.05 188.48 273.05 188.48L270.899 173.681C278.389 171.455 290.833 167.237 300.625 165.204C304.674 164.368 308.242 163.896 310.848 164.089C313.817 164.25 316.759 164.735 319.623 165.534C320.385 165.754 321.132 166.023 321.86 166.34C325.21 167.861 327.462 170.254 327.887 174.158C327.923 174.482 327.948 174.807 327.973 175.116C328.039 176.138 327.983 177.164 327.806 178.173Z" fill="#5A0C94"/>
<path d="M310.848 164.089C308.242 163.896 304.659 164.368 300.625 165.204C290.833 167.232 278.389 171.455 270.899 173.681L273.05 188.48" stroke="#5A0C94" stroke-width="0.75" stroke-linecap="round" stroke-linejoin="round"/>
<path d="M271.157 175.436L279.922 174.031" stroke="#5A0C94" stroke-width="0.75" stroke-linecap="round" stroke-linejoin="round"/>
<path d="M271.572 178.28L280.089 177.215" stroke="#5A0C94" stroke-width="0.75" stroke-linecap="round" stroke-linejoin="round"/>
<path d="M271.886 180.465L280.297 179.75" stroke="#5A0C94" stroke-width="0.75" stroke-linecap="round" stroke-linejoin="round"/>
<path d="M272.351 183.669L280.469 183.04" stroke="#5A0C94" stroke-width="0.75" stroke-linecap="round" stroke-linejoin="round"/>
<path d="M272.802 186.281L280.762 185.479" stroke="#5A0C94" stroke-width="0.75" stroke-linecap="round" stroke-linejoin="round"/>
<path d="M256.688 173.944C258.86 173.721 260.813 173.63 260.813 173.63" stroke="#EF8A66" stroke-width="0.75" stroke-linecap="round" stroke-linejoin="round"/>
<path d="M327.807 178.173C327.775 178.368 327.731 178.561 327.675 178.751C326.47 183.501 321.39 186.573 307.463 187.547C306.248 187.635 305.045 187.712 303.854 187.78C306.951 180.104 313.829 179.486 316.734 179.749C325.676 180.561 322.3 174.208 321.84 166.35C325.19 167.871 327.442 170.264 327.867 174.167C327.903 174.492 327.928 174.816 327.953 175.126C328.025 176.143 327.976 177.166 327.807 178.173Z" fill="#5A0C94"/>
<path d="M281.582 76.3793C281.25 78.8384 280.658 81.2551 279.816 83.5887C278.505 87.0058 276.385 89.992 272.928 89.9666C272.564 89.9619 272.2 89.928 271.84 89.8652L262.65 86.0882C262.65 86.0882 262.691 85.9107 262.782 85.5812C263.428 83.3432 264.372 81.2029 265.59 79.2185C265.697 79.0512 265.813 78.8839 265.924 78.7115C268.111 75.3907 270.297 72.7341 270.297 72.7341C270.297 72.7341 270.423 69.5553 273.014 69.0888C275.606 68.6224 282.301 71.5325 281.582 76.3793Z" fill="#FEBD9D"/>
<path d="M279.816 83.5883C278.505 87.0054 276.385 89.9915 272.928 89.9662C272.303 89.5664 271.778 89.0284 271.394 88.3935C271.009 87.7586 270.774 87.0437 270.708 86.3038C270.643 85.564 270.747 84.8188 271.014 84.1258C271.28 83.4327 271.702 82.8101 272.247 82.3059C272.791 81.8017 273.444 81.4293 274.154 81.2174C274.865 81.0055 275.615 80.9598 276.346 81.0836C277.077 81.2075 277.77 81.4977 278.371 81.9319C278.973 82.3661 279.467 82.9328 279.816 83.5883Z" fill="#F4AF90"/>
<path d="M266.264 81.4842C266.263 82.4699 265.915 83.4236 265.281 84.177C264.647 84.9303 263.767 85.4347 262.797 85.601C263.443 83.363 264.388 81.2227 265.606 79.2383C266.036 79.9079 266.265 80.6878 266.264 81.4842Z" fill="#F4AF90"/>
<path d="M287.524 77.0333C287.109 78.2197 285.697 81.8751 284.917 83.8878C284.599 84.7041 284.381 85.2516 284.381 85.2516L282.144 84.4354L280.54 83.8523L279.973 83.6495C279.973 83.6495 279.973 83.8878 279.912 84.3036C279.751 85.8475 279.454 87.3743 279.027 88.8665C278.52 90.7234 277.693 92.477 276.582 94.0479C273.546 98.1038 265.661 97.688 262.023 94.5549C259.492 92.3545 259.999 88.329 262.2 84.1413C263.244 82.2071 264.498 80.3945 265.94 78.7368C265.94 78.7368 264.163 82.9093 263.875 83.8067C263.526 84.9272 264.837 84.8207 265.343 83.8675C265.849 82.9144 266.825 82.2553 269.659 83.0158C272.493 83.7763 273.647 85.2466 273.121 87.2999C272.812 88.5116 275.059 88.9324 276.714 87.3353C276.856 87.1996 276.988 87.0539 277.109 86.8993C277.336 86.6178 277.531 86.3117 277.691 85.9868C279.209 82.8891 280.095 78.1487 280.181 76.283C278.485 76.3895 277.023 75.0967 277.984 73.4895C275.995 74.326 274.518 72.8963 274.857 70.99C273.996 72.3437 272.063 72.2575 271.82 70.6554L270.302 72.7341C270.01 71.9467 269.872 71.1099 269.897 70.2701C270.009 67.7352 272.159 66.8125 273.86 67.3955C274.123 65.5653 278.414 65.2002 278.728 67.8163C279.649 66.1128 282.701 66.4626 282.777 69.0939C283.173 68.878 283.629 68.795 284.076 68.8568C284.523 68.9187 284.939 69.1223 285.262 69.4378C285.586 69.7534 285.8 70.1643 285.873 70.6105C285.947 71.0567 285.876 71.5148 285.671 71.9178C287.063 71.6136 287.954 73.4388 286.754 74.7468C286.77 74.7722 288.116 75.3654 287.524 77.0333Z" fill="#BF8228"/>
<path d="M272.771 79.1374C272.771 79.2717 272.811 79.4031 272.886 79.5148C272.96 79.6265 273.066 79.7136 273.19 79.765C273.314 79.8164 273.45 79.8299 273.582 79.8037C273.713 79.7775 273.834 79.7128 273.929 79.6178C274.024 79.5227 274.088 79.4017 274.115 79.2699C274.141 79.1381 274.127 79.0015 274.076 78.8774C274.025 78.7532 273.938 78.6472 273.826 78.5725C273.715 78.4979 273.584 78.458 273.45 78.458C273.27 78.458 273.097 78.5296 272.97 78.657C272.843 78.7844 272.771 78.9572 272.771 79.1374Z" fill="#683F1D"/>
<path d="M268.435 77.6821C268.434 77.8169 268.473 77.949 268.547 78.0615C268.621 78.1739 268.727 78.2618 268.851 78.3139C268.975 78.3659 269.112 78.3798 269.244 78.3537C269.376 78.3277 269.497 78.2629 269.592 78.1676C269.687 78.0722 269.752 77.9507 269.778 77.8185C269.804 77.6862 269.79 77.5492 269.738 77.4249C269.686 77.3005 269.599 77.1945 269.486 77.1202C269.374 77.0459 269.242 77.0068 269.108 77.0078C268.93 77.0092 268.759 77.0806 268.633 77.2068C268.507 77.333 268.436 77.5037 268.435 77.6821Z" fill="#683F1D"/>
<path d="M274.138 75.5576C273.789 76.7693 277.336 77.9658 277.488 77.2256C277.6 76.6932 274.654 73.7628 274.138 75.5576Z" fill="#BF8228"/>
<path d="M269.108 73.9502C268.9 74.5992 271.881 75.7196 272.23 74.6296C272.645 73.3317 269.29 73.3926 269.108 73.9502Z" fill="#BF8228"/>
<path d="M282.144 84.4346L279.973 83.6487C279.837 85.4206 279.52 87.1738 279.027 88.8809C278.323 88.9873 277.508 88.6172 276.714 87.3599C277.115 86.9706 277.446 86.5142 277.691 86.0113C279.209 82.9136 280.095 78.1733 280.181 76.3076C278.485 76.414 277.023 75.1212 277.984 73.5141C275.995 74.3506 274.518 72.9209 274.857 71.0146C273.996 72.3683 272.063 72.2821 271.82 70.68L270.302 72.7586C270.01 71.9712 269.872 71.1345 269.897 70.2947C270.717 69.4581 271.841 68.8802 272.782 69.1692C272.782 69.1692 275.256 69.7674 276.127 68.5811C275.646 70.4873 277.589 72.3024 279.882 71.5216C279.882 71.5216 280.682 74.9843 283.48 74.9793C283.48 74.9793 283.176 78.077 284.776 78.3609C285.985 78.5687 283.541 82.0619 282.144 84.4346Z" fill="#B57724"/>
<path d="M279.912 84.3038C279.75 85.8478 279.454 87.3746 279.026 88.8667C278.52 90.7237 277.693 92.4773 276.582 94.0482C273.546 98.1041 265.661 97.6883 262.023 94.5551C259.492 92.3548 259.998 88.3293 262.2 84.1416C262.513 91.3865 269.386 95.5387 276.714 87.361L277.108 86.925C277.968 85.9742 278.906 85.0974 279.912 84.3038Z" fill="#B57724"/>
<path d="M284.917 83.888C284.598 84.7043 284.381 85.2518 284.381 85.2518L282.144 84.4355L280.54 83.8525C283.02 82.2048 284.28 82.9146 284.917 83.888Z" fill="#B57724"/>
<path d="M279.118 88.5411C279.559 86.9416 279.845 85.3032 279.973 83.6487C281.37 82.3812 283.819 82.4218 284.937 83.8312C285.244 84.2228 285.439 84.6908 285.499 85.1849C285.929 88.2623 283.364 91.5019 279.118 88.5411Z" fill="#FEBD9D"/>
<path d="M282.331 89.7071C281.164 89.669 280.039 89.2607 279.118 88.541" stroke="#EF8A66" stroke-width="0.75" stroke-linecap="round" stroke-linejoin="round"/>
<path d="M267.301 80.7545C267.524 79.4668 268.237 79.4668 269.583 79.2336C270.929 79.0004 271.972 77.7988 271.825 76.582" stroke="#EF8A66" stroke-width="0.75" stroke-linecap="round" stroke-linejoin="round"/>
<path d="M280.894 85.7285C281.111 85.4865 281.383 85.2995 281.687 85.1828C281.99 85.0662 282.317 85.0231 282.64 85.0573C282.963 85.0914 283.274 85.2017 283.547 85.3792C283.819 85.5566 284.046 85.7962 284.209 86.0784" stroke="#EF8A66" stroke-width="0.75" stroke-linecap="round" stroke-linejoin="round"/>
<path d="M281.537 85.2716C283.834 85.0536 283.485 88.5113 281.264 87.8725" stroke="#EF8A66" stroke-width="0.75" stroke-linecap="round" stroke-linejoin="round"/>
<path d="M260.813 92.9368C262.979 91.4817 265.874 92.2168 268.207 94.3056C271.309 97.0839 276.38 94.3056 276.38 94.3056" stroke="#9B621F" stroke-width="0.75" stroke-linecap="round" stroke-linejoin="round"/>
<path d="M278.677 89.9658C277.412 90.9798 272.604 93.7733 269.143 91.1927C265.681 88.6122 260.459 91.8468 260.459 91.8468" stroke="#9B621F" stroke-width="0.75" stroke-linecap="round" stroke-linejoin="round"/>
<path d="M260.555 88.4353C261.673 87.4213 265.747 85.2565 268.399 88.1463C271.051 91.0361 274.507 88.3947 274.507 88.3947" stroke="#9B621F" stroke-width="0.75" stroke-linecap="round" stroke-linejoin="round"/>
<path d="M265.18 84.1416C265.823 84.8463 270.418 86.4636 273.09 85.4851" stroke="#9B621F" stroke-width="0.75" stroke-linecap="round" stroke-linejoin="round"/>
<path d="M271.81 70.6799C271.527 69.2248 272.822 67.5162 273.87 67.4199" stroke="#9B621F" stroke-width="0.75" stroke-linecap="round" stroke-linejoin="round"/>
<path d="M274.857 71.0256C275.064 69.8697 276.441 67.0965 278.399 66.9697" stroke="#9B621F" stroke-width="0.75" stroke-linecap="round" stroke-linejoin="round"/>
<path d="M277.984 73.515C278.49 71.264 279.973 68.8406 282.331 67.8418" stroke="#9B621F" stroke-width="0.75" stroke-linecap="round" stroke-linejoin="round"/>
<path d="M280.18 76.3073C280.494 73.8484 283.89 71.8154 285.686 71.9421" stroke="#9B621F" stroke-width="0.75" stroke-linecap="round" stroke-linejoin="round"/>
<path d="M279.644 79.9279C281.845 78.0318 285.661 76.3537 287.675 76.2168" stroke="#9B621F" stroke-width="0.75" stroke-linecap="round" stroke-linejoin="round"/>
<path d="M267.554 84.7646C269.543 85.1956 271.77 84.9624 271.699 85.0536C271.628 85.1449 271.284 88.0956 269.108 87.7863C266.932 87.477 267.554 84.7646 267.554 84.7646Z" fill="#FCFCFC" stroke="#EF8A66" stroke-width="0.75" stroke-linecap="round" stroke-linejoin="round"/>
<path d="M210.596 94.3107C211.963 90.493 213.764 86.6196 214.604 87.1317C216.026 87.9987 213.207 95.421 213.207 95.421L210.596 94.3107Z" fill="#B25E47" stroke="#934735" stroke-width="0.75" stroke-miterlimit="10"/>
<path d="M208.835 95.1829C208.835 94.9446 209.675 84.0292 211.264 84.2776C213.42 84.6021 211.705 95.4314 211.705 95.4314L208.835 95.1829Z" fill="#B25E47" stroke="#934735" stroke-width="0.75" stroke-miterlimit="10"/>
<path d="M206.234 96.7243C206.173 85.7886 206.386 82.9748 207.712 82.9697C209.544 82.9697 209.781 95.5684 209.781 95.5684L206.234 96.7243Z" fill="#B25E47" stroke="#934735" stroke-width="0.75" stroke-miterlimit="10"/>
<path d="M212.352 96.0598C212.034 101.226 211.882 103.969 211.882 103.969C211.882 103.969 207.266 106.504 206.968 100.298C206.669 94.0927 212.352 96.0598 212.352 96.0598Z" fill="#B25E47" stroke="#934735" stroke-width="0.75" stroke-miterlimit="10"/>
<path d="M185.966 128.198C179.868 137.258 172.418 149.852 178.435 153.892C184.453 157.933 192.469 156.285 197.261 145.172C202.054 134.059 207.965 114.712 209.149 112.806C210.333 110.9 213.086 108.659 214.862 104.978C216.639 101.297 217.489 101.095 216.887 100.045C216.284 98.9957 214.786 99.3861 213.997 100.552C213.207 101.718 211.107 103.974 209.923 103.315C208.739 102.656 208.238 101.328 208.218 99.7005C208.197 98.073 209.164 96.3239 211.021 96.8917C212.879 97.4596 213.734 99.8982 215.308 99.0414C216.882 98.1846 213.536 94.8993 212.352 93.8447C211.168 92.7902 210.252 93.5152 208.304 94.1743C206.355 94.8334 205.743 94.8993 204.761 97.2162C203.779 99.5332 200.035 107.118 199.442 108.497C198.85 109.876 191.679 119.696 185.966 128.198Z" fill="#B25E47"/>
<path d="M214.862 104.993C216.634 101.307 217.489 101.109 216.887 100.06C216.284 99.0104 214.786 99.4008 213.997 100.567C213.208 101.733 211.107 103.989 209.923 103.33C208.739 102.671 208.238 101.343 208.218 99.7151C208.197 98.0877 209.164 96.3386 211.021 96.9064C212.879 97.4742 213.734 99.9128 215.308 99.056C216.882 98.1992 213.536 94.9139 212.352 93.8594C211.168 92.8049 210.252 93.5299 208.304 94.1889C206.355 94.848 205.743 94.9139 204.761 97.2309" stroke="#934735" stroke-width="0.75" stroke-linecap="round" stroke-linejoin="round"/>
<path d="M184.458 130.475C183.41 132.087 182.358 133.77 181.371 135.468" stroke="#934735" stroke-width="0.75" stroke-linecap="round" stroke-linejoin="round"/>
<path d="M92.3125 136.812C90.6425 139.413 94.0837 141.375 97.191 143.403C100.298 145.431 101.113 136.204 101.113 136.204C101.113 136.204 93.2335 135.377 92.3125 136.812Z" fill="#FCCF5C"/>
<path d="M185.272 125.541C186.325 126.332 184.766 128.963 181.775 131.888L179.321 128.715C179.321 128.715 182.818 124.633 185.272 125.541Z" fill="#FCCF5C"/>
<path d="M180.313 126.332C187.317 133.759 195.444 143.534 191.128 150.956C186.811 158.379 176.507 154.439 170.272 148.746C170.272 148.746 165.197 138.961 180.313 126.332Z" fill="#B25E47"/>
<path d="M97.1305 136.603C94.4382 142.591 86.6498 155.965 94.9038 161.481C103.158 166.997 113.198 147.646 113.198 147.646C113.198 147.646 110.131 136.076 97.1305 136.603Z" fill="#B25E47"/>
<path d="M185.272 125.541C179.623 129.732 175.197 135.362 172.454 141.846C171.47 144.056 170.739 146.371 170.273 148.746C168.653 147.57 164.827 144.69 164.827 144.69C164.544 146.48 164.174 148.538 163.815 150.617C162.707 156.584 161.432 162.668 161.432 162.668H123.573L122.935 160.133L117.986 140.482L113.198 147.636C113.102 147.519 113.006 147.407 112.9 147.301C107.333 141.273 92.3126 136.801 92.3126 136.801C96.3936 129.904 101.265 123.508 106.827 117.743C108.455 116.078 110.166 114.496 111.953 113.003C114.456 111.017 117.201 109.358 120.121 108.065C123.442 106.554 126.883 105.324 130.41 104.389C130.41 104.389 130.49 96.3182 131.371 86.7767C131.761 82.4723 140.48 81.6307 142.505 88.9516C144.529 96.2725 146.047 100.977 146.047 100.977C148.224 100.655 150.427 100.538 152.626 100.628C155.414 100.739 158.587 101.251 161.072 102.686C162.408 103.462 165.075 105.779 168.157 108.653C175.521 115.513 185.272 125.541 185.272 125.541Z" fill="#FCCF5C"/>
<path d="M172.454 141.846C171.47 144.057 170.739 146.372 170.273 148.746C168.653 147.57 164.827 144.691 164.827 144.691C165.96 139.135 166.52 133.478 166.497 127.808C166.484 125.312 165.888 122.853 164.756 120.629C168.269 122.611 171.184 124.771 169.478 129.476C167.864 133.836 168.112 141.116 172.454 141.846Z" fill="#FCCF5C"/>
<path d="M135.728 161.633L122.935 160.112L117.986 140.482C119.346 138.245 120.53 135.906 121.528 133.485C126.639 139.569 115.87 146.667 132.626 150.368C140.986 152.224 135.728 161.633 135.728 161.633Z" fill="#FCCF5C"/>
<path d="M168.172 108.664C163.734 109.07 159.423 112.456 156.715 121.506C151.837 137.816 134.003 135.899 127.869 124.614C123.067 115.772 117.151 114.778 106.817 117.754C108.445 116.089 110.156 114.507 111.943 113.014C114.446 111.028 117.19 109.368 120.111 108.076C123.432 106.565 126.873 105.335 130.399 104.4C130.399 104.4 130.48 96.3289 131.361 86.7874C131.751 82.4831 140.47 81.6415 142.495 88.9624C144.519 96.2833 146.037 100.988 146.037 100.988C148.214 100.666 150.417 100.549 152.616 100.638C155.404 100.75 158.577 101.262 161.062 102.697C162.418 103.472 165.085 105.789 168.172 108.664Z" fill="#FFE05C"/>
<path d="M152.636 100.639C152.717 106.109 147.985 109.765 142.555 110.622C137.125 111.478 128.117 110.84 120.121 108.087C123.442 106.575 126.883 105.346 130.409 104.411C130.409 104.411 130.49 96.3397 131.371 86.7981C131.761 82.4938 140.48 81.6522 142.505 88.9731C142.965 90.6208 143.4 92.1367 143.79 93.4955C144.625 96.3599 145.278 98.5349 145.662 99.7821C145.905 100.573 146.042 100.999 146.042 100.999C148.224 100.672 150.432 100.552 152.636 100.639Z" fill="#B25E47"/>
<path d="M145.673 99.7705C140.875 100.156 138.082 97.3065 138.117 93.499C138.117 93.499 141.477 93.499 143.8 93.499C144.635 96.3736 145.288 98.5233 145.673 99.7705Z" fill="#914839"/>
<path d="M165.693 223.162H113.866C113.866 223.162 111.766 197.376 114.919 183.662C116.193 178.152 117.885 172.747 119.98 167.494C120.893 165.141 121.923 162.834 123.067 160.584L161.437 162.673C161.821 164.224 162.171 165.836 162.494 167.494C167.003 190.846 165.693 223.162 165.693 223.162Z" fill="#5A0C94"/>
<mask id="mask0_782_4902" style="mask-type:luminance" maskUnits="userSpaceOnUse" x="113" y="160" width="53" height="64">
<path d="M165.693 223.162H113.866C113.866 223.162 111.766 197.376 114.919 183.662C116.193 178.152 117.885 172.747 119.98 167.494C120.893 165.141 121.923 162.834 123.067 160.584L161.437 162.673C161.821 164.224 162.171 165.836 162.494 167.494C167.003 190.846 165.693 223.162 165.693 223.162Z" fill="white"/>
</mask>
<g mask="url(#mask0_782_4902)">
<path d="M126.406 191.138C128.202 189.174 128.068 186.124 126.108 184.326C124.148 182.527 121.104 182.661 119.309 184.624C117.513 186.588 117.647 189.638 119.607 191.436C121.567 193.235 124.611 193.101 126.406 191.138Z" stroke="#FCFCFC" stroke-miterlimit="10"/>
<path d="M131.076 224.001C132.956 222.118 132.956 219.065 131.076 217.183C129.197 215.3 126.149 215.3 124.27 217.183C122.39 219.065 122.39 222.118 124.27 224.001C126.149 225.884 129.197 225.884 131.076 224.001Z" stroke="#FCFCFC" stroke-miterlimit="10"/>
<path d="M150.924 192.204C152.804 190.321 152.804 187.269 150.924 185.386C149.045 183.503 145.998 183.503 144.118 185.386C142.239 187.269 142.239 190.321 144.118 192.204C145.998 194.087 149.045 194.087 150.924 192.204Z" stroke="#FCFCFC" stroke-miterlimit="10"/>
<path d="M152.648 226.672C155.235 226.063 156.839 223.467 156.231 220.875C155.623 218.283 153.032 216.676 150.445 217.285C147.857 217.895 146.253 220.49 146.861 223.082C147.469 225.674 150.06 227.282 152.648 226.672Z" stroke="#FCFCFC" stroke-miterlimit="10"/>
<path d="M146.104 174.495C148.69 173.88 150.29 171.282 149.676 168.691C149.063 166.1 146.469 164.498 143.883 165.112C141.297 165.727 139.697 168.325 140.311 170.916C140.924 173.507 143.518 175.109 146.104 174.495Z" stroke="#FCFCFC" stroke-miterlimit="10"/>
<path d="M138.102 207.338C139.723 207.338 141.037 206.022 141.037 204.398C141.037 202.774 139.723 201.457 138.102 201.457C136.481 201.457 135.167 202.774 135.167 204.398C135.167 206.022 136.481 207.338 138.102 207.338Z" stroke="#FCFCFC" stroke-miterlimit="10"/>
<path d="M165.404 199.952C167.026 199.952 168.34 198.636 168.34 197.012C168.34 195.388 167.026 194.071 165.404 194.071C163.783 194.071 162.469 195.388 162.469 197.012C162.469 198.636 163.783 199.952 165.404 199.952Z" stroke="#FCFCFC" stroke-miterlimit="10"/>
<path d="M166.143 176.235C166.143 176.817 165.971 177.386 165.649 177.869C165.326 178.353 164.868 178.73 164.331 178.952C163.795 179.175 163.205 179.233 162.635 179.119C162.066 179.006 161.543 178.726 161.133 178.315C160.722 177.903 160.442 177.38 160.329 176.809C160.216 176.239 160.274 175.647 160.496 175.11C160.718 174.573 161.095 174.114 161.577 173.79C162.06 173.467 162.628 173.295 163.208 173.295C163.986 173.295 164.733 173.605 165.284 174.156C165.834 174.708 166.143 175.456 166.143 176.235Z" stroke="#FCFCFC" stroke-miterlimit="10"/>
<path d="M117.409 205.94C117.409 206.521 117.237 207.09 116.914 207.573C116.592 208.057 116.133 208.434 115.597 208.656C115.061 208.879 114.47 208.937 113.901 208.824C113.332 208.71 112.809 208.43 112.398 208.019C111.988 207.608 111.708 207.084 111.595 206.513C111.482 205.943 111.54 205.352 111.762 204.814C111.984 204.277 112.36 203.818 112.843 203.495C113.326 203.171 113.893 202.999 114.474 202.999C115.252 203 115.998 203.311 116.548 203.862C117.098 204.413 117.408 205.16 117.409 205.94Z" stroke="#FCFCFC" stroke-miterlimit="10"/>
<path d="M127.672 176.235C129.293 176.235 130.607 174.918 130.607 173.294C130.607 171.67 129.293 170.354 127.672 170.354C126.051 170.354 124.737 171.67 124.737 173.294C124.737 174.918 126.051 176.235 127.672 176.235Z" stroke="#FCFCFC" stroke-miterlimit="10"/>
</g>
<path d="M129.554 104.622C129.554 104.622 135.89 115.583 143.613 120.273C143.613 120.273 147.904 113.986 147.201 100.835" stroke="#683F1D" stroke-miterlimit="10"/>
<path d="M141.518 120.608C141.518 121.049 141.648 121.479 141.892 121.845C142.136 122.211 142.483 122.496 142.889 122.665C143.295 122.833 143.742 122.877 144.173 122.791C144.604 122.706 145 122.494 145.31 122.182C145.621 121.871 145.833 121.474 145.918 121.043C146.004 120.611 145.96 120.163 145.792 119.757C145.624 119.35 145.339 119.002 144.974 118.758C144.608 118.513 144.179 118.383 143.739 118.383C143.15 118.383 142.585 118.617 142.169 119.035C141.752 119.452 141.518 120.018 141.518 120.608Z" fill="#FCFCFC"/>
<path d="M164.827 144.696C165.96 139.139 166.52 133.48 166.497 127.808C166.484 125.312 165.888 122.853 164.756 120.629C163.815 118.601 162.798 116.741 162.585 114.241" stroke="#FCCF5C" stroke-width="0.75" stroke-linecap="round" stroke-linejoin="round"/>
<path d="M122.176 131.93C122.176 131.93 121.938 132.548 121.533 133.496C120.535 135.917 119.351 138.256 117.991 140.493" stroke="#FCCF5C" stroke-width="0.75" stroke-linecap="round" stroke-linejoin="round"/>
<path d="M162.449 167.494H119.939C120.852 165.141 121.883 162.834 123.026 160.584L161.437 162.673C161.796 164.224 162.145 165.831 162.449 167.494Z" fill="#5A0C94"/>
<path d="M145.561 167.494V179.089" stroke="#5A0C94" stroke-width="0.75" stroke-linecap="round" stroke-linejoin="round"/>
<path d="M146.452 179.87C147.656 179.206 148.35 178.892 148.476 178.162C148.603 177.432 149.205 169.381 149.205 169.381" stroke="#5A0C94" stroke-width="0.75" stroke-linecap="round" stroke-linejoin="round"/>
<path d="M144.989 223.162C144.989 223.162 145.293 190.831 145.546 189.361C145.545 189.346 145.545 189.33 145.546 189.315C145.804 188.833 146.325 188.119 149.19 186.44" stroke="#5A0C94" stroke-width="0.75" stroke-linecap="round" stroke-linejoin="round"/>
<path d="M128.213 86.9344C125.946 86.7164 124.519 87.6493 123.461 89.5809C122.403 91.5125 121.067 93.4391 121.067 93.4391C121.067 93.4391 123.82 94.5646 126.507 91.5075C129.007 88.6582 128.213 86.9344 128.213 86.9344Z" fill="#FCCF5C"/>
<path d="M129.868 87.8164C127.307 88.5008 126.108 89.5351 125.647 92.6429C125.187 95.7508 125.349 97.1754 125.02 98.3466C125.02 98.3466 128.299 97.5861 129.868 94.6354C131.361 91.8115 130.981 90.0015 129.868 87.8164Z" fill="#FCCF5C"/>
<path d="M133.096 71.2278C133.096 71.2278 130.627 76.6018 130.566 81.109C130.528 82.1284 130.679 83.1461 131.011 84.1103L128.274 84.4297C125.931 86.6858 121.695 85.9101 123.213 83.0304C120.683 84.6122 117.368 82.4474 119.013 80.1609C117.044 80.6273 116.042 77.4384 118.577 76.612C116.467 76.3838 116.047 72.6118 118.906 72.3938C118.657 72.1345 118.486 71.8099 118.412 71.4573C118.339 71.1048 118.367 70.7387 118.492 70.4012C118.617 70.0636 118.835 69.7685 119.121 69.5497C119.406 69.3308 119.748 69.1973 120.106 69.1643C120.404 69.1555 120.7 69.2148 120.972 69.3378C121.244 69.4608 121.484 69.6442 121.674 69.8741C120.45 65.4532 125.627 64.0437 127.216 66.3657C127.494 64.495 130.996 64.3023 131.518 66.7156C134.159 65.2554 135.88 68.8044 133.096 71.2278Z" fill="#604730"/>
<path d="M131.032 84.1101L128.294 84.4295C125.951 86.6856 121.715 85.9099 123.233 83.0302C120.703 84.612 117.388 82.4472 119.033 80.1606C117.064 80.6271 116.062 77.4381 118.597 76.6117C116.487 76.3836 116.067 72.6116 118.926 72.3936C118.677 72.1343 118.506 71.8096 118.433 71.4571C118.359 71.1045 118.387 70.7384 118.512 70.4009C118.638 70.0634 118.856 69.7682 119.141 69.5494C119.426 69.3306 119.768 69.197 120.126 69.1641C119.944 70.7256 120.632 72.9361 122.15 73.0882C120.075 73.8537 120.09 76.3177 122.15 77.1846C120.86 78.6194 122.793 80.6372 124.407 79.5016C124.346 81.0834 126.72 83.6589 130.556 81.0834C130.524 82.1132 130.686 83.1398 131.032 84.1101Z" fill="#473526"/>
<path d="M146.158 96.0441C138.805 97.0581 132.388 88.7638 132.388 88.7638C129.033 89.94 126.431 87.329 127.479 84.7079C127.668 84.2209 127.989 83.7962 128.405 83.481C128.742 83.2284 129.131 83.0551 129.544 82.974C129.861 82.914 130.185 82.902 130.505 82.9385C131.12 83.0089 131.707 83.2341 132.211 83.5932C132.716 83.9522 133.121 84.4334 133.39 84.9918C133.623 85.3974 135.186 85.3264 134.488 83.5418C133.876 81.9904 133.208 82.107 133.208 82.107C134.22 81.7876 133.415 79.5163 132.196 79.8408C133.208 79.4048 133.562 77.4833 132.428 76.7989C133.648 76.733 134.984 76.2463 134.488 74.3856C134.712 74.6573 135.011 74.8578 135.347 74.9629C135.683 75.0679 136.042 75.073 136.38 74.9774C136.719 74.8818 137.023 74.6897 137.255 74.4244C137.487 74.1592 137.637 73.8322 137.686 73.4832C137.912 73.7033 138.196 73.8532 138.504 73.9147C138.813 73.9762 139.132 73.9466 139.424 73.8296C139.716 73.7125 139.968 73.5131 140.149 73.2554C140.33 72.9977 140.433 72.6929 140.444 72.3779C140.596 73.0624 141.396 73.2652 142.028 72.8849C143.456 74.4466 144.727 76.1447 145.824 77.9548L145.864 78.0207C146.482 78.984 147.064 79.9574 147.59 80.9258C151.583 88.2619 152.631 95.1468 146.158 96.0441Z" fill="#B25E47"/>
<path d="M137.271 82.2049C137.003 83.1124 135.358 83.4217 133.602 82.8995C131.846 82.3773 130.632 81.2163 130.9 80.3088C131.168 79.4013 132.813 79.0971 134.569 79.6193C136.325 80.1415 137.54 81.3025 137.271 82.2049Z" fill="#A0503D"/>
<path d="M147.62 80.9607C146.897 81.4677 146.183 81.6299 145.718 81.3055C145.014 80.8289 145.115 79.4397 145.895 78.0557C146.512 79.0189 147.094 79.9924 147.62 80.9607Z" fill="#A0503D"/>
<path d="M130.51 82.9697C130.19 82.9332 129.866 82.9452 129.549 83.0052C129.136 83.0863 128.747 83.2596 128.41 83.5122C126.072 76.6273 132.236 73.124 132.236 73.124C129.888 76.5462 130.252 81.1649 130.51 82.9697Z" fill="#FCFCFC"/>
<path d="M142.53 77.8844C142.529 78.0186 142.567 78.15 142.641 78.2622C142.714 78.3743 142.819 78.4622 142.942 78.5146C143.066 78.5671 143.202 78.5819 143.333 78.5571C143.465 78.5322 143.586 78.4689 143.682 78.3751C143.778 78.2813 143.844 78.1613 143.871 78.03C143.899 77.8988 143.887 77.7623 143.838 77.6377C143.788 77.5131 143.703 77.406 143.592 77.3299C143.482 77.2538 143.352 77.2121 143.218 77.2101C143.128 77.2081 143.039 77.2241 142.956 77.257C142.872 77.29 142.796 77.3394 142.732 77.4022C142.668 77.465 142.617 77.54 142.582 77.6228C142.548 77.7056 142.53 77.7946 142.53 77.8844Z" fill="#683F1D"/>
<path d="M138.117 79.32C138.117 79.4544 138.156 79.5857 138.231 79.6974C138.305 79.8091 138.411 79.8962 138.535 79.9476C138.659 79.9991 138.795 80.0125 138.927 79.9863C139.059 79.9601 139.179 79.8954 139.274 79.8004C139.369 79.7054 139.434 79.5843 139.46 79.4525C139.486 79.3207 139.473 79.1841 139.421 79.06C139.37 78.9359 139.283 78.8298 139.171 78.7551C139.06 78.6805 138.929 78.6406 138.795 78.6406C138.706 78.6406 138.617 78.6582 138.535 78.6923C138.453 78.7265 138.378 78.7765 138.315 78.8396C138.252 78.9027 138.202 78.9776 138.168 79.06C138.134 79.1424 138.117 79.2308 138.117 79.32Z" fill="#683F1D"/>
<path d="M142.631 72.2416C142.506 72.5124 142.308 72.7426 142.059 72.9058C141.426 73.3063 140.627 73.1035 140.475 72.3988C140.463 72.7137 140.361 73.0185 140.18 73.2762C139.999 73.5339 139.747 73.7334 139.455 73.8504C139.163 73.9675 138.843 73.9971 138.535 73.9356C138.226 73.8741 137.942 73.7242 137.717 73.504C137.667 73.8531 137.517 74.1801 137.285 74.4453C137.053 74.7106 136.75 74.9027 136.411 74.9983C136.072 75.0938 135.713 75.0888 135.377 74.9837C135.041 74.8787 134.743 74.6781 134.518 74.4065C135.025 76.2671 133.678 76.7538 132.459 76.8197C133.592 77.494 133.213 79.4155 132.226 79.8617C133.42 79.5372 134.25 81.8085 133.238 82.1279C133.238 82.1279 133.906 82.0113 134.518 83.5627C135.217 85.3473 133.653 85.4183 133.42 85.0127C133.086 84.3024 132.529 83.7204 131.836 83.3546C131.142 82.9888 130.348 82.859 129.574 82.9847C129.241 81.5869 129.174 80.1386 129.377 78.7159C129.693 76.5753 130.705 74.599 132.256 73.0934C131.163 71.3595 133.223 69.0932 134.944 70.4013C134.721 68.8245 137.433 67.8258 138.461 69.7118C139.053 68.0184 141.568 69.0527 141.285 70.3049C142.104 69.8588 143.218 71.0249 142.631 72.2416Z" fill="#604730"/>
<path d="M140.116 77.21C141.781 80.7842 144.306 78.8273 144.944 81.5244" stroke="#934735" stroke-width="0.75" stroke-linecap="round" stroke-linejoin="round"/>
<path d="M138.709 83.1924C141.593 84.0086 143.607 83.4763 144.083 83.1924C144.083 83.1924 144.366 85.7577 141.786 85.5499C141.09 85.5336 140.417 85.2966 139.864 84.873C139.311 84.4493 138.907 83.8609 138.709 83.1924Z" fill="#FCFCFC" stroke="#934735" stroke-width="0.75" stroke-linecap="round" stroke-linejoin="round"/>
<path d="M128.992 86.1277C129.352 84.3076 132.186 84.3279 132.712 86.9338" stroke="#934735" stroke-width="0.75" stroke-linecap="round" stroke-linejoin="round"/>
<path d="M131.275 87.8162C129.691 87.4055 130.44 85.0024 132.17 85.6919" stroke="#934735" stroke-width="0.75" stroke-linecap="round" stroke-linejoin="round"/>
<path d="M135.748 77.7074C135.622 78.5541 138.785 76.7239 138.132 75.6795C137.479 74.6351 135.865 76.8861 135.748 77.7074Z" fill="#604730"/>
<path d="M143.8 74.5989C144.458 75.1465 140.88 75.912 140.688 74.7105C140.495 73.5089 143.162 74.0666 143.8 74.5989Z" fill="#604730"/>
<path d="M112.945 148.152C110.369 147.64 107.767 147.267 105.151 147.037" stroke="#934735" stroke-width="0.75" stroke-linecap="round" stroke-linejoin="round"/>
<path d="M105.151 147.038C95.8599 146.216 89.028 153.993 93.1727 159.956C98.4156 167.495 131.978 165.568 135.424 165.482C137.611 165.431 137.449 167.043 140.794 167.358C142.818 167.555 145.915 167.566 146.568 167.236C147.059 166.906 147.455 166.453 147.717 165.923C147.717 165.923 149.63 166.688 150.394 164.498C150.394 164.498 152.342 164.939 152.661 162.197C152.661 162.197 153.84 163.667 154.928 163.129C156.173 162.516 156.35 161.608 155.475 160.447C154.599 159.286 150.996 155.185 149.797 154.754C148.597 154.323 139.589 155.92 138.051 155.575C130.323 153.846 119.746 148.325 105.151 147.038Z" fill="#B25E47"/>
<path d="M144.468 167.489C145.177 167.515 145.885 167.43 146.568 167.236C147.059 166.906 147.455 166.453 147.717 165.923C147.717 165.923 149.63 166.688 150.394 164.498C150.394 164.498 152.342 164.939 152.661 162.196C152.661 162.196 153.84 163.667 154.928 163.129C156.173 162.516 156.35 161.608 155.475 160.447C154.599 159.286 150.996 155.185 149.797 154.754" stroke="#934735" stroke-width="0.75" stroke-linecap="round" stroke-linejoin="round"/>
<path d="M152.909 162.47L150.166 159.459" stroke="#934735" stroke-width="0.75" stroke-linecap="round" stroke-linejoin="round"/>
<path d="M150.394 164.498L147.519 162.673" stroke="#934735" stroke-width="0.75" stroke-linecap="round" stroke-linejoin="round"/>
<path d="M147.717 165.923L145.753 165.319" stroke="#934735" stroke-width="0.75" stroke-linecap="round" stroke-linejoin="round"/>
<path d="M322.931 220H5.06902C2.26948 220 0 222.491 0 225.564V226.436C0 229.509 2.26948 232 5.06902 232H322.931C325.731 232 328 229.509 328 226.436V225.564C328 222.491 325.731 220 322.931 220Z" fill="#EDEDED"/>
<path d="M9.88367 231.406C18.1832 227.431 30.4959 226.554 39.8784 231.406" stroke="#DEDEDE" stroke-width="0.75" stroke-linecap="round" stroke-linejoin="round"/>
<path d="M7.01917 220.587C15.2023 225.15 20.6426 224.78 30.7386 224.643C38.2588 224.546 47.3124 228.384 53.3397 231.401" stroke="#DEDEDE" stroke-width="0.75" stroke-linecap="round" stroke-linejoin="round"/>
<path d="M45.8601 220.587C51.7963 227.274 55.9157 228.111 57.9096 226.387C60.025 224.557 62.2011 224.06 64.448 225.991C67.0492 228.232 70.6676 223.695 72.702 220.587" stroke="#DEDEDE" stroke-width="0.75" stroke-linecap="round" stroke-linejoin="round"/>
<path d="M69.0078 231.407C71.4066 229.191 75.6829 226.453 82.3427 225.997C90.2374 225.49 100.268 229.13 105.622 231.407" stroke="#DEDEDE" stroke-width="0.75" stroke-linecap="round" stroke-linejoin="round"/>
<path d="M95.2572 220.587C104.518 225.454 114.64 228.303 122.818 225.991C130.798 223.745 149.857 226.544 156.79 220.587" stroke="#DEDEDE" stroke-width="0.75" stroke-linecap="round" stroke-linejoin="round"/>
<path d="M130.384 231.406C136.315 228.024 145.566 225.956 152.762 231.406" stroke="#DEDEDE" stroke-width="0.75" stroke-linecap="round" stroke-linejoin="round"/>
<path d="M162.954 231.406C173.981 222.817 195.995 221.266 214.381 225.951C236.142 231.502 245.899 225.094 249.851 220.592" stroke="#DEDEDE" stroke-width="0.75" stroke-linecap="round" stroke-linejoin="round"/>
<path d="M182.782 231.406C190.768 227.811 201.507 227.071 212.848 231.406" stroke="#DEDEDE" stroke-width="0.75" stroke-linecap="round" stroke-linejoin="round"/>
<path d="M252.392 231.406C265.762 225.17 276.461 225.895 286.379 231.406" stroke="#DEDEDE" stroke-width="0.75" stroke-linecap="round" stroke-linejoin="round"/>
<path d="M271.253 220.587C293.282 227.999 311.511 233.738 323.52 223.68" stroke="#DEDEDE" stroke-width="0.75" stroke-linecap="round" stroke-linejoin="round"/>
<path d="M288.824 220.587C300.003 227.178 313.06 226.671 321.096 221.18" stroke="#DEDEDE" stroke-width="0.75" stroke-linecap="round" stroke-linejoin="round"/>
<rect x="7.64709" y="160.098" width="113" height="39" rx="15.5" fill="#FCFCFC"/>
<rect x="7.64709" y="160.098" width="113" height="39" rx="15.5" stroke="#C3C3C3"/>
<path d="M28.3229 174.318C28.3229 174.826 28.1959 175.26 27.942 175.619C27.692 175.975 27.3405 176.246 26.8873 176.434C26.4342 176.621 25.901 176.715 25.2877 176.715C24.9635 176.715 24.6569 176.699 24.3678 176.668C24.0787 176.637 23.8131 176.592 23.5709 176.533C23.3287 176.475 23.1158 176.402 22.9323 176.316V175.361C23.2252 175.482 23.5826 175.596 24.0045 175.701C24.4264 175.803 24.8678 175.854 25.3287 175.854C25.7584 175.854 26.1217 175.797 26.4186 175.684C26.7155 175.566 26.9401 175.4 27.0924 175.186C27.2487 174.967 27.3268 174.705 27.3268 174.4C27.3268 174.107 27.2623 173.863 27.1334 173.668C27.0045 173.469 26.7897 173.289 26.4889 173.129C26.192 172.965 25.7858 172.791 25.2701 172.607C24.9069 172.479 24.5865 172.338 24.3092 172.186C24.0319 172.029 23.7994 171.854 23.6119 171.658C23.4244 171.463 23.2819 171.236 23.1842 170.979C23.0905 170.721 23.0436 170.426 23.0436 170.094C23.0436 169.637 23.1588 169.246 23.3893 168.922C23.6237 168.594 23.9459 168.344 24.3561 168.172C24.7701 167.996 25.2448 167.908 25.7799 167.908C26.2369 167.908 26.6588 167.951 27.0455 168.037C27.4362 168.123 27.7936 168.238 28.1178 168.383L27.8073 169.238C27.4987 169.109 27.1705 169.002 26.8229 168.916C26.4791 168.83 26.1237 168.787 25.7565 168.787C25.3893 168.787 25.0787 168.842 24.8248 168.951C24.5748 169.057 24.3834 169.207 24.2506 169.402C24.1178 169.598 24.0514 169.83 24.0514 170.1C24.0514 170.4 24.1139 170.65 24.2389 170.85C24.3678 171.049 24.5709 171.227 24.8483 171.383C25.1295 171.535 25.5006 171.695 25.9615 171.863C26.4655 172.047 26.8932 172.242 27.2448 172.449C27.5963 172.652 27.8639 172.902 28.0475 173.199C28.2311 173.492 28.3229 173.865 28.3229 174.318ZM32.5006 176.715C31.9225 176.715 31.4127 176.596 30.9713 176.357C30.5299 176.119 30.1862 175.756 29.9401 175.268C29.694 174.779 29.5709 174.164 29.5709 173.422C29.5709 172.645 29.6998 172.01 29.9576 171.518C30.2194 171.021 30.5787 170.654 31.0358 170.416C31.4928 170.178 32.0123 170.059 32.5944 170.059C32.9147 170.059 33.2233 170.092 33.5201 170.158C33.8209 170.221 34.067 170.301 34.2584 170.398L33.9655 171.213C33.7701 171.135 33.5436 171.064 33.2858 171.002C33.0319 170.939 32.7936 170.908 32.5709 170.908C32.1256 170.908 31.7545 171.004 31.4576 171.195C31.1647 171.387 30.944 171.668 30.7955 172.039C30.651 172.41 30.5787 172.867 30.5787 173.41C30.5787 173.93 30.649 174.373 30.7897 174.74C30.9342 175.107 31.1471 175.389 31.4283 175.584C31.7135 175.775 32.069 175.871 32.4948 175.871C32.8346 175.871 33.1412 175.836 33.4147 175.766C33.6881 175.691 33.9362 175.605 34.1588 175.508V176.375C33.944 176.484 33.7037 176.568 33.4381 176.627C33.1764 176.686 32.8639 176.715 32.5006 176.715ZM38.6002 170.059C38.7291 170.059 38.8639 170.066 39.0045 170.082C39.1451 170.094 39.2701 170.111 39.3795 170.135L39.2565 171.037C39.151 171.01 39.0338 170.988 38.9049 170.973C38.776 170.957 38.6549 170.949 38.5416 170.949C38.2838 170.949 38.0397 171.002 37.8092 171.107C37.5826 171.209 37.3834 171.357 37.2115 171.553C37.0397 171.744 36.9049 171.977 36.8073 172.25C36.7096 172.52 36.6608 172.82 36.6608 173.152V176.598H35.6823V170.176H36.4908L36.5963 171.359H36.6373C36.7701 171.121 36.9303 170.904 37.1178 170.709C37.3053 170.51 37.5221 170.352 37.7682 170.234C38.0182 170.117 38.2955 170.059 38.6002 170.059ZM45.8951 170.176V176.598H45.0983L44.9576 175.695H44.9049C44.7721 175.918 44.6002 176.105 44.3893 176.258C44.1783 176.41 43.9401 176.523 43.6744 176.598C43.4127 176.676 43.1334 176.715 42.8365 176.715C42.3287 176.715 41.903 176.633 41.5592 176.469C41.2155 176.305 40.9557 176.051 40.7799 175.707C40.608 175.363 40.5221 174.922 40.5221 174.383V170.176H41.5065V174.312C41.5065 174.848 41.6276 175.248 41.8698 175.514C42.1119 175.775 42.4811 175.906 42.9772 175.906C43.4537 175.906 43.8326 175.816 44.1139 175.637C44.399 175.457 44.6041 175.193 44.7291 174.846C44.8541 174.494 44.9166 174.064 44.9166 173.557V170.176H45.8951ZM54.9244 170.059C55.6315 170.059 56.1647 170.244 56.524 170.615C56.8834 170.982 57.0631 171.574 57.0631 172.391V176.598H56.1022V172.438C56.1022 171.918 55.9889 171.529 55.7623 171.271C55.5397 171.01 55.2076 170.879 54.7662 170.879C54.1451 170.879 53.694 171.059 53.4127 171.418C53.1315 171.777 52.9908 172.307 52.9908 173.006V176.598H52.024V172.438C52.024 172.09 51.9733 171.801 51.8717 171.57C51.774 171.34 51.6256 171.168 51.4264 171.055C51.2311 170.938 50.983 170.879 50.6823 170.879C50.2565 170.879 49.9147 170.967 49.6569 171.143C49.399 171.318 49.2115 171.58 49.0944 171.928C48.9811 172.271 48.9244 172.695 48.9244 173.199V176.598H47.9518V170.176H48.7369L48.8834 171.084H48.9362C49.0651 170.861 49.2272 170.674 49.4225 170.521C49.6178 170.369 49.8365 170.254 50.0787 170.176C50.3209 170.098 50.5787 170.059 50.8522 170.059C51.3405 170.059 51.7487 170.15 52.0768 170.334C52.4088 170.514 52.649 170.789 52.7975 171.16H52.8502C53.0612 170.789 53.3502 170.514 53.7174 170.334C54.0846 170.15 54.4869 170.059 54.9244 170.059ZM66.0924 176.598L63.2155 169.016H63.1686C63.1842 169.176 63.1979 169.371 63.2096 169.602C63.2213 169.832 63.2311 170.084 63.2389 170.357C63.2467 170.627 63.2506 170.902 63.2506 171.184V176.598H62.3248V168.031H63.8014L66.5143 175.156H66.5553L69.3092 168.031H70.774V176.598H69.7897V171.113C69.7897 170.859 69.7936 170.605 69.8014 170.352C69.8092 170.094 69.819 169.852 69.8307 169.625C69.8424 169.395 69.8541 169.195 69.8658 169.027H69.819L66.9069 176.598H66.0924ZM75.3737 170.07C76.1393 170.07 76.7076 170.242 77.0787 170.586C77.4498 170.93 77.6354 171.479 77.6354 172.232V176.598H76.9264L76.7389 175.648H76.692C76.5123 175.883 76.3248 176.08 76.1295 176.24C75.9342 176.396 75.7076 176.516 75.4498 176.598C75.1959 176.676 74.8834 176.715 74.5123 176.715C74.1217 176.715 73.774 176.646 73.4694 176.51C73.1686 176.373 72.9303 176.166 72.7545 175.889C72.5826 175.611 72.4967 175.26 72.4967 174.834C72.4967 174.193 72.7506 173.701 73.2584 173.357C73.7662 173.014 74.5397 172.826 75.5787 172.795L76.6862 172.748V172.355C76.6862 171.801 76.567 171.412 76.3287 171.189C76.0905 170.967 75.7545 170.855 75.3209 170.855C74.985 170.855 74.6647 170.904 74.36 171.002C74.0553 171.1 73.7662 171.215 73.4928 171.348L73.194 170.609C73.483 170.461 73.8151 170.334 74.1901 170.229C74.5651 170.123 74.9596 170.07 75.3737 170.07ZM76.6744 173.434L75.6959 173.475C74.8951 173.506 74.3307 173.637 74.0026 173.867C73.6744 174.098 73.5104 174.424 73.5104 174.846C73.5104 175.213 73.6217 175.484 73.8444 175.66C74.067 175.836 74.3619 175.924 74.7291 175.924C75.2994 175.924 75.7662 175.766 76.1295 175.449C76.4928 175.133 76.6744 174.658 76.6744 174.025V173.434ZM83.7936 174.84C83.7936 175.25 83.6901 175.596 83.483 175.877C83.2799 176.154 82.9869 176.363 82.6041 176.504C82.2252 176.645 81.7721 176.715 81.2448 176.715C80.7955 176.715 80.4069 176.68 80.0787 176.609C79.7506 176.539 79.4635 176.439 79.2174 176.311V175.414C79.4791 175.543 79.7916 175.66 80.1549 175.766C80.5182 175.871 80.8893 175.924 81.2682 175.924C81.8229 175.924 82.2252 175.834 82.4752 175.654C82.7252 175.475 82.8502 175.23 82.8502 174.922C82.8502 174.746 82.7994 174.592 82.6979 174.459C82.6002 174.322 82.4342 174.191 82.1998 174.066C81.9655 173.938 81.6412 173.797 81.2272 173.645C80.817 173.488 80.4615 173.334 80.1608 173.182C79.8639 173.025 79.6334 172.836 79.4694 172.613C79.3092 172.391 79.2291 172.102 79.2291 171.746C79.2291 171.203 79.4479 170.787 79.8854 170.498C80.3268 170.205 80.9049 170.059 81.6198 170.059C82.0065 170.059 82.3678 170.098 82.7037 170.176C83.0436 170.25 83.36 170.352 83.653 170.48L83.3248 171.26C83.0592 171.146 82.776 171.051 82.4752 170.973C82.1744 170.895 81.8678 170.855 81.5553 170.855C81.1061 170.855 80.7604 170.93 80.5182 171.078C80.2799 171.227 80.1608 171.43 80.1608 171.688C80.1608 171.887 80.2155 172.051 80.3248 172.18C80.4381 172.309 80.6178 172.43 80.8639 172.543C81.11 172.656 81.4342 172.789 81.8365 172.941C82.2389 173.09 82.5865 173.244 82.8795 173.404C83.1725 173.561 83.3971 173.752 83.5533 173.979C83.7135 174.201 83.7936 174.488 83.7936 174.84ZM87.4323 175.918C87.5924 175.918 87.7565 175.904 87.9244 175.877C88.0924 175.85 88.2291 175.816 88.3346 175.777V176.533C88.2213 176.584 88.0631 176.627 87.86 176.662C87.6608 176.697 87.4655 176.715 87.274 176.715C86.9342 176.715 86.6256 176.656 86.3483 176.539C86.0709 176.418 85.8483 176.215 85.6803 175.93C85.5162 175.645 85.4342 175.25 85.4342 174.746V170.938H84.5201V170.463L85.4401 170.082L85.8268 168.688H86.4127V170.176H88.2936V170.938H86.4127V174.717C86.4127 175.119 86.5045 175.42 86.6881 175.619C86.8756 175.818 87.1237 175.918 87.4323 175.918ZM92.108 170.059C92.6549 170.059 93.1237 170.18 93.5143 170.422C93.9049 170.664 94.2037 171.004 94.4108 171.441C94.6178 171.875 94.7213 172.383 94.7213 172.965V173.568H90.2858C90.2975 174.322 90.485 174.896 90.8483 175.291C91.2115 175.686 91.7233 175.883 92.3834 175.883C92.7897 175.883 93.149 175.846 93.4615 175.771C93.774 175.697 94.0983 175.588 94.4342 175.443V176.299C94.11 176.443 93.7877 176.549 93.4674 176.615C93.151 176.682 92.776 176.715 92.3424 176.715C91.7252 176.715 91.1862 176.59 90.7252 176.34C90.2682 176.086 89.9127 175.715 89.6588 175.227C89.4049 174.738 89.278 174.141 89.278 173.434C89.278 172.742 89.3932 172.145 89.6237 171.641C89.858 171.133 90.1862 170.742 90.608 170.469C91.0338 170.195 91.5338 170.059 92.108 170.059ZM92.0963 170.855C91.5768 170.855 91.1627 171.025 90.8541 171.365C90.5455 171.705 90.3619 172.18 90.3033 172.789H93.7018C93.6979 172.406 93.6373 172.07 93.5201 171.781C93.4069 171.488 93.233 171.262 92.9987 171.102C92.7643 170.938 92.4635 170.855 92.0963 170.855ZM99.2916 170.059C99.4205 170.059 99.5553 170.066 99.6959 170.082C99.8365 170.094 99.9615 170.111 100.071 170.135L99.9479 171.037C99.8424 171.01 99.7252 170.988 99.5963 170.973C99.4674 170.957 99.3463 170.949 99.233 170.949C98.9752 170.949 98.7311 171.002 98.5006 171.107C98.274 171.209 98.0748 171.357 97.903 171.553C97.7311 171.744 97.5963 171.977 97.4987 172.25C97.401 172.52 97.3522 172.82 97.3522 173.152V176.598H96.3737V170.176H97.1823L97.2877 171.359H97.3287C97.4615 171.121 97.6217 170.904 97.8092 170.709C97.9967 170.51 98.2135 170.352 98.4596 170.234C98.7096 170.117 98.9869 170.059 99.2916 170.059ZM105.438 174.84C105.438 175.25 105.335 175.596 105.128 175.877C104.924 176.154 104.631 176.363 104.249 176.504C103.87 176.645 103.417 176.715 102.889 176.715C102.44 176.715 102.051 176.68 101.723 176.609C101.395 176.539 101.108 176.439 100.862 176.311V175.414C101.124 175.543 101.436 175.66 101.799 175.766C102.163 175.871 102.534 175.924 102.913 175.924C103.467 175.924 103.87 175.834 104.12 175.654C104.37 175.475 104.495 175.23 104.495 174.922C104.495 174.746 104.444 174.592 104.342 174.459C104.245 174.322 104.079 174.191 103.844 174.066C103.61 173.938 103.286 173.797 102.872 173.645C102.462 173.488 102.106 173.334 101.805 173.182C101.508 173.025 101.278 172.836 101.114 172.613C100.954 172.391 100.874 172.102 100.874 171.746C100.874 171.203 101.092 170.787 101.53 170.498C101.971 170.205 102.549 170.059 103.264 170.059C103.651 170.059 104.012 170.098 104.348 170.176C104.688 170.25 105.005 170.352 105.297 170.48L104.969 171.26C104.704 171.146 104.421 171.051 104.12 170.973C103.819 170.895 103.512 170.855 103.2 170.855C102.751 170.855 102.405 170.93 102.163 171.078C101.924 171.227 101.805 171.43 101.805 171.688C101.805 171.887 101.86 172.051 101.969 172.18C102.083 172.309 102.262 172.43 102.508 172.543C102.755 172.656 103.079 172.789 103.481 172.941C103.883 173.09 104.231 173.244 104.524 173.404C104.817 173.561 105.042 173.752 105.198 173.979C105.358 174.201 105.438 174.488 105.438 174.84ZM52.399 189.311C52.399 188.65 52.4615 188.008 52.5865 187.383C52.7155 186.758 52.9108 186.162 53.1725 185.596C53.4342 185.029 53.7643 184.508 54.1627 184.031H55.0944C54.528 184.773 54.1022 185.598 53.817 186.504C53.5319 187.41 53.3893 188.342 53.3893 189.299C53.3893 189.924 53.4518 190.541 53.5768 191.15C53.7057 191.756 53.8951 192.34 54.1451 192.902C54.399 193.465 54.7115 193.996 55.0826 194.496H54.1627C53.7643 194.027 53.4342 193.516 53.1725 192.961C52.9108 192.41 52.7155 191.826 52.5865 191.209C52.4615 190.592 52.399 189.959 52.399 189.311ZM61.4635 190.318C61.4635 190.826 61.3365 191.26 61.0826 191.619C60.8326 191.975 60.4811 192.246 60.028 192.434C59.5748 192.621 59.0416 192.715 58.4283 192.715C58.1041 192.715 57.7975 192.699 57.5084 192.668C57.2194 192.637 56.9537 192.592 56.7115 192.533C56.4694 192.475 56.2565 192.402 56.0729 192.316V191.361C56.3658 191.482 56.7233 191.596 57.1451 191.701C57.567 191.803 58.0084 191.854 58.4694 191.854C58.899 191.854 59.2623 191.797 59.5592 191.684C59.8561 191.566 60.0807 191.4 60.233 191.186C60.3893 190.967 60.4674 190.705 60.4674 190.4C60.4674 190.107 60.403 189.863 60.274 189.668C60.1451 189.469 59.9303 189.289 59.6295 189.129C59.3326 188.965 58.9264 188.791 58.4108 188.607C58.0475 188.479 57.7272 188.338 57.4498 188.186C57.1725 188.029 56.9401 187.854 56.7526 187.658C56.5651 187.463 56.4225 187.236 56.3248 186.979C56.2311 186.721 56.1842 186.426 56.1842 186.094C56.1842 185.637 56.2994 185.246 56.5299 184.922C56.7643 184.594 57.0865 184.344 57.4967 184.172C57.9108 183.996 58.3854 183.908 58.9205 183.908C59.3776 183.908 59.7994 183.951 60.1862 184.037C60.5768 184.123 60.9342 184.238 61.2584 184.383L60.9479 185.238C60.6393 185.109 60.3112 185.002 59.9635 184.916C59.6198 184.83 59.2643 184.787 58.8971 184.787C58.5299 184.787 58.2194 184.842 57.9655 184.951C57.7155 185.057 57.524 185.207 57.3912 185.402C57.2584 185.598 57.192 185.83 57.192 186.1C57.192 186.4 57.2545 186.65 57.3795 186.85C57.5084 187.049 57.7115 187.227 57.9889 187.383C58.2701 187.535 58.6412 187.695 59.1022 187.863C59.6061 188.047 60.0338 188.242 60.3854 188.449C60.7369 188.652 61.0045 188.902 61.1881 189.199C61.3717 189.492 61.4635 189.865 61.4635 190.318ZM66.983 192.598L64.1061 185.016H64.0592C64.0748 185.176 64.0885 185.371 64.1002 185.602C64.1119 185.832 64.1217 186.084 64.1295 186.357C64.1373 186.627 64.1412 186.902 64.1412 187.184V192.598H63.2155V184.031H64.692L67.4049 191.156H67.4459L70.1998 184.031H71.6647V192.598H70.6803V187.113C70.6803 186.859 70.6842 186.605 70.692 186.352C70.6998 186.094 70.7096 185.852 70.7213 185.625C70.733 185.395 70.7448 185.195 70.7565 185.027H70.7096L67.7975 192.598H66.983ZM75.8951 189.299C75.8951 189.951 75.8307 190.588 75.7018 191.209C75.5768 191.826 75.3834 192.412 75.1217 192.967C74.8639 193.521 74.5338 194.031 74.1315 194.496H73.2115C73.5865 194 73.899 193.469 74.149 192.902C74.403 192.336 74.5924 191.75 74.7174 191.145C74.8463 190.535 74.9108 189.918 74.9108 189.293C74.9108 188.656 74.8463 188.029 74.7174 187.412C74.5885 186.795 74.3971 186.201 74.1432 185.631C73.8932 185.061 73.5787 184.527 73.1998 184.031H74.1315C74.5338 184.512 74.8639 185.035 75.1217 185.602C75.3834 186.164 75.5768 186.758 75.7018 187.383C75.8307 188.004 75.8951 188.643 75.8951 189.299Z" fill="#252525"/>
<rect x="242.5" y="22.5" width="85" height="39" rx="15.5" fill="#FCFCFC"/>
<rect x="242.5" y="22.5" width="85" height="39" rx="15.5" stroke="#C3C3C3"/>
<path d="M266.508 39L265.453 36.2812H262.02L260.971 39H259.963L263.314 30.3984H264.211L267.539 39H266.508ZM265.154 35.3965L264.152 32.6953C264.129 32.625 264.09 32.5098 264.035 32.3496C263.984 32.1895 263.932 32.0234 263.877 31.8516C263.822 31.6797 263.777 31.541 263.742 31.4355C263.703 31.5957 263.66 31.7559 263.613 31.916C263.57 32.0723 263.527 32.2188 263.484 32.3555C263.441 32.4883 263.404 32.6016 263.373 32.6953L262.354 35.3965H265.154ZM271.623 32.4609C272.385 32.4609 272.961 32.6484 273.352 33.0234C273.742 33.3945 273.938 33.9922 273.938 34.8164V39H272.977V34.8809C272.977 34.3457 272.854 33.9453 272.607 33.6797C272.365 33.4141 271.992 33.2812 271.488 33.2812C270.777 33.2812 270.277 33.4824 269.988 33.8848C269.699 34.2871 269.555 34.8711 269.555 35.6367V39H268.582V32.5781H269.367L269.514 33.5039H269.566C269.703 33.2773 269.877 33.0879 270.088 32.9355C270.299 32.7793 270.535 32.6621 270.797 32.584C271.059 32.502 271.334 32.4609 271.623 32.4609ZM278.344 32.4727C279.109 32.4727 279.678 32.6445 280.049 32.9883C280.42 33.332 280.605 33.8809 280.605 34.6348V39H279.896L279.709 38.0508H279.662C279.482 38.2852 279.295 38.4824 279.1 38.6426C278.904 38.7988 278.678 38.918 278.42 39C278.166 39.0781 277.854 39.1172 277.482 39.1172C277.092 39.1172 276.744 39.0488 276.439 38.9121C276.139 38.7754 275.9 38.5684 275.725 38.291C275.553 38.0137 275.467 37.6621 275.467 37.2363C275.467 36.5957 275.721 36.1035 276.229 35.7598C276.736 35.416 277.51 35.2285 278.549 35.1973L279.656 35.1504V34.7578C279.656 34.2031 279.537 33.8145 279.299 33.5918C279.061 33.3691 278.725 33.2578 278.291 33.2578C277.955 33.2578 277.635 33.3066 277.33 33.4043C277.025 33.502 276.736 33.6172 276.463 33.75L276.164 33.0117C276.453 32.8633 276.785 32.7363 277.16 32.6309C277.535 32.5254 277.93 32.4727 278.344 32.4727ZM279.645 35.8359L278.666 35.877C277.865 35.9082 277.301 36.0391 276.973 36.2695C276.645 36.5 276.48 36.8262 276.48 37.248C276.48 37.6152 276.592 37.8867 276.814 38.0625C277.037 38.2383 277.332 38.3262 277.699 38.3262C278.27 38.3262 278.736 38.168 279.1 37.8516C279.463 37.5352 279.645 37.0605 279.645 36.4277V35.8359ZM283.588 39H282.609V29.8828H283.588V39ZM286.617 32.5781V39H285.645V32.5781H286.617ZM286.143 30.1758C286.303 30.1758 286.439 30.2285 286.553 30.334C286.67 30.4355 286.729 30.5957 286.729 30.8145C286.729 31.0293 286.67 31.1895 286.553 31.2949C286.439 31.4004 286.303 31.4531 286.143 31.4531C285.975 31.4531 285.834 31.4004 285.721 31.2949C285.611 31.1895 285.557 31.0293 285.557 30.8145C285.557 30.5957 285.611 30.4355 285.721 30.334C285.834 30.2285 285.975 30.1758 286.143 30.1758ZM292.834 37.2422C292.834 37.6523 292.73 37.998 292.523 38.2793C292.32 38.5566 292.027 38.7656 291.645 38.9062C291.266 39.0469 290.812 39.1172 290.285 39.1172C289.836 39.1172 289.447 39.082 289.119 39.0117C288.791 38.9414 288.504 38.8418 288.258 38.7129V37.8164C288.52 37.9453 288.832 38.0625 289.195 38.168C289.559 38.2734 289.93 38.3262 290.309 38.3262C290.863 38.3262 291.266 38.2363 291.516 38.0566C291.766 37.877 291.891 37.6328 291.891 37.3242C291.891 37.1484 291.84 36.9941 291.738 36.8613C291.641 36.7246 291.475 36.5938 291.24 36.4688C291.006 36.3398 290.682 36.1992 290.268 36.0469C289.857 35.8906 289.502 35.7363 289.201 35.584C288.904 35.4277 288.674 35.2383 288.51 35.0156C288.35 34.793 288.27 34.5039 288.27 34.1484C288.27 33.6055 288.488 33.1895 288.926 32.9004C289.367 32.6074 289.945 32.4609 290.66 32.4609C291.047 32.4609 291.408 32.5 291.744 32.5781C292.084 32.6523 292.4 32.7539 292.693 32.8828L292.365 33.6621C292.1 33.5488 291.816 33.4531 291.516 33.375C291.215 33.2969 290.908 33.2578 290.596 33.2578C290.146 33.2578 289.801 33.332 289.559 33.4805C289.32 33.6289 289.201 33.832 289.201 34.0898C289.201 34.2891 289.256 34.4531 289.365 34.582C289.479 34.7109 289.658 34.832 289.904 34.9453C290.15 35.0586 290.475 35.1914 290.877 35.3438C291.279 35.4922 291.627 35.6465 291.92 35.8066C292.213 35.9629 292.438 36.1543 292.594 36.3809C292.754 36.6035 292.834 36.8906 292.834 37.2422ZM296.473 38.3203C296.633 38.3203 296.797 38.3066 296.965 38.2793C297.133 38.252 297.27 38.2188 297.375 38.1797V38.9355C297.262 38.9863 297.104 39.0293 296.9 39.0645C296.701 39.0996 296.506 39.1172 296.314 39.1172C295.975 39.1172 295.666 39.0586 295.389 38.9414C295.111 38.8203 294.889 38.6172 294.721 38.332C294.557 38.0469 294.475 37.6523 294.475 37.1484V33.3398H293.561V32.8652L294.48 32.4844L294.867 31.0898H295.453V32.5781H297.334V33.3398H295.453V37.1191C295.453 37.5215 295.545 37.8223 295.729 38.0215C295.916 38.2207 296.164 38.3203 296.473 38.3203ZM301.078 32.4727C301.844 32.4727 302.412 32.6445 302.783 32.9883C303.154 33.332 303.34 33.8809 303.34 34.6348V39H302.631L302.443 38.0508H302.396C302.217 38.2852 302.029 38.4824 301.834 38.6426C301.639 38.7988 301.412 38.918 301.154 39C300.9 39.0781 300.588 39.1172 300.217 39.1172C299.826 39.1172 299.479 39.0488 299.174 38.9121C298.873 38.7754 298.635 38.5684 298.459 38.291C298.287 38.0137 298.201 37.6621 298.201 37.2363C298.201 36.5957 298.455 36.1035 298.963 35.7598C299.471 35.416 300.244 35.2285 301.283 35.1973L302.391 35.1504V34.7578C302.391 34.2031 302.271 33.8145 302.033 33.5918C301.795 33.3691 301.459 33.2578 301.025 33.2578C300.689 33.2578 300.369 33.3066 300.064 33.4043C299.76 33.502 299.471 33.6172 299.197 33.75L298.898 33.0117C299.188 32.8633 299.52 32.7363 299.895 32.6309C300.27 32.5254 300.664 32.4727 301.078 32.4727ZM302.379 35.8359L301.4 35.877C300.6 35.9082 300.035 36.0391 299.707 36.2695C299.379 36.5 299.215 36.8262 299.215 37.248C299.215 37.6152 299.326 37.8867 299.549 38.0625C299.771 38.2383 300.066 38.3262 300.434 38.3262C301.004 38.3262 301.471 38.168 301.834 37.8516C302.197 37.5352 302.379 37.0605 302.379 36.4277V35.8359ZM309.498 37.2422C309.498 37.6523 309.395 37.998 309.188 38.2793C308.984 38.5566 308.691 38.7656 308.309 38.9062C307.93 39.0469 307.477 39.1172 306.949 39.1172C306.5 39.1172 306.111 39.082 305.783 39.0117C305.455 38.9414 305.168 38.8418 304.922 38.7129V37.8164C305.184 37.9453 305.496 38.0625 305.859 38.168C306.223 38.2734 306.594 38.3262 306.973 38.3262C307.527 38.3262 307.93 38.2363 308.18 38.0566C308.43 37.877 308.555 37.6328 308.555 37.3242C308.555 37.1484 308.504 36.9941 308.402 36.8613C308.305 36.7246 308.139 36.5938 307.904 36.4688C307.67 36.3398 307.346 36.1992 306.932 36.0469C306.521 35.8906 306.166 35.7363 305.865 35.584C305.568 35.4277 305.338 35.2383 305.174 35.0156C305.014 34.793 304.934 34.5039 304.934 34.1484C304.934 33.6055 305.152 33.1895 305.59 32.9004C306.031 32.6074 306.609 32.4609 307.324 32.4609C307.711 32.4609 308.072 32.5 308.408 32.5781C308.748 32.6523 309.064 32.7539 309.357 32.8828L309.029 33.6621C308.764 33.5488 308.48 33.4531 308.18 33.375C307.879 33.2969 307.572 33.2578 307.26 33.2578C306.811 33.2578 306.465 33.332 306.223 33.4805C305.984 33.6289 305.865 33.832 305.865 34.0898C305.865 34.2891 305.92 34.4531 306.029 34.582C306.143 34.7109 306.322 34.832 306.568 34.9453C306.814 35.0586 307.139 35.1914 307.541 35.3438C307.943 35.4922 308.291 35.6465 308.584 35.8066C308.877 35.9629 309.102 36.1543 309.258 36.3809C309.418 36.6035 309.498 36.8906 309.498 37.2422ZM271.242 55.1172C270.43 55.1172 269.785 54.8398 269.309 54.2852C268.836 53.7305 268.6 52.9062 268.6 51.8125C268.6 50.707 268.842 49.873 269.326 49.3105C269.811 48.7441 270.455 48.4609 271.26 48.4609C271.6 48.4609 271.896 48.5059 272.15 48.5957C272.404 48.6855 272.623 48.8066 272.807 48.959C272.99 49.1074 273.145 49.2773 273.27 49.4688H273.34C273.324 49.3477 273.309 49.1816 273.293 48.9707C273.277 48.7598 273.27 48.5879 273.27 48.4551V45.8828H274.242V55H273.457L273.311 54.0859H273.27C273.148 54.2773 272.994 54.4512 272.807 54.6074C272.623 54.7637 272.402 54.8887 272.145 54.9824C271.891 55.0723 271.59 55.1172 271.242 55.1172ZM271.395 54.3086C272.082 54.3086 272.568 54.1133 272.854 53.7227C273.139 53.332 273.281 52.752 273.281 51.9824V51.8066C273.281 50.9902 273.145 50.3633 272.871 49.9258C272.602 49.4883 272.109 49.2695 271.395 49.2695C270.797 49.2695 270.35 49.5 270.053 49.9609C269.756 50.418 269.607 51.043 269.607 51.8359C269.607 52.625 269.754 53.2344 270.047 53.6641C270.344 54.0938 270.793 54.3086 271.395 54.3086ZM278.777 48.4609C279.324 48.4609 279.793 48.582 280.184 48.8242C280.574 49.0664 280.873 49.4062 281.08 49.8438C281.287 50.2773 281.391 50.7852 281.391 51.3672V51.9707H276.955C276.967 52.7246 277.154 53.2988 277.518 53.6934C277.881 54.0879 278.393 54.2852 279.053 54.2852C279.459 54.2852 279.818 54.248 280.131 54.1738C280.443 54.0996 280.768 53.9902 281.104 53.8457V54.7012C280.779 54.8457 280.457 54.9512 280.137 55.0176C279.82 55.084 279.445 55.1172 279.012 55.1172C278.395 55.1172 277.855 54.9922 277.395 54.7422C276.938 54.4883 276.582 54.1172 276.328 53.6289C276.074 53.1406 275.947 52.543 275.947 51.8359C275.947 51.1445 276.062 50.5469 276.293 50.043C276.527 49.5352 276.855 49.1445 277.277 48.8711C277.703 48.5977 278.203 48.4609 278.777 48.4609ZM278.766 49.2578C278.246 49.2578 277.832 49.4277 277.523 49.7676C277.215 50.1074 277.031 50.582 276.973 51.1914H280.371C280.367 50.8086 280.307 50.4727 280.189 50.1836C280.076 49.8906 279.902 49.6641 279.668 49.5039C279.434 49.3398 279.133 49.2578 278.766 49.2578ZM293.736 50.7051C293.736 51.4082 293.641 52.0449 293.449 52.6152C293.258 53.1855 292.973 53.668 292.594 54.0625C292.219 54.457 291.75 54.7441 291.188 54.9238L293.203 57.0391H291.779L290.121 55.1055C290.07 55.1055 290.018 55.1074 289.963 55.1113C289.912 55.1152 289.861 55.1172 289.811 55.1172C289.146 55.1172 288.566 55.0117 288.07 54.8008C287.578 54.5898 287.168 54.2891 286.84 53.8984C286.516 53.5078 286.271 53.041 286.107 52.498C285.947 51.9551 285.867 51.3535 285.867 50.6934C285.867 49.8184 286.012 49.0508 286.301 48.3906C286.59 47.7305 287.027 47.2168 287.613 46.8496C288.203 46.4824 288.941 46.2988 289.828 46.2988C290.676 46.2988 291.389 46.4805 291.967 46.8438C292.549 47.207 292.988 47.7188 293.285 48.3789C293.586 49.0352 293.736 49.8105 293.736 50.7051ZM286.916 50.7051C286.916 51.4316 287.02 52.0605 287.227 52.5918C287.434 53.123 287.75 53.5332 288.176 53.8223C288.605 54.1113 289.15 54.2559 289.811 54.2559C290.475 54.2559 291.018 54.1113 291.439 53.8223C291.865 53.5332 292.18 53.123 292.383 52.5918C292.586 52.0605 292.688 51.4316 292.688 50.7051C292.688 49.5996 292.455 48.7363 291.99 48.1152C291.529 47.4902 290.809 47.1777 289.828 47.1777C289.164 47.1777 288.617 47.3203 288.188 47.6055C287.758 47.8906 287.438 48.2969 287.227 48.8242C287.02 49.3477 286.916 49.9746 286.916 50.7051ZM301.02 55L299.965 52.2812H296.531L295.482 55H294.475L297.826 46.3984H298.723L302.051 55H301.02ZM299.666 51.3965L298.664 48.6953C298.641 48.625 298.602 48.5098 298.547 48.3496C298.496 48.1895 298.443 48.0234 298.389 47.8516C298.334 47.6797 298.289 47.541 298.254 47.4355C298.215 47.5957 298.172 47.7559 298.125 47.916C298.082 48.0723 298.039 48.2188 297.996 48.3555C297.953 48.4883 297.916 48.6016 297.885 48.6953L296.865 51.3965H299.666Z" fill="#252525"/>
</g>
<defs>
<clipPath id="clip0_782_4902">
<rect width="328" height="232" fill="white"/>
</clipPath>
</defs>
</svg>
