<svg width="328" height="233" viewBox="0 0 328 233" fill="none" xmlns="http://www.w3.org/2000/svg">
<g clip-path="url(#clip0_3221_2926)">
<path d="M186.234 30.8286H130.566V38.4334H186.234V30.8286Z" stroke="#DEDEDE" stroke-linecap="round" stroke-linejoin="round"/>
<path d="M261.137 30.606H205.469V38.2108H261.137V30.606Z" stroke="#DEDEDE" stroke-linecap="round" stroke-linejoin="round"/>
<path d="M110.829 30.8286H55.1619V38.4334H110.829V30.8286Z" stroke="#DEDEDE" stroke-linecap="round" stroke-linejoin="round"/>
<path d="M283.485 16.3903H31.8828V177.106H283.485V16.3903Z" stroke="#EDEDED" stroke-width="2" stroke-linecap="round" stroke-linejoin="round"/>
<path d="M287.671 177.307H27.6926V184.334H287.671V177.307Z" stroke="#DEDEDE" stroke-width="2" stroke-linecap="round" stroke-linejoin="round"/>
<path d="M287.67 9.36304H27.6924V16.3899H287.67V9.36304Z" stroke="#DEDEDE" stroke-width="2" stroke-linecap="round" stroke-linejoin="round"/>
<path d="M233.451 70.9588C225.339 73.275 227.843 82.7139 233.637 85.3202C234.998 85.9289 235.583 86.835 236.059 88.4995C236.536 90.1639 237.231 91.0737 239.068 90.5442C240.905 90.0147 241.012 88.8849 240.535 87.2205C240.059 85.556 240.084 84.4738 240.904 83.2452C244.444 77.9732 241.565 68.6404 233.451 70.9588Z" fill="#F9F9F9" stroke="#DEDEDE" stroke-linecap="round" stroke-linejoin="round"/>
<path d="M238.689 88.645C237.151 87.4258 236.449 86.2901 237.322 85.1921C238.194 84.0942 238.575 82.8081 237.487 82.3925C236.398 81.977 234.306 83.3286 235.589 83.861C236.872 84.3933 239.41 81.8423 238.02 81.4288C236.629 81.0153 234.453 81.4778 234.978 80.8245C235.503 80.1712 238.164 79.5154 236.985 79.3213C234.619 78.9346 235.874 77.4706 235.109 75.6565" stroke="#DEDEDE" stroke-linecap="round" stroke-linejoin="round"/>
<path d="M240.962 86.1433C241.034 86.6811 241.149 87.2123 241.306 87.732C241.426 88.1253 241.513 88.5276 241.569 88.9348C241.759 90.383 241.286 91.3945 239.454 91.9198C237.622 92.4452 236.689 91.8302 236.084 90.5025C235.912 90.1275 235.772 89.7389 235.665 89.3409C235.521 88.8192 235.337 88.3088 235.118 87.814C237.152 87.6214 239.134 87.0551 240.962 86.1433Z" fill="#F9F9F9" stroke="#EDEDED" stroke-linecap="round" stroke-linejoin="round"/>
<path d="M240.962 86.1437C241.026 86.6253 241.127 87.1013 241.266 87.5671C241.276 87.6234 241.293 87.6782 241.306 87.7324C241.426 88.1258 241.513 88.528 241.569 88.9353C241.101 89.5092 240.289 89.9772 239.003 90.3427C237.717 90.7083 236.781 90.7423 236.082 90.5003C235.91 90.1253 235.77 89.7367 235.663 89.3387L235.613 89.1769C235.48 88.7107 235.313 88.2545 235.116 87.8118C237.151 87.6203 239.133 87.0549 240.962 86.1437Z" fill="#F9F9F9" stroke="#EDEDED" stroke-linecap="round" stroke-linejoin="round"/>
<path d="M240.962 86.1434C241.026 86.625 241.127 87.1009 241.266 87.5668C239.512 88.4816 237.589 89.0302 235.615 89.1792C235.482 88.7131 235.315 88.2569 235.118 87.8141C237.153 87.6216 239.134 87.0552 240.962 86.1434Z" fill="#F9F9F9" stroke="#EDEDED" stroke-linecap="round" stroke-linejoin="round"/>
<path d="M233.196 68.4898L232.116 64.7336" stroke="#DEDEDE" stroke-width="2" stroke-linecap="round" stroke-linejoin="round"/>
<path d="M241.137 69.3078L243.611 66.7084" stroke="#DEDEDE" stroke-width="2" stroke-linecap="round" stroke-linejoin="round"/>
<path d="M225.665 75.211L221.061 74.496" stroke="#DEDEDE" stroke-width="2" stroke-linecap="round" stroke-linejoin="round"/>
<path d="M228.77 70.9466L227.283 69.058" stroke="#EDEDED" stroke-linecap="round" stroke-linejoin="round"/>
<path d="M226.709 81.6867L224.853 83.6368" stroke="#EDEDED" stroke-linecap="round" stroke-linejoin="round"/>
<path d="M244.673 76.0155L246.487 76.7337" stroke="#EDEDED" stroke-linecap="round" stroke-linejoin="round"/>
<path d="M237.777 68.3756L238.72 66.4718" stroke="#EDEDED" stroke-linecap="round" stroke-linejoin="round"/>
<path d="M91.9035 47.5598H80.0514C79.0299 52.0339 79.3216 56.7085 80.8914 61.0204L93.3154 60.8226C93.3154 60.8226 89.9653 53.5321 91.9035 47.5598Z" fill="#DEDEDE" stroke="#DEDEDE" stroke-miterlimit="10"/>
<path d="M68.624 92.1738H56.7718C55.7503 96.648 56.0421 101.323 57.6119 105.634L70.0359 105.437C70.0359 105.437 66.6857 98.1462 68.624 92.1738Z" fill="#DEDEDE" stroke="#DEDEDE" stroke-miterlimit="10"/>
<path d="M91.3972 92.6821H79.545C78.5235 97.1563 78.8153 101.831 80.3851 106.143L92.8091 105.945C92.8091 105.945 89.4589 98.6545 91.3972 92.6821Z" fill="#DEDEDE" stroke="#DEDEDE" stroke-miterlimit="10"/>
<path d="M112.146 70.881H100.294C99.2726 75.3551 99.5643 80.0297 101.134 84.3415L113.558 84.1438C113.558 84.1438 110.208 76.8533 112.146 70.881Z" fill="#DEDEDE" stroke="#DEDEDE" stroke-miterlimit="10"/>
<path d="M144.535 47.0532H132.682C131.661 51.5274 131.953 56.2019 133.523 60.5138L145.947 60.316C145.947 60.316 142.596 53.0255 144.535 47.0532Z" fill="#DEDEDE" stroke="#DEDEDE" stroke-miterlimit="10"/>
<path d="M89.2313 50.9165H83.199" stroke="#F9F9F9" stroke-linecap="round" stroke-linejoin="round"/>
<path d="M65.952 95.5305H59.9197" stroke="#F9F9F9" stroke-linecap="round" stroke-linejoin="round"/>
<path d="M88.7255 96.0382H82.6931" stroke="#F9F9F9" stroke-linecap="round" stroke-linejoin="round"/>
<path d="M109.474 74.2377H103.442" stroke="#F9F9F9" stroke-linecap="round" stroke-linejoin="round"/>
<path d="M141.862 50.4088H135.83" stroke="#F9F9F9" stroke-linecap="round" stroke-linejoin="round"/>
<path d="M88.8468 53.5365H84.2871" stroke="#F9F9F9" stroke-linecap="round" stroke-linejoin="round"/>
<path d="M65.5675 98.1521H61.0078" stroke="#F9F9F9" stroke-linecap="round" stroke-linejoin="round"/>
<path d="M88.3407 98.6587H83.781" stroke="#F9F9F9" stroke-linecap="round" stroke-linejoin="round"/>
<path d="M109.089 76.8582H104.53" stroke="#F9F9F9" stroke-linecap="round" stroke-linejoin="round"/>
<path d="M141.478 53.0298H136.918" stroke="#F9F9F9" stroke-linecap="round" stroke-linejoin="round"/>
<path d="M89.1404 56.0358H82.8196" stroke="#F9F9F9" stroke-linecap="round" stroke-linejoin="round"/>
<path d="M65.8611 100.651H59.5403" stroke="#F9F9F9" stroke-linecap="round" stroke-linejoin="round"/>
<path d="M88.634 101.157H82.3132" stroke="#F9F9F9" stroke-linecap="round" stroke-linejoin="round"/>
<path d="M109.383 79.3579H103.062" stroke="#F9F9F9" stroke-linecap="round" stroke-linejoin="round"/>
<path d="M141.771 55.5291H135.451" stroke="#F9F9F9" stroke-linecap="round" stroke-linejoin="round"/>
<path d="M58.0819 48.0665H69.4887C70.3794 52.0768 69.6673 56.2771 67.5049 59.7678L55.1619 59.2608C55.1619 59.2608 58.927 53.8462 58.0819 48.0665Z" stroke="#DEDEDE" stroke-linecap="round" stroke-linejoin="round"/>
<path d="M60.167 50.7988H67.6163" stroke="#DEDEDE" stroke-linecap="round" stroke-linejoin="round"/>
<path d="M60.2732 53.304H66.2195" stroke="#DEDEDE" stroke-linecap="round" stroke-linejoin="round"/>
<path d="M60.167 56.5791H62.9757" stroke="#DEDEDE" stroke-linecap="round" stroke-linejoin="round"/>
<path d="M63.6128 56.5791H65.4802" stroke="#DEDEDE" stroke-linecap="round" stroke-linejoin="round"/>
<path d="M81.3308 70.3738L92.7427 70.3991C93.6381 74.4052 92.9333 78.6031 90.7791 82.0953L78.4412 81.5884C78.4412 81.5884 82.176 76.1433 81.3308 70.3738Z" stroke="#EDEDED" stroke-linecap="round" stroke-linejoin="round"/>
<path d="M102.079 47.5598L113.491 47.5852C114.387 51.5912 113.682 55.7892 111.528 59.2814L99.1897 58.7744C99.1897 58.7744 102.924 53.3293 102.079 47.5598Z" stroke="#EDEDED" stroke-linecap="round" stroke-linejoin="round"/>
<path d="M57.0393 69.8671L68.4512 69.8924C69.3466 73.8984 68.6418 78.0964 66.4876 81.5886L54.1497 81.0816C54.1497 81.0816 57.8845 75.6366 57.0393 69.8671Z" stroke="#EDEDED" stroke-linecap="round" stroke-linejoin="round"/>
<path d="M83.4158 73.1119H90.8651" stroke="#EDEDED" stroke-linecap="round" stroke-linejoin="round"/>
<path d="M104.165 50.297H111.614" stroke="#EDEDED" stroke-linecap="round" stroke-linejoin="round"/>
<path d="M59.1245 72.6042H66.5739" stroke="#EDEDED" stroke-linecap="round" stroke-linejoin="round"/>
<path d="M83.522 75.6112H89.4683" stroke="#EDEDED" stroke-linecap="round" stroke-linejoin="round"/>
<path d="M104.271 52.7968H110.217" stroke="#EDEDED" stroke-linecap="round" stroke-linejoin="round"/>
<path d="M59.2307 75.1045H65.177" stroke="#EDEDED" stroke-linecap="round" stroke-linejoin="round"/>
<path d="M83.4158 78.8865H86.2245" stroke="#EDEDED" stroke-linecap="round" stroke-linejoin="round"/>
<path d="M104.165 56.0725H106.973" stroke="#EDEDED" stroke-linecap="round" stroke-linejoin="round"/>
<path d="M59.1245 78.3798H61.9332" stroke="#EDEDED" stroke-linecap="round" stroke-linejoin="round"/>
<path d="M86.8623 78.8865H88.7297" stroke="#EDEDED" stroke-linecap="round" stroke-linejoin="round"/>
<path d="M107.611 56.0725H109.478" stroke="#EDEDED" stroke-linecap="round" stroke-linejoin="round"/>
<path d="M62.5708 78.3798H64.4382" stroke="#EDEDED" stroke-linecap="round" stroke-linejoin="round"/>
<path d="M154.741 48.0665H166.148C167.037 52.0752 166.325 56.2734 164.164 59.7628L151.821 59.2558C151.821 59.2558 155.581 53.8361 154.741 48.0665Z" stroke="#EDEDED" stroke-linecap="round" stroke-linejoin="round"/>
<path d="M132.98 69.3594H144.387C145.276 73.368 144.564 77.5662 142.403 81.0556L130.06 80.5486C130.06 80.5486 133.82 75.1289 132.98 69.3594Z" stroke="#EDEDED" stroke-linecap="round" stroke-linejoin="round"/>
<path d="M153.223 67.3322H164.63C165.519 71.3408 164.807 75.539 162.646 79.0284L150.303 78.5214C150.303 78.5214 154.063 73.1017 153.223 67.3322Z" stroke="#EDEDED" stroke-linecap="round" stroke-linejoin="round"/>
<path d="M156.821 50.8042H164.27" stroke="#EDEDED" stroke-linecap="round" stroke-linejoin="round"/>
<path d="M135.06 72.0975H142.509" stroke="#EDEDED" stroke-linecap="round" stroke-linejoin="round"/>
<path d="M155.303 70.0692H162.752" stroke="#EDEDED" stroke-linecap="round" stroke-linejoin="round"/>
<path d="M156.927 53.304H162.874" stroke="#EDEDED" stroke-linecap="round" stroke-linejoin="round"/>
<path d="M135.166 74.5978H141.112" stroke="#EDEDED" stroke-linecap="round" stroke-linejoin="round"/>
<path d="M155.409 72.569H161.355" stroke="#EDEDED" stroke-linecap="round" stroke-linejoin="round"/>
<path d="M156.821 56.5791H159.63" stroke="#EDEDED" stroke-linecap="round" stroke-linejoin="round"/>
<path d="M135.06 77.8715H137.869" stroke="#EDEDED" stroke-linecap="round" stroke-linejoin="round"/>
<path d="M155.303 75.8442H158.111" stroke="#EDEDED" stroke-linecap="round" stroke-linejoin="round"/>
<path d="M160.267 56.5791H162.135" stroke="#EDEDED" stroke-linecap="round" stroke-linejoin="round"/>
<path d="M138.506 77.8715H140.374" stroke="#EDEDED" stroke-linecap="round" stroke-linejoin="round"/>
<path d="M158.749 75.8442H160.617" stroke="#EDEDED" stroke-linecap="round" stroke-linejoin="round"/>
<path d="M218.763 49.587L207.357 49.6124C206.467 53.621 207.179 57.8192 209.34 61.3086L221.684 60.8016C221.684 60.8016 217.928 55.3566 218.763 49.587Z" stroke="#DEDEDE" stroke-linecap="round" stroke-linejoin="round"/>
<path d="M216.688 52.3257H209.239" stroke="#DEDEDE" stroke-linecap="round" stroke-linejoin="round"/>
<path d="M216.582 54.8245H210.641" stroke="#DEDEDE" stroke-linecap="round" stroke-linejoin="round"/>
<path d="M216.688 58.0997H213.88" stroke="#DEDEDE" stroke-linecap="round" stroke-linejoin="round"/>
<path d="M213.242 58.0997H211.375" stroke="#DEDEDE" stroke-linecap="round" stroke-linejoin="round"/>
<path d="M120.946 29.5308V149.185" stroke="#EDEDED" stroke-linecap="round" stroke-linejoin="round"/>
<path d="M195.849 29.3081V148.962" stroke="#EDEDED" stroke-linecap="round" stroke-linejoin="round"/>
<path d="M189.619 59.6766C186.851 51.4634 185.632 48.5229 184.053 46.7434C182.474 44.9638 178.005 43.0728 178.005 43.0728C178.005 43.0728 176.143 35.8431 173.759 36.0763C171.376 36.3095 175.328 45.9271 175.328 45.9271L173.233 55.3672C173.912 56.4751 174.442 57.6685 174.807 58.9161C176.436 64.2801 180.905 64.7871 182.135 69.2891C182.059 69.0306 189.594 64.5082 189.619 59.6766Z" fill="#FEBD9D"/>
<path d="M189.619 59.6766C186.851 51.4634 185.632 48.5229 184.053 46.7434C182.474 44.9638 178.005 43.0728 178.005 43.0728C178.005 43.0728 176.143 35.8431 173.759 36.0763C171.376 36.3095 175.328 45.9271 175.328 45.9271L173.233 55.3672C173.912 56.4751 174.442 57.6685 174.807 58.9161C176.436 64.2801 180.905 64.7871 182.135 69.2891C182.059 69.0306 189.594 64.5082 189.619 59.6766Z" fill="#FEBD9D"/>
<path d="M184.058 46.7434C182.489 44.9334 178.01 43.0728 178.01 43.0728C178.01 43.0728 176.148 35.8431 173.764 36.0763C171.381 36.3095 175.333 45.9271 175.333 45.9271L173.238 55.3672" stroke="#EF8A66" stroke-width="0.75" stroke-linecap="round" stroke-linejoin="round"/>
<path d="M170.87 51.6714C172.838 50.1099 176.214 55.8287 174.174 57.3902C172.712 58.5107 168.997 53.1366 170.87 51.6714Z" fill="#FEBD9D" stroke="#EF8A66" stroke-miterlimit="10"/>
<path d="M178.01 43.073C176.442 42.4545 176.244 45.101 177.616 46.115C178.987 47.1289 179.863 47.3419 180.06 47.9807C180.257 48.6195 180.647 50.6221 180.647 50.6221C180.207 51.8874 180.039 53.2314 180.153 54.5664C180.267 55.9013 180.662 57.197 181.31 58.3689" stroke="#EF8A66" stroke-width="0.75" stroke-linecap="round" stroke-linejoin="round"/>
<path d="M172.343 48.4008C174.311 46.8393 178.481 53.9777 176.442 55.5291C174.984 56.6445 170.47 49.8812 172.343 48.4008Z" fill="#FEBD9D" stroke="#EF8A66" stroke-miterlimit="10"/>
<path d="M174.053 46.0891C176.022 44.5275 180.197 51.6659 178.157 53.2173C176.7 54.3327 172.186 47.5593 174.053 46.0891Z" fill="#FEBD9D" stroke="#EF8A66" stroke-miterlimit="10"/>
<path d="M182.413 74.4913L179.756 69.2946C179.756 69.2946 186.254 64.8382 189.62 59.6619L191.851 63.4085C191.851 63.4085 189.184 75.1554 182.413 74.4913Z" fill="#431B61"/>
<path d="M221.254 99.5363C212.19 86.4509 200.581 73.5734 198.931 71.7736C198.058 70.7404 196.83 70.0713 195.49 69.8978L191.441 62.6935C191.441 62.6935 187.024 69.2843 179.756 72.8332L183.43 79.8905C183.43 79.8905 182.307 80.7473 184.777 85.944C187.246 91.1406 196.806 110.989 201.639 114.928C213.197 124.348 233.167 116.738 221.254 99.5363Z" fill="#5A0C94"/>
<path d="M189.316 75.8645L185.227 69.2939" stroke="#5A0C94" stroke-width="0.75" stroke-linecap="round" stroke-linejoin="round"/>
<path d="M186.877 77.4973L182.858 71.0433" stroke="#5A0C94" stroke-width="0.75" stroke-linecap="round" stroke-linejoin="round"/>
<path d="M189.62 65.0205L193.931 71.951" stroke="#5A0C94" stroke-width="0.75" stroke-linecap="round" stroke-linejoin="round"/>
<path d="M187.458 67.2047L191.775 74.1352" stroke="#5A0C94" stroke-width="0.75" stroke-linecap="round" stroke-linejoin="round"/>
<path d="M221.254 99.5363C212.19 86.4509 200.581 73.5734 198.931 71.7736C198.058 70.7404 196.83 70.0713 195.49 69.8978L191.441 62.6935" stroke="#5A0C94" stroke-width="0.75" stroke-linecap="round" stroke-linejoin="round"/>
<path d="M305.762 223.526H255.722V184.026L300.474 183.403C303.92 197.969 305.762 223.526 305.762 223.526Z" fill="#431B61"/>
<path d="M280.084 223.526C280.084 223.526 278.445 207.617 278.278 206.101C278.229 205.7 278.05 205.326 277.768 205.036C277.487 204.747 277.118 204.558 276.719 204.499C275.759 204.301 274.769 204.301 273.809 204.499" stroke="#9940DC" stroke-width="0.75" stroke-linecap="round" stroke-linejoin="round"/>
<path d="M309.366 127.579C308.566 140.807 305.823 161.37 303.925 174.471C302.858 181.847 302.073 186.861 302.073 186.861C302.073 186.861 270.054 188.109 261.355 187.875C252.655 187.642 251.704 186.998 251.704 183.485C251.704 179.971 251.851 136.097 251.851 136.097C251.851 136.097 208.896 120.887 202.711 115.721C196.527 110.555 203.931 93.5755 219.832 97.0585C223.83 97.9356 227.802 98.8279 231.861 99.7253C243.926 102.407 256.724 105.104 272.772 107.386C290.201 109.88 301.112 110.022 308.561 114.93C309.664 115.655 309.791 120.598 309.366 127.579Z" fill="#5A0C94"/>
<path d="M297.802 140.877C291.036 145.177 291.021 151.225 293.667 155.91C299.771 166.693 282.028 159.687 281.264 173.061L306.952 166.947L297.802 140.877Z" fill="#5A0C94"/>
<path d="M318.758 131.721C315.824 129.936 312.665 128.55 309.366 127.6C303.905 126.079 298.637 126.398 295.14 130.008C294.515 130.651 293.97 131.368 293.516 132.142C284.756 146.845 260.262 144.163 255.723 128.659C251.861 115.478 245.905 107.285 231.861 99.7609C243.926 102.407 256.725 105.105 272.772 107.386C290.201 109.88 301.112 110.022 308.561 114.93C312.013 116.39 315.611 123.072 318.758 131.721Z" fill="#5A0C94"/>
<path d="M274.406 106.427C268.698 106.427 264.067 110.082 264.067 114.584C264.067 117.119 265.535 119.391 267.843 120.886C268.959 121.606 270.195 122.121 271.491 122.407C272.447 122.629 273.425 122.74 274.406 122.737C274.624 122.737 274.837 122.737 275.049 122.737C276.425 122.677 277.781 122.387 279.062 121.88C280.275 121.417 281.389 120.729 282.347 119.852C283.088 119.193 283.684 118.388 284.099 117.486C284.514 116.585 284.737 115.607 284.756 114.615C284.756 110.082 280.125 106.427 274.406 106.427ZM277.832 118.539C276.822 118.852 275.773 119.022 274.715 119.046H274.406C273.578 119.049 272.752 118.964 271.942 118.792C270.9 118.589 269.9 118.208 268.986 117.667C267.519 116.78 266.608 115.532 266.608 114.153C266.608 111.446 270.1 109.256 274.406 109.256C278.713 109.256 282.21 111.446 282.21 114.153C282.21 115.345 281.532 116.435 280.398 117.287C279.623 117.851 278.754 118.275 277.832 118.539Z" stroke="#5A0C94" stroke-width="0.75" stroke-linecap="round" stroke-linejoin="round"/>
<path d="M269.265 104.343C267.331 104.713 265.181 105.357 264.103 107.212C263.025 109.068 262.974 116.8 263.961 117.646C264.948 118.493 266.264 114.447 272.149 112.475L269.265 104.343Z" fill="#431B61"/>
<path d="M277.099 112.84L283.106 103.329C283.106 103.329 286.294 105.022 286.81 108.08C287.326 111.137 285.93 121.16 283.399 118.62C281.603 116.845 282.008 115.38 277.099 112.84Z" fill="#431B61"/>
<path d="M267.843 120.887L268.986 117.652" stroke="#5A0C94" stroke-width="0.75" stroke-linecap="round" stroke-linejoin="round"/>
<path d="M271.491 122.412L271.942 118.777" stroke="#5A0C94" stroke-width="0.75" stroke-linecap="round" stroke-linejoin="round"/>
<path d="M275.049 122.727L274.715 119.026" stroke="#5A0C94" stroke-width="0.75" stroke-linecap="round" stroke-linejoin="round"/>
<path d="M279.062 121.87L277.832 118.529" stroke="#5A0C94" stroke-width="0.75" stroke-linecap="round" stroke-linejoin="round"/>
<path d="M282.347 119.821L280.398 117.271" stroke="#5A0C94" stroke-width="0.75" stroke-linecap="round" stroke-linejoin="round"/>
<path d="M284.016 104.617C284.062 105.804 281.648 113.601 274.948 114.25C268.247 114.899 267.266 107.588 267.306 105.667C267.306 104.891 267.392 103.522 267.488 101.808C267.62 99.456 267.797 96.4597 267.929 93.4888L267.959 92.8398C268.698 75.6022 283.47 79.0447 282.549 88.1806C281.987 93.8133 283.961 103.436 284.016 104.617Z" fill="#FEBD9D"/>
<path d="M267.488 101.808C267.62 99.4558 267.797 96.4595 267.928 93.4885L276.111 92.2211C276.41 97.4481 273.89 101.945 267.488 101.808Z" fill="#F4A789"/>
<path d="M300.605 165.568C300.605 165.466 300.55 165.365 300.524 165.258C298.232 156.026 296.329 146.368 295.53 137.937" stroke="#5A0C94" stroke-width="0.75" stroke-linecap="round" stroke-linejoin="round"/>
<path d="M263.157 153.977C262.418 150.763 264.351 149.82 266.036 149.242C265.879 148.334 266.213 146.864 268.222 146.55C270.125 146.251 270.808 148.127 270.808 148.127C270.808 148.127 274.811 146.768 275.824 150.849L263.157 153.977Z" fill="#DEDEDE"/>
<path d="M253.435 154.875L283.672 147.873L295.14 196.549L264.639 202.699L253.435 154.875Z" fill="#F9F9F9" stroke="#DEDEDE" stroke-linecap="round" stroke-linejoin="round"/>
<path d="M267.205 149.019C267.204 149.289 267.283 149.553 267.432 149.778C267.581 150.003 267.793 150.179 268.042 150.283C268.29 150.387 268.564 150.415 268.829 150.363C269.093 150.31 269.336 150.181 269.527 149.99C269.718 149.8 269.848 149.557 269.901 149.292C269.954 149.028 269.927 148.753 269.824 148.504C269.721 148.254 269.547 148.041 269.323 147.891C269.099 147.741 268.836 147.661 268.566 147.661C268.206 147.661 267.86 147.804 267.605 148.058C267.35 148.313 267.206 148.658 267.205 149.019Z" fill="#F9F9F9" stroke="#DEDEDE" stroke-linecap="round" stroke-linejoin="round"/>
<path d="M327.933 175.488C327.943 176.453 327.899 177.417 327.802 178.377V178.519C327.77 178.715 327.726 178.908 327.67 179.097C326.435 183.153 318.622 186.981 311.365 182.773C310.728 182.404 310.119 181.988 309.543 181.531C307.192 179.587 305.276 177.168 303.92 174.433C302.475 171.616 301.363 168.641 300.606 165.566C300.606 165.465 300.55 165.363 300.525 165.257C297.488 152.947 295.1 139.877 295.12 129.985C295.12 118.061 298.627 110.75 308.561 114.938C311.992 116.388 315.59 123.05 318.738 131.699C321.402 139.194 323.551 146.862 325.17 154.65C326.921 162.747 327.933 170.342 327.933 175.488Z" fill="#5A0C94"/>
<path d="M327.822 178.392V178.534C327.79 178.729 327.746 178.922 327.691 179.112C326.456 183.168 318.642 186.996 311.385 182.788C310.749 182.418 310.14 182.003 309.563 181.546C311.777 180.401 314.267 179.904 316.749 180.111C330.105 181.318 315.935 166.539 325.206 154.65C326.911 162.762 327.954 170.341 327.969 175.487C328.033 176.458 327.983 177.433 327.822 178.392Z" fill="#5A0C94"/>
<path d="M318.758 131.72C315.824 129.934 312.665 128.548 309.366 127.598C303.905 126.077 298.637 126.397 295.14 130.006C295.14 118.082 298.647 110.771 308.581 114.959C312.012 116.389 315.611 123.071 318.758 131.72Z" fill="#5A0C94"/>
<path d="M268.252 175.707C267.427 175.2 262.544 172.371 261.127 172.28C259.71 172.188 256.689 174.282 256.689 174.282C256.689 174.282 250.692 174.637 250.029 175.707C249.366 176.777 250.712 178.282 251.744 178.82C252.777 179.357 251.805 180.462 251.937 181.355C252.068 182.247 253.181 182.876 253.313 183.489C253.445 184.103 252.868 185.776 254.244 186.186C255.621 186.597 254.75 187.444 255.444 188.645C256.137 189.847 260.373 189.624 271.132 187.489L268.252 175.707Z" fill="#FEBD9D"/>
<path d="M261.132 172.279C259.71 172.193 256.694 174.282 256.694 174.282C256.694 174.282 250.697 174.637 250.034 175.707C249.371 176.776 250.717 178.282 251.749 178.819C252.782 179.357 251.81 180.462 251.942 181.354C252.073 182.247 253.187 182.875 253.318 183.489C253.45 184.102 252.873 185.775 254.249 186.186C255.626 186.597 254.755 187.443 255.449 188.645C255.727 189.116 256.552 189.37 258.101 189.37" stroke="#EF8A66" stroke-width="0.75" stroke-linecap="round" stroke-linejoin="round"/>
<path d="M267.498 174.733L269.659 188.584L274.219 187.909L272.802 174.393L267.498 174.733Z" fill="#431B61"/>
<path d="M327.806 178.535C327.766 178.728 327.725 178.926 327.675 179.113C326.47 183.864 321.389 186.936 307.462 187.91C306.248 187.997 305.045 188.075 303.854 188.143C287.336 189.126 273.05 188.842 273.05 188.842L270.899 174.043C278.389 171.818 290.833 167.6 300.625 165.567C304.674 164.73 308.242 164.259 310.848 164.451C313.817 164.613 316.759 165.097 319.623 165.896C320.385 166.116 321.133 166.386 321.86 166.702C325.21 168.223 327.462 170.616 327.887 174.52C327.923 174.844 327.948 175.169 327.973 175.478C328.039 176.5 327.983 177.527 327.806 178.535Z" fill="#5A0C94"/>
<path d="M310.848 164.451C308.242 164.259 304.659 164.73 300.625 165.567C290.833 167.595 278.389 171.818 270.899 174.043L273.05 188.842" stroke="#5A0C94" stroke-width="0.75" stroke-linecap="round" stroke-linejoin="round"/>
<path d="M271.157 175.798L279.922 174.393" stroke="#5A0C94" stroke-width="0.75" stroke-linecap="round" stroke-linejoin="round"/>
<path d="M271.572 178.642L280.089 177.577" stroke="#5A0C94" stroke-width="0.75" stroke-linecap="round" stroke-linejoin="round"/>
<path d="M271.886 180.827L280.297 180.112" stroke="#5A0C94" stroke-width="0.75" stroke-linecap="round" stroke-linejoin="round"/>
<path d="M272.351 184.031L280.469 183.402" stroke="#5A0C94" stroke-width="0.75" stroke-linecap="round" stroke-linejoin="round"/>
<path d="M272.802 186.642L280.762 185.841" stroke="#5A0C94" stroke-width="0.75" stroke-linecap="round" stroke-linejoin="round"/>
<path d="M256.688 174.307C258.86 174.084 260.813 173.993 260.813 173.993" stroke="#EF8A66" stroke-width="0.75" stroke-linecap="round" stroke-linejoin="round"/>
<path d="M327.807 178.535C327.775 178.73 327.731 178.924 327.675 179.113C326.47 183.864 321.39 186.936 307.463 187.909C306.248 187.997 305.045 188.075 303.854 188.143C306.951 180.467 313.829 179.848 316.734 180.112C325.676 180.923 322.3 174.571 321.84 166.712C325.19 168.233 327.442 170.626 327.867 174.53C327.903 174.855 327.928 175.179 327.953 175.488C328.025 176.506 327.976 177.529 327.807 178.535Z" fill="#5A0C94"/>
<path d="M281.582 76.7419C281.25 79.2009 280.658 81.6176 279.816 83.9513C278.505 87.3684 276.385 90.3545 272.928 90.3292C272.564 90.3244 272.2 90.2905 271.84 90.2278L262.65 86.4507C262.65 86.4507 262.691 86.2733 262.782 85.9437C263.428 83.7058 264.372 81.5655 265.59 79.581C265.697 79.4137 265.813 79.2464 265.924 79.074C268.111 75.7533 270.297 73.0966 270.297 73.0966C270.297 73.0966 270.423 69.9178 273.014 69.4514C275.606 68.985 282.301 71.8951 281.582 76.7419Z" fill="#FEBD9D"/>
<path d="M279.816 83.9511C278.505 87.3682 276.385 90.3543 272.928 90.329C272.304 89.9292 271.778 89.3912 271.394 88.7563C271.009 88.1214 270.774 87.4065 270.709 86.6666C270.643 85.9268 270.747 85.1816 271.014 84.4885C271.281 83.7955 271.702 83.1729 272.247 82.6687C272.791 82.1645 273.444 81.7921 274.155 81.5802C274.865 81.3683 275.615 81.3226 276.346 81.4464C277.077 81.5703 277.77 81.8605 278.372 82.2947C278.973 82.7289 279.467 83.2955 279.816 83.9511Z" fill="#F4AF90"/>
<path d="M266.264 81.8465C266.263 82.8322 265.915 83.7859 265.281 84.5393C264.647 85.2926 263.767 85.797 262.797 85.9633C263.443 83.7253 264.388 81.585 265.606 79.6006C266.036 80.2702 266.265 81.0501 266.264 81.8465Z" fill="#F4AF90"/>
<path d="M287.524 77.396C287.109 78.5824 285.697 82.2378 284.917 84.2505C284.599 85.0667 284.381 85.6143 284.381 85.6143L282.144 84.798L280.54 84.215L279.973 84.0122C279.973 84.0122 279.973 84.2505 279.912 84.6662C279.751 86.2102 279.454 87.737 279.027 89.2291C278.52 91.086 277.693 92.8397 276.583 94.4105C273.546 98.4664 265.662 98.0507 262.023 94.9175C259.493 92.7172 259.999 88.6917 262.2 84.504C263.244 82.5697 264.498 80.7572 265.94 79.0995C265.94 79.0995 264.164 83.272 263.875 84.1694C263.526 85.2898 264.837 85.1834 265.343 84.2302C265.849 83.2771 266.825 82.618 269.659 83.3785C272.493 84.139 273.647 85.6092 273.121 87.6625C272.812 88.8742 275.059 89.295 276.714 87.698C276.856 87.5623 276.988 87.4165 277.109 87.262C277.336 86.9805 277.531 86.6744 277.691 86.3494C279.209 83.2517 280.095 78.5114 280.181 76.6457C278.485 76.7521 277.023 75.4593 277.984 73.8522C275.995 74.6887 274.518 73.259 274.857 71.3527C273.997 72.7064 272.063 72.6202 271.82 71.0181L270.302 73.0968C270.01 72.3093 269.872 71.4726 269.897 70.6328C270.009 68.0979 272.159 67.1751 273.86 67.7582C274.123 65.9279 278.415 65.5629 278.728 68.179C279.649 66.4755 282.701 66.8253 282.777 69.4566C283.174 69.2407 283.629 69.1576 284.076 69.2195C284.523 69.2814 284.939 69.485 285.262 69.8005C285.586 70.116 285.8 70.5269 285.874 70.9732C285.947 71.4194 285.876 71.8775 285.672 72.2805C287.063 71.9763 287.954 73.8015 286.755 75.1095C286.77 75.1348 288.116 75.728 287.524 77.396Z" fill="#BF8228"/>
<path d="M272.771 79.4998C272.771 79.6342 272.811 79.7655 272.886 79.8772C272.96 79.989 273.066 80.076 273.19 80.1274C273.314 80.1789 273.45 80.1923 273.582 80.1661C273.713 80.1399 273.834 80.0752 273.929 79.9802C274.024 79.8852 274.089 79.7641 274.115 79.6323C274.141 79.5005 274.127 79.3639 274.076 79.2398C274.025 79.1157 273.938 79.0096 273.826 78.9349C273.715 78.8603 273.584 78.8204 273.45 78.8204C273.27 78.8204 273.097 78.892 272.97 79.0194C272.843 79.1468 272.771 79.3196 272.771 79.4998Z" fill="#683F1D"/>
<path d="M268.435 78.045C268.434 78.1798 268.473 78.3119 268.547 78.4244C268.621 78.5369 268.727 78.6247 268.851 78.6768C268.975 78.7288 269.112 78.7427 269.244 78.7166C269.376 78.6906 269.497 78.6258 269.592 78.5305C269.688 78.4352 269.752 78.3136 269.778 78.1814C269.804 78.0491 269.79 77.9121 269.738 77.7878C269.687 77.6634 269.599 77.5574 269.487 77.4831C269.374 77.4089 269.242 77.3697 269.108 77.3707C268.93 77.3721 268.759 77.4435 268.633 77.5697C268.508 77.6959 268.436 77.8666 268.435 78.045Z" fill="#683F1D"/>
<path d="M274.138 75.9203C273.789 77.132 277.337 78.3284 277.488 77.5882C277.6 77.0559 274.654 74.1255 274.138 75.9203Z" fill="#BF8228"/>
<path d="M269.108 74.3129C268.9 74.9619 271.881 76.0823 272.23 74.9923C272.645 73.6944 269.29 73.7552 269.108 74.3129Z" fill="#BF8228"/>
<path d="M282.144 84.7977L279.973 84.0119C279.837 85.7838 279.52 87.537 279.027 89.244C278.323 89.3505 277.508 88.9804 276.714 87.7231C277.115 87.3337 277.446 86.8774 277.691 86.3745C279.209 83.2768 280.095 78.5364 280.181 76.6707C278.485 76.7772 277.023 75.4844 277.984 73.8772C275.995 74.7137 274.518 73.284 274.857 71.3778C273.996 72.7314 272.063 72.6452 271.82 71.0432L270.302 73.1218C270.01 72.3344 269.872 71.4976 269.897 70.6578C270.717 69.8213 271.841 69.2433 272.782 69.5323C272.782 69.5323 275.256 70.1306 276.127 68.9442C275.646 70.8505 277.589 72.6655 279.882 71.8847C279.882 71.8847 280.682 75.3475 283.48 75.3424C283.48 75.3424 283.176 78.4401 284.776 78.724C285.985 78.9319 283.541 82.425 282.144 84.7977Z" fill="#B57724"/>
<path d="M279.912 84.6663C279.751 86.2102 279.454 87.737 279.027 89.2292C278.52 91.0861 277.693 92.8397 276.582 94.4106C273.546 98.4665 265.661 98.0508 262.023 94.9176C259.492 92.7172 259.998 88.6918 262.2 84.504C262.514 91.7489 269.386 95.9011 276.714 87.7234L277.109 87.2874C277.968 86.3366 278.906 85.4599 279.912 84.6663Z" fill="#B57724"/>
<path d="M284.918 84.2507C284.599 85.0669 284.381 85.6145 284.381 85.6145L282.144 84.7982L280.54 84.2152C283.02 82.5675 284.28 83.2773 284.918 84.2507Z" fill="#B57724"/>
<path d="M279.118 88.9042C279.559 87.3047 279.845 85.6663 279.973 84.0117C281.37 82.7443 283.819 82.7848 284.937 84.1943C285.244 84.5858 285.439 85.0539 285.499 85.5479C285.929 88.6253 283.364 91.865 279.118 88.9042Z" fill="#FEBD9D"/>
<path d="M282.331 90.07C281.164 90.032 280.039 89.6237 279.118 88.9039" stroke="#EF8A66" stroke-width="0.75" stroke-linecap="round" stroke-linejoin="round"/>
<path d="M267.301 81.1175C267.524 79.8297 268.237 79.8297 269.583 79.5965C270.93 79.3633 271.972 78.1617 271.825 76.9449" stroke="#EF8A66" stroke-width="0.75" stroke-linecap="round" stroke-linejoin="round"/>
<path d="M280.894 86.0908C281.111 85.8488 281.383 85.6618 281.687 85.5452C281.99 85.4285 282.317 85.3854 282.64 85.4196C282.963 85.4537 283.274 85.564 283.547 85.7415C283.819 85.9189 284.046 86.1585 284.209 86.4407" stroke="#EF8A66" stroke-width="0.75" stroke-linecap="round" stroke-linejoin="round"/>
<path d="M281.537 85.6344C283.834 85.4164 283.485 88.8741 281.264 88.2353" stroke="#EF8A66" stroke-width="0.75" stroke-linecap="round" stroke-linejoin="round"/>
<path d="M260.813 93.2994C262.979 91.8444 265.874 92.5795 268.207 94.6683C271.309 97.4466 276.38 94.6683 276.38 94.6683" stroke="#9B621F" stroke-width="0.75" stroke-linecap="round" stroke-linejoin="round"/>
<path d="M278.677 90.329C277.412 91.343 272.605 94.1365 269.143 91.5559C265.682 88.9753 260.459 92.2099 260.459 92.2099" stroke="#9B621F" stroke-width="0.75" stroke-linecap="round" stroke-linejoin="round"/>
<path d="M260.555 88.7982C261.673 87.7842 265.747 85.6194 268.399 88.5092C271.051 91.399 274.507 88.7576 274.507 88.7576" stroke="#9B621F" stroke-width="0.75" stroke-linecap="round" stroke-linejoin="round"/>
<path d="M265.18 84.504C265.823 85.2087 270.418 86.826 273.09 85.8476" stroke="#9B621F" stroke-width="0.75" stroke-linecap="round" stroke-linejoin="round"/>
<path d="M271.81 71.0428C271.527 69.5877 272.822 67.8792 273.87 67.7828" stroke="#9B621F" stroke-width="0.75" stroke-linecap="round" stroke-linejoin="round"/>
<path d="M274.857 71.3882C275.064 70.2322 276.441 67.459 278.399 67.3323" stroke="#9B621F" stroke-width="0.75" stroke-linecap="round" stroke-linejoin="round"/>
<path d="M277.984 73.8777C278.49 71.6266 279.973 69.2032 282.331 68.2045" stroke="#9B621F" stroke-width="0.75" stroke-linecap="round" stroke-linejoin="round"/>
<path d="M280.18 76.6701C280.494 74.2112 283.89 72.1782 285.686 72.3049" stroke="#9B621F" stroke-width="0.75" stroke-linecap="round" stroke-linejoin="round"/>
<path d="M279.644 80.2906C281.845 78.3945 285.661 76.7164 287.675 76.5795" stroke="#9B621F" stroke-width="0.75" stroke-linecap="round" stroke-linejoin="round"/>
<path d="M267.554 85.1273C269.543 85.5583 271.77 85.325 271.699 85.4163C271.628 85.5076 271.284 88.4582 269.108 88.149C266.932 87.8397 267.554 85.1273 267.554 85.1273Z" fill="#FCFCFC" stroke="#EF8A66" stroke-width="0.75" stroke-linecap="round" stroke-linejoin="round"/>
<path d="M210.596 94.6734C211.963 90.8558 213.764 86.9824 214.604 87.4945C216.026 88.3614 213.207 95.7838 213.207 95.7838L210.596 94.6734Z" fill="#B25E47" stroke="#934735" stroke-width="0.75" stroke-miterlimit="10"/>
<path d="M208.835 95.546C208.835 95.3077 209.675 84.3922 211.264 84.6407C213.42 84.9651 211.705 95.7944 211.705 95.7944L208.835 95.546Z" fill="#B25E47" stroke="#934735" stroke-width="0.75" stroke-miterlimit="10"/>
<path d="M206.234 97.0869C206.173 86.1511 206.386 83.3373 207.712 83.3323C209.544 83.3323 209.782 95.9309 209.782 95.9309L206.234 97.0869Z" fill="#B25E47" stroke="#934735" stroke-width="0.75" stroke-miterlimit="10"/>
<path d="M212.352 96.4228C212.034 101.589 211.882 104.332 211.882 104.332C211.882 104.332 207.266 106.867 206.968 100.661C206.669 94.4557 212.352 96.4228 212.352 96.4228Z" fill="#B25E47" stroke="#934735" stroke-width="0.75" stroke-miterlimit="10"/>
<path d="M185.966 128.561C179.868 137.621 172.418 150.214 178.435 154.255C184.453 158.296 192.469 156.648 197.261 145.535C202.054 134.422 207.965 115.075 209.149 113.169C210.333 111.263 213.086 109.022 214.862 105.341C216.639 101.66 217.489 101.457 216.887 100.408C216.284 99.3584 214.786 99.7488 213.997 100.915C213.207 102.081 211.107 104.337 209.923 103.678C208.739 103.019 208.238 101.691 208.218 100.063C208.197 98.4357 209.164 96.6866 211.021 97.2544C212.879 97.8222 213.734 100.261 215.308 99.4041C216.882 98.5472 213.536 95.262 212.352 94.2074C211.168 93.1529 210.252 93.8779 208.304 94.537C206.355 95.196 205.743 95.262 204.761 97.5789C203.779 99.8958 200.035 107.48 199.442 108.859C198.85 110.238 191.679 120.059 185.966 128.561Z" fill="#B25E47"/>
<path d="M214.862 105.356C216.634 101.67 217.489 101.472 216.887 100.423C216.284 99.3731 214.786 99.7634 213.997 100.93C213.208 102.096 211.107 104.352 209.923 103.693C208.739 103.034 208.238 101.705 208.218 100.078C208.197 98.4503 209.164 96.7012 211.021 97.2691C212.879 97.8369 213.734 100.276 215.308 99.4187C216.882 98.5619 213.536 95.2766 212.352 94.2221C211.168 93.1675 210.252 93.8925 208.304 94.5516C206.355 95.2107 205.743 95.2766 204.761 97.5935" stroke="#934735" stroke-width="0.75" stroke-linecap="round" stroke-linejoin="round"/>
<path d="M184.458 130.837C183.41 132.449 182.358 134.133 181.371 135.831" stroke="#934735" stroke-width="0.75" stroke-linecap="round" stroke-linejoin="round"/>
<path d="M92.3125 137.175C90.6425 139.776 94.0837 141.738 97.191 143.766C100.298 145.794 101.113 136.566 101.113 136.566C101.113 136.566 93.2335 135.74 92.3125 137.175Z" fill="#FCCF5C"/>
<path d="M185.272 125.904C186.325 126.695 184.766 129.326 181.775 132.252L179.321 129.078C179.321 129.078 182.818 124.997 185.272 125.904Z" fill="#FCCF5C"/>
<path d="M180.313 126.695C187.317 134.123 195.444 143.898 191.128 151.32C186.811 158.742 176.507 154.803 170.272 149.109C170.272 149.109 165.197 139.325 180.313 126.695Z" fill="#B25E47"/>
<path d="M97.1305 136.967C94.4382 142.954 86.6498 156.328 94.9038 161.845C103.158 167.361 113.198 148.009 113.198 148.009C113.198 148.009 110.131 136.439 97.1305 136.967Z" fill="#B25E47"/>
<path d="M185.273 125.904C179.624 130.095 175.197 135.725 172.454 142.209C171.471 144.42 170.739 146.734 170.273 149.109C168.653 147.933 164.827 145.053 164.827 145.053C164.544 146.843 164.175 148.901 163.815 150.98C162.707 156.947 161.432 163.031 161.432 163.031H123.573L122.935 160.496L117.986 140.845L113.198 147.999C113.102 147.882 113.006 147.771 112.9 147.664C107.333 141.636 92.3127 137.164 92.3127 137.164C96.3938 130.268 101.265 123.872 106.827 118.107C108.455 116.441 110.166 114.859 111.953 113.366C114.456 111.38 117.201 109.721 120.121 108.428C123.442 106.917 126.884 105.688 130.41 104.753C130.41 104.753 130.491 96.6815 131.371 87.1399C131.761 82.8356 140.48 81.994 142.505 89.3149C144.529 96.6358 146.047 101.341 146.047 101.341C148.224 101.019 150.427 100.901 152.626 100.991C155.415 101.102 158.588 101.614 161.072 103.049C162.408 103.825 165.075 106.142 168.157 109.016C175.521 115.876 185.273 125.904 185.273 125.904Z" fill="#FCCF5C"/>
<path d="M172.454 142.209C171.471 144.42 170.739 146.735 170.273 149.109C168.653 147.933 164.827 145.053 164.827 145.053C165.96 139.498 166.52 133.841 166.497 128.171C166.484 125.675 165.888 123.216 164.757 120.992C168.269 122.974 171.184 125.134 169.478 129.839C167.864 134.199 168.112 141.479 172.454 142.209Z" fill="#FCCF5C"/>
<path d="M135.728 161.997L122.935 160.476L117.986 140.845C119.346 138.609 120.53 136.27 121.528 133.849C126.639 139.933 115.87 147.03 132.626 150.731C140.986 152.587 135.728 161.997 135.728 161.997Z" fill="#FCCF5C"/>
<path d="M168.172 109.027C163.734 109.433 159.423 112.819 156.715 121.869C151.837 138.179 134.003 136.262 127.869 124.977C123.067 116.135 117.151 115.141 106.817 118.117C108.445 116.452 110.156 114.87 111.943 113.377C114.446 111.391 117.19 109.731 120.111 108.439C123.432 106.928 126.873 105.698 130.399 104.763C130.399 104.763 130.48 96.692 131.361 87.1504C131.751 82.8461 140.47 82.0045 142.495 89.3254C144.519 96.6463 146.037 101.351 146.037 101.351C148.214 101.029 150.417 100.912 152.616 101.001C155.404 101.113 158.577 101.625 161.062 103.06C162.418 103.835 165.085 106.152 168.172 109.027Z" fill="#FFE05C"/>
<path d="M152.636 101.002C152.717 106.472 147.985 110.128 142.555 110.984C137.125 111.841 128.117 111.202 120.121 108.449C123.442 106.938 126.883 105.709 130.409 104.774C130.409 104.774 130.49 96.7025 131.371 87.1609C131.761 82.8566 140.48 82.015 142.505 89.3359C142.965 90.9836 143.4 92.4995 143.79 93.8583C144.625 96.7227 145.278 98.8977 145.662 100.145C145.905 100.936 146.042 101.362 146.042 101.362C148.224 101.035 150.432 100.915 152.636 101.002Z" fill="#B25E47"/>
<path d="M145.673 100.134C140.875 100.519 138.082 97.67 138.117 93.8625C138.117 93.8625 141.477 93.8625 143.8 93.8625C144.635 96.7372 145.288 98.8868 145.673 100.134Z" fill="#914839"/>
<path d="M165.693 223.525H113.866C113.866 223.525 111.766 197.74 114.919 184.026C116.193 178.515 117.885 173.111 119.98 167.858C120.893 165.504 121.923 163.198 123.067 160.948L161.437 163.036C161.821 164.588 162.171 166.2 162.494 167.858C167.003 191.21 165.693 223.525 165.693 223.525Z" fill="#5A0C94"/>
<mask id="mask0_3221_2926" style="mask-type:luminance" maskUnits="userSpaceOnUse" x="113" y="160" width="53" height="64">
<path d="M165.693 223.525H113.866C113.866 223.525 111.766 197.74 114.919 184.026C116.193 178.515 117.885 173.111 119.98 167.858C120.893 165.504 121.923 163.198 123.067 160.948L161.437 163.036C161.821 164.588 162.171 166.2 162.494 167.858C167.003 191.21 165.693 223.525 165.693 223.525Z" fill="white"/>
</mask>
<g mask="url(#mask0_3221_2926)">
<path d="M126.406 191.502C128.202 189.538 128.068 186.488 126.108 184.69C124.148 182.891 121.104 183.025 119.308 184.988C117.513 186.952 117.647 190.002 119.606 191.8C121.566 193.599 124.611 193.465 126.406 191.502Z" stroke="#FCFCFC" stroke-miterlimit="10"/>
<path d="M131.076 224.365C132.955 222.482 132.956 219.429 131.076 217.546C129.197 215.663 126.149 215.663 124.27 217.546C122.39 219.429 122.39 222.482 124.27 224.365C126.149 226.248 129.197 226.248 131.076 224.365Z" stroke="#FCFCFC" stroke-miterlimit="10"/>
<path d="M150.924 192.568C152.804 190.685 152.804 187.633 150.924 185.75C149.045 183.867 145.998 183.867 144.118 185.75C142.239 187.633 142.239 190.685 144.118 192.568C145.998 194.451 149.045 194.451 150.924 192.568Z" stroke="#FCFCFC" stroke-miterlimit="10"/>
<path d="M152.647 227.036C155.235 226.427 156.839 223.832 156.231 221.24C155.623 218.647 153.032 217.04 150.445 217.649C147.857 218.259 146.253 220.854 146.861 223.446C147.469 226.039 150.06 227.646 152.647 227.036Z" stroke="#FCFCFC" stroke-miterlimit="10"/>
<path d="M146.104 174.859C148.69 174.245 150.29 171.646 149.676 169.055C149.063 166.464 146.469 164.862 143.883 165.476C141.297 166.091 139.697 168.689 140.311 171.28C140.924 173.871 143.518 175.473 146.104 174.859Z" stroke="#FCFCFC" stroke-miterlimit="10"/>
<path d="M138.102 207.702C139.723 207.702 141.037 206.386 141.037 204.762C141.037 203.138 139.723 201.821 138.102 201.821C136.481 201.821 135.167 203.138 135.167 204.762C135.167 206.386 136.481 207.702 138.102 207.702Z" stroke="#FCFCFC" stroke-miterlimit="10"/>
<path d="M165.404 200.316C167.026 200.316 168.34 198.999 168.34 197.375C168.34 195.751 167.026 194.435 165.404 194.435C163.783 194.435 162.469 195.751 162.469 197.375C162.469 198.999 163.783 200.316 165.404 200.316Z" stroke="#FCFCFC" stroke-miterlimit="10"/>
<path d="M166.143 176.599C166.143 177.181 165.971 177.749 165.648 178.233C165.326 178.716 164.868 179.093 164.331 179.316C163.795 179.538 163.205 179.596 162.635 179.483C162.066 179.37 161.543 179.089 161.132 178.678C160.722 178.267 160.442 177.743 160.329 177.173C160.216 176.602 160.274 176.011 160.496 175.474C160.718 174.936 161.095 174.477 161.577 174.154C162.06 173.831 162.627 173.658 163.208 173.658C163.986 173.658 164.733 173.968 165.283 174.52C165.834 175.071 166.143 175.819 166.143 176.599Z" stroke="#FCFCFC" stroke-miterlimit="10"/>
<path d="M117.409 206.303C117.409 206.885 117.237 207.453 116.914 207.937C116.592 208.42 116.133 208.797 115.597 209.02C115.06 209.242 114.47 209.301 113.901 209.187C113.332 209.074 112.809 208.794 112.398 208.382C111.988 207.971 111.708 207.447 111.595 206.877C111.481 206.306 111.54 205.715 111.762 205.178C111.984 204.641 112.36 204.181 112.843 203.858C113.326 203.535 113.893 203.363 114.474 203.363C115.252 203.364 115.997 203.674 116.548 204.225C117.098 204.777 117.407 205.524 117.409 206.303Z" stroke="#FCFCFC" stroke-miterlimit="10"/>
<path d="M127.672 176.599C129.293 176.599 130.607 175.282 130.607 173.658C130.607 172.034 129.293 170.718 127.672 170.718C126.051 170.718 124.737 172.034 124.737 173.658C124.737 175.282 126.051 176.599 127.672 176.599Z" stroke="#FCFCFC" stroke-miterlimit="10"/>
</g>
<path d="M129.554 104.986C129.554 104.986 135.89 115.947 143.613 120.636C143.613 120.636 147.904 114.35 147.201 101.198" stroke="#683F1D" stroke-miterlimit="10"/>
<path d="M141.518 120.972C141.518 121.412 141.648 121.842 141.892 122.208C142.136 122.574 142.483 122.86 142.889 123.028C143.295 123.197 143.742 123.241 144.173 123.155C144.604 123.069 145 122.857 145.31 122.546C145.621 122.234 145.833 121.838 145.918 121.406C146.004 120.974 145.96 120.527 145.792 120.12C145.624 119.713 145.339 119.366 144.974 119.121C144.608 118.877 144.179 118.746 143.739 118.746C143.15 118.746 142.585 118.981 142.169 119.398C141.752 119.815 141.518 120.382 141.518 120.972Z" fill="#FCFCFC"/>
<path d="M164.827 145.059C165.96 139.502 166.52 133.843 166.497 128.171C166.484 125.675 165.888 123.216 164.756 120.992C163.815 118.964 162.798 117.104 162.585 114.604" stroke="#FCCF5C" stroke-width="0.75" stroke-linecap="round" stroke-linejoin="round"/>
<path d="M122.176 132.292C122.176 132.292 121.938 132.911 121.533 133.859C120.535 136.28 119.351 138.619 117.99 140.856" stroke="#FCCF5C" stroke-width="0.75" stroke-linecap="round" stroke-linejoin="round"/>
<path d="M162.449 167.858H119.939C120.852 165.504 121.883 163.198 123.026 160.948L161.437 163.036C161.796 164.588 162.145 166.195 162.449 167.858Z" fill="#5A0C94"/>
<path d="M145.561 167.858V179.453" stroke="#5A0C94" stroke-width="0.75" stroke-linecap="round" stroke-linejoin="round"/>
<path d="M146.452 180.233C147.656 179.569 148.35 179.255 148.476 178.525C148.603 177.795 149.205 169.744 149.205 169.744" stroke="#5A0C94" stroke-width="0.75" stroke-linecap="round" stroke-linejoin="round"/>
<path d="M144.99 223.525C144.99 223.525 145.293 191.194 145.546 189.724C145.545 189.709 145.545 189.694 145.546 189.678C145.804 189.197 146.326 188.482 149.19 186.804" stroke="#5A0C94" stroke-width="0.75" stroke-linecap="round" stroke-linejoin="round"/>
<path d="M128.213 87.2972C125.945 87.0792 124.518 88.0121 123.461 89.9437C122.403 91.8753 121.067 93.8019 121.067 93.8019C121.067 93.8019 123.82 94.9274 126.507 91.8702C129.007 89.021 128.213 87.2972 128.213 87.2972Z" fill="#FCCF5C"/>
<path d="M129.868 88.1797C127.307 88.8641 126.108 89.8984 125.647 93.0062C125.187 96.1141 125.348 97.5387 125.02 98.7098C125.02 98.7098 128.299 97.9494 129.868 94.9987C131.361 92.1748 130.981 90.3648 129.868 88.1797Z" fill="#FCCF5C"/>
<path d="M133.096 71.5907C133.096 71.5907 130.627 76.9648 130.566 81.4719C130.528 82.4913 130.679 83.509 131.011 84.4732L128.274 84.7927C125.93 87.0487 121.695 86.2731 123.213 83.3934C120.682 84.9752 117.368 82.8103 119.012 80.5238C117.044 80.9902 116.042 77.8013 118.577 76.9749C116.467 76.7467 116.047 72.9748 118.906 72.7567C118.657 72.4974 118.486 72.1728 118.412 71.8202C118.339 71.4677 118.367 71.1016 118.492 70.7641C118.617 70.4266 118.835 70.1314 119.121 69.9126C119.406 69.6938 119.748 69.5602 120.106 69.5272C120.404 69.5184 120.7 69.5777 120.972 69.7007C121.244 69.8237 121.484 70.0071 121.674 70.237C120.45 65.8161 125.627 64.4067 127.216 66.7287C127.494 64.8579 130.996 64.6652 131.517 67.0785C134.159 65.6184 135.88 69.1673 133.096 71.5907Z" fill="#604730"/>
<path d="M131.032 84.4727L128.294 84.7921C125.951 87.0482 121.715 86.2726 123.233 83.3929C120.703 84.9747 117.388 82.8098 119.033 80.5233C117.064 80.9897 116.062 77.8008 118.597 76.9744C116.487 76.7462 116.067 72.9743 118.926 72.7562C118.677 72.4969 118.506 72.1723 118.433 71.8197C118.359 71.4672 118.387 71.1011 118.512 70.7636C118.638 70.4261 118.856 70.1309 119.141 69.9121C119.426 69.6932 119.768 69.5597 120.126 69.5267C119.944 71.0883 120.632 73.2987 122.15 73.4508C120.075 74.2164 120.09 76.6803 122.15 77.5473C120.86 78.9821 122.793 80.9999 124.407 79.8642C124.346 81.446 126.72 84.0215 130.556 81.446C130.524 82.4758 130.686 83.5025 131.032 84.4727Z" fill="#473526"/>
<path d="M146.158 96.4073C138.805 97.4213 132.388 89.127 132.388 89.127C129.032 90.3032 126.431 87.6922 127.479 85.071C127.668 84.5841 127.989 84.1594 128.405 83.8441C128.742 83.5916 129.131 83.4183 129.544 83.3371C129.861 83.2771 130.185 83.2652 130.505 83.3017C131.12 83.372 131.707 83.5973 132.211 83.9563C132.716 84.3154 133.121 84.7965 133.39 85.355C133.623 85.7606 135.186 85.6896 134.488 83.905C133.876 82.3536 133.208 82.4702 133.208 82.4702C134.22 82.1508 133.415 79.8795 132.195 80.204C133.208 79.7679 133.562 77.8465 132.428 77.162C133.648 77.0961 134.984 76.6094 134.488 74.7488C134.712 75.0204 135.011 75.221 135.346 75.326C135.682 75.4311 136.042 75.4361 136.38 75.3405C136.719 75.245 137.023 75.0529 137.255 74.7876C137.487 74.5223 137.636 74.1953 137.686 73.8463C137.911 74.0664 138.195 74.2164 138.504 74.2778C138.812 74.3393 139.132 74.3098 139.424 74.1927C139.716 74.0757 139.968 73.8762 140.149 73.6185C140.33 73.3608 140.433 73.056 140.444 72.7411C140.596 73.4255 141.396 73.6283 142.028 73.2481C143.456 74.8098 144.727 76.5079 145.824 78.318L145.864 78.3839C146.482 79.3471 147.064 80.3206 147.59 81.2889C151.583 88.625 152.63 95.5099 146.158 96.4073Z" fill="#B25E47"/>
<path d="M137.271 82.5676C137.003 83.4751 135.358 83.7844 133.602 83.2622C131.846 82.74 130.632 81.579 130.9 80.6714C131.168 79.7639 132.813 79.4597 134.569 79.9819C136.325 80.5041 137.54 81.6651 137.271 82.5676Z" fill="#A0503D"/>
<path d="M147.62 81.324C146.897 81.831 146.183 81.9932 145.717 81.6687C145.014 81.1922 145.115 79.803 145.895 78.4189C146.512 79.3822 147.094 80.3556 147.62 81.324Z" fill="#A0503D"/>
<path d="M130.51 83.3329C130.19 83.2964 129.866 83.3084 129.549 83.3684C129.136 83.4495 128.747 83.6228 128.41 83.8754C126.072 76.9905 132.236 73.4872 132.236 73.4872C129.888 76.9094 130.252 81.528 130.51 83.3329Z" fill="#FCFCFC"/>
<path d="M142.53 78.2476C142.529 78.3817 142.567 78.5132 142.641 78.6253C142.714 78.7375 142.819 78.8253 142.942 78.8778C143.066 78.9303 143.202 78.945 143.333 78.9202C143.465 78.8954 143.586 78.8321 143.682 78.7383C143.778 78.6445 143.843 78.5244 143.871 78.3932C143.899 78.2619 143.887 78.1254 143.838 78.0008C143.788 77.8762 143.703 77.7691 143.592 77.6931C143.482 77.617 143.352 77.5753 143.218 77.5733C143.128 77.5713 143.039 77.5872 142.956 77.6202C142.872 77.6532 142.796 77.7025 142.732 77.7653C142.668 77.8281 142.617 77.9032 142.582 77.986C142.547 78.0688 142.53 78.1577 142.53 78.2476Z" fill="#683F1D"/>
<path d="M138.116 79.6828C138.116 79.8171 138.156 79.9485 138.231 80.0602C138.305 80.1719 138.411 80.259 138.535 80.3104C138.659 80.3618 138.795 80.3753 138.927 80.3491C139.058 80.3229 139.179 80.2582 139.274 80.1632C139.369 80.0682 139.434 79.9471 139.46 79.8153C139.486 79.6835 139.472 79.5469 139.421 79.4228C139.37 79.2987 139.283 79.1926 139.171 79.1179C139.06 79.0433 138.929 79.0034 138.795 79.0034C138.706 79.0034 138.617 79.021 138.535 79.0551C138.453 79.0893 138.378 79.1393 138.315 79.2024C138.252 79.2655 138.202 79.3404 138.168 79.4228C138.134 79.5052 138.116 79.5936 138.116 79.6828Z" fill="#683F1D"/>
<path d="M142.631 72.6044C142.506 72.8752 142.308 73.1054 142.059 73.2686C141.426 73.6691 140.626 73.4663 140.475 72.7616C140.463 73.0765 140.361 73.3813 140.18 73.639C139.999 73.8967 139.747 74.0962 139.455 74.2132C139.162 74.3303 138.843 74.3598 138.534 74.2984C138.226 74.2369 137.942 74.087 137.717 73.8668C137.667 74.2159 137.517 74.5429 137.285 74.8081C137.053 75.0734 136.749 75.2655 136.411 75.361C136.072 75.4566 135.713 75.4516 135.377 75.3465C135.041 75.2415 134.743 75.0409 134.518 74.7693C135.024 76.6299 133.678 77.1166 132.459 77.1825C133.592 77.8568 133.213 79.7783 132.226 80.2245C133.42 79.9 134.25 82.1713 133.238 82.4907C133.238 82.4907 133.906 82.3741 134.518 83.9255C135.217 85.7101 133.653 85.7811 133.42 85.3755C133.085 84.6652 132.529 84.0832 131.835 83.7174C131.142 83.3516 130.348 83.2218 129.574 83.3475C129.24 81.9497 129.173 80.5014 129.377 79.0787C129.693 76.9381 130.705 74.9618 132.256 73.4562C131.163 71.7223 133.223 69.456 134.943 70.7641C134.721 69.1873 137.433 68.1886 138.46 70.0746C139.053 68.3812 141.568 69.4155 141.284 70.6677C142.104 70.2216 143.218 71.3877 142.631 72.6044Z" fill="#604730"/>
<path d="M140.115 77.5731C141.78 81.1474 144.306 79.1904 144.943 81.8876" stroke="#934735" stroke-width="0.75" stroke-linecap="round" stroke-linejoin="round"/>
<path d="M138.708 83.5555C141.593 84.3718 143.607 83.8395 144.083 83.5555C144.083 83.5555 144.366 86.1209 141.785 85.913C141.09 85.8968 140.417 85.6598 139.864 85.2361C139.311 84.8125 138.906 84.2241 138.708 83.5555Z" fill="#FCFCFC" stroke="#934735" stroke-width="0.75" stroke-linecap="round" stroke-linejoin="round"/>
<path d="M128.992 86.4907C129.351 84.6706 132.185 84.6909 132.712 87.2968" stroke="#934735" stroke-width="0.75" stroke-linecap="round" stroke-linejoin="round"/>
<path d="M131.274 88.1792C129.69 87.7686 130.439 85.3654 132.17 86.0549" stroke="#934735" stroke-width="0.75" stroke-linecap="round" stroke-linejoin="round"/>
<path d="M135.748 78.0698C135.622 78.9165 138.785 77.0863 138.132 76.0419C137.479 74.9975 135.864 77.2485 135.748 78.0698Z" fill="#604730"/>
<path d="M143.8 74.962C144.458 75.5095 140.88 76.2751 140.687 75.0735C140.495 73.8719 143.162 74.4296 143.8 74.962Z" fill="#604730"/>
<path d="M112.945 148.515C110.369 148.002 107.767 147.63 105.151 147.4" stroke="#934735" stroke-width="0.75" stroke-linecap="round" stroke-linejoin="round"/>
<path d="M105.151 147.4C95.8601 146.579 89.0281 154.356 93.1728 160.318C98.4157 167.857 131.978 165.931 135.425 165.845C137.611 165.794 137.449 167.406 140.794 167.72C142.818 167.918 145.915 167.928 146.568 167.599C147.059 167.269 147.455 166.816 147.717 166.286C147.717 166.286 149.63 167.051 150.394 164.861C150.394 164.861 152.342 165.302 152.661 162.559C152.661 162.559 153.84 164.03 154.928 163.492C156.173 162.879 156.351 161.971 155.475 160.81C154.6 159.649 150.996 155.548 149.797 155.117C148.598 154.686 139.59 156.283 138.051 155.938C130.323 154.209 119.747 148.688 105.151 147.4Z" fill="#B25E47"/>
<path d="M144.468 167.852C145.177 167.878 145.886 167.792 146.568 167.599C147.059 167.269 147.455 166.816 147.717 166.285C147.717 166.285 149.63 167.051 150.394 164.861C150.394 164.861 152.342 165.302 152.661 162.559C152.661 162.559 153.84 164.029 154.928 163.492C156.173 162.878 156.351 161.971 155.475 160.81C154.6 159.649 150.996 155.547 149.797 155.116" stroke="#934735" stroke-width="0.75" stroke-linecap="round" stroke-linejoin="round"/>
<path d="M152.909 162.833L150.166 159.822" stroke="#934735" stroke-width="0.75" stroke-linecap="round" stroke-linejoin="round"/>
<path d="M150.394 164.861L147.52 163.036" stroke="#934735" stroke-width="0.75" stroke-linecap="round" stroke-linejoin="round"/>
<path d="M147.717 166.286L145.753 165.683" stroke="#934735" stroke-width="0.75" stroke-linecap="round" stroke-linejoin="round"/>
<path d="M322.931 220.363H5.06902C2.26948 220.363 0 222.854 0 225.927V226.799C0 229.872 2.26948 232.363 5.06902 232.363H322.931C325.731 232.363 328 229.872 328 226.799V225.927C328 222.854 325.731 220.363 322.931 220.363Z" fill="#EDEDED"/>
<path d="M9.88354 231.769C18.1831 227.794 30.4957 226.917 39.8783 231.769" stroke="#DEDEDE" stroke-width="0.75" stroke-linecap="round" stroke-linejoin="round"/>
<path d="M7.01904 220.949C15.2022 225.512 20.6424 225.142 30.7385 225.005C38.2587 224.909 47.3123 228.747 53.3396 231.764" stroke="#DEDEDE" stroke-width="0.75" stroke-linecap="round" stroke-linejoin="round"/>
<path d="M45.8601 220.949C51.7963 227.637 55.9157 228.473 57.9096 226.749C60.025 224.919 62.2011 224.422 64.448 226.354C67.0492 228.595 70.6676 224.057 72.702 220.949" stroke="#DEDEDE" stroke-width="0.75" stroke-linecap="round" stroke-linejoin="round"/>
<path d="M69.0078 231.769C71.4066 229.554 75.6829 226.816 82.3427 226.36C90.2374 225.853 100.268 229.493 105.622 231.769" stroke="#DEDEDE" stroke-width="0.75" stroke-linecap="round" stroke-linejoin="round"/>
<path d="M95.2573 220.949C104.518 225.817 114.64 228.666 122.818 226.354C130.799 224.108 149.857 226.907 156.79 220.949" stroke="#DEDEDE" stroke-width="0.75" stroke-linecap="round" stroke-linejoin="round"/>
<path d="M130.384 231.769C136.315 228.388 145.566 226.319 152.762 231.769" stroke="#DEDEDE" stroke-width="0.75" stroke-linecap="round" stroke-linejoin="round"/>
<path d="M162.954 231.769C173.982 223.18 195.996 221.629 214.381 226.314C236.142 231.865 245.899 225.457 249.852 220.955" stroke="#DEDEDE" stroke-width="0.75" stroke-linecap="round" stroke-linejoin="round"/>
<path d="M182.782 231.769C190.768 228.174 201.507 227.434 212.848 231.769" stroke="#DEDEDE" stroke-width="0.75" stroke-linecap="round" stroke-linejoin="round"/>
<path d="M252.392 231.769C265.762 225.533 276.461 226.258 286.379 231.769" stroke="#DEDEDE" stroke-width="0.75" stroke-linecap="round" stroke-linejoin="round"/>
<path d="M271.253 220.949C293.282 228.362 311.511 234.101 323.52 224.042" stroke="#DEDEDE" stroke-width="0.75" stroke-linecap="round" stroke-linejoin="round"/>
<path d="M288.824 220.949C300.003 227.54 313.06 227.033 321.096 221.543" stroke="#DEDEDE" stroke-width="0.75" stroke-linecap="round" stroke-linejoin="round"/>
<rect x="7.64697" y="160.461" width="113" height="45" rx="15.5" fill="#FCFCFC"/>
<rect x="7.64697" y="160.461" width="113" height="45" rx="15.5" stroke="#C3C3C3"/>
<path d="M22.3521 176.302C22.3521 176.894 22.2039 177.4 21.9077 177.82C21.616 178.234 21.2059 178.551 20.6772 178.77C20.1486 178.989 19.5265 179.098 18.811 179.098C18.4328 179.098 18.075 179.08 17.7378 179.043C17.4006 179.007 17.0907 178.954 16.8081 178.886C16.5256 178.818 16.2772 178.733 16.063 178.633V177.519C16.4048 177.66 16.8218 177.792 17.314 177.915C17.8062 178.034 18.3211 178.093 18.8589 178.093C19.3602 178.093 19.784 178.027 20.1304 177.895C20.4767 177.758 20.7388 177.564 20.9165 177.314C21.0988 177.059 21.1899 176.753 21.1899 176.398C21.1899 176.056 21.1147 175.771 20.9644 175.543C20.814 175.311 20.5633 175.101 20.2124 174.914C19.866 174.723 19.3921 174.52 18.7905 174.306C18.3667 174.156 17.993 173.991 17.6694 173.814C17.3459 173.631 17.0747 173.426 16.856 173.198C16.6372 172.971 16.4709 172.706 16.3569 172.406C16.2476 172.105 16.1929 171.761 16.1929 171.373C16.1929 170.84 16.3273 170.384 16.5962 170.006C16.8696 169.623 17.2456 169.332 17.7241 169.131C18.2072 168.926 18.7609 168.823 19.3853 168.823C19.9185 168.823 20.4106 168.874 20.8618 168.974C21.3175 169.074 21.7345 169.209 22.1128 169.377L21.7505 170.375C21.3905 170.225 21.0076 170.1 20.6021 169.999C20.201 169.899 19.7863 169.849 19.3579 169.849C18.9295 169.849 18.5672 169.913 18.271 170.04C17.9793 170.163 17.756 170.339 17.6011 170.567C17.4461 170.795 17.3687 171.066 17.3687 171.38C17.3687 171.731 17.4416 172.023 17.5874 172.255C17.7378 172.488 17.9748 172.695 18.2983 172.877C18.6265 173.055 19.0594 173.242 19.5972 173.438C20.1851 173.652 20.6841 173.88 21.0942 174.121C21.5044 174.358 21.8166 174.65 22.0308 174.996C22.245 175.338 22.3521 175.773 22.3521 176.302ZM27.2261 179.098C26.5516 179.098 25.9569 178.959 25.4419 178.681C24.9269 178.403 24.5259 177.979 24.2388 177.409C23.9517 176.84 23.8081 176.122 23.8081 175.256C23.8081 174.349 23.9585 173.609 24.2593 173.034C24.5646 172.456 24.9839 172.027 25.5171 171.749C26.0503 171.471 26.6564 171.332 27.3354 171.332C27.7091 171.332 28.0692 171.371 28.4155 171.448C28.7664 171.521 29.0535 171.615 29.2769 171.729L28.9351 172.679C28.7072 172.588 28.4429 172.506 28.1421 172.433C27.8459 172.36 27.5679 172.323 27.3081 172.323C26.7886 172.323 26.3556 172.435 26.0093 172.658C25.6675 172.882 25.41 173.21 25.2368 173.643C25.0682 174.076 24.9839 174.609 24.9839 175.242C24.9839 175.849 25.0659 176.366 25.23 176.794C25.3986 177.223 25.647 177.551 25.9751 177.779C26.3078 178.002 26.7225 178.114 27.2192 178.114C27.6157 178.114 27.9735 178.073 28.2925 177.99C28.6115 177.904 28.9009 177.804 29.1606 177.69V178.701C28.91 178.829 28.6297 178.927 28.3198 178.995C28.0145 179.064 27.6499 179.098 27.2261 179.098ZM34.3423 171.332C34.4927 171.332 34.6499 171.341 34.814 171.36C34.978 171.373 35.1239 171.394 35.2515 171.421L35.1079 172.474C34.9849 172.442 34.8481 172.417 34.6978 172.399C34.5474 172.38 34.4061 172.371 34.2739 172.371C33.9731 172.371 33.6883 172.433 33.4194 172.556C33.1551 172.674 32.9227 172.848 32.7222 173.075C32.5216 173.299 32.3644 173.57 32.2505 173.889C32.1366 174.203 32.0796 174.554 32.0796 174.942V178.961H30.938V171.469H31.8813L32.0044 172.85H32.0522C32.2072 172.572 32.394 172.319 32.6128 172.091C32.8315 171.859 33.0845 171.674 33.3716 171.537C33.6632 171.401 33.9868 171.332 34.3423 171.332ZM42.853 171.469V178.961H41.9233L41.7593 177.908H41.6978C41.5428 178.168 41.3423 178.387 41.0962 178.565C40.8501 178.742 40.5721 178.875 40.2622 178.961C39.9569 179.052 39.631 179.098 39.2847 179.098C38.6922 179.098 38.1955 179.002 37.7944 178.811C37.3934 178.619 37.0903 178.323 36.8853 177.922C36.6847 177.521 36.5845 177.006 36.5845 176.377V171.469H37.7329V176.295C37.7329 176.92 37.8742 177.387 38.1567 177.697C38.4393 178.002 38.87 178.155 39.4487 178.155C40.0047 178.155 40.4468 178.05 40.7749 177.84C41.1076 177.63 41.3468 177.323 41.4927 176.917C41.6385 176.507 41.7114 176.006 41.7114 175.413V171.469H42.853ZM53.3872 171.332C54.2121 171.332 54.8341 171.549 55.2534 171.982C55.6727 172.41 55.8823 173.101 55.8823 174.053V178.961H54.7612V174.108C54.7612 173.502 54.6291 173.048 54.3647 172.747C54.105 172.442 53.7176 172.289 53.2026 172.289C52.478 172.289 51.9517 172.499 51.6235 172.918C51.2954 173.337 51.1313 173.955 51.1313 174.771V178.961H50.0034V174.108C50.0034 173.702 49.9442 173.365 49.8257 173.096C49.7118 172.827 49.5386 172.627 49.3062 172.494C49.0783 172.358 48.7889 172.289 48.438 172.289C47.9412 172.289 47.5425 172.392 47.2417 172.597C46.9409 172.802 46.7222 173.107 46.5854 173.513C46.4533 173.914 46.3872 174.408 46.3872 174.996V178.961H45.2524V171.469H46.1685L46.3394 172.529H46.4009C46.5513 172.269 46.7404 172.05 46.9683 171.872C47.1961 171.695 47.4513 171.56 47.7339 171.469C48.0164 171.378 48.3172 171.332 48.6362 171.332C49.2059 171.332 49.6821 171.439 50.0649 171.654C50.4523 171.863 50.7326 172.184 50.9058 172.617H50.9673C51.2134 172.184 51.5506 171.863 51.979 171.654C52.4074 171.439 52.8768 171.332 53.3872 171.332ZM66.4165 178.961L63.0601 170.115H63.0054C63.0236 170.302 63.0396 170.53 63.0532 170.799C63.0669 171.068 63.0783 171.362 63.0874 171.681C63.0965 171.995 63.1011 172.317 63.1011 172.645V178.961H62.021V168.967H63.7437L66.9087 177.28H66.9565L70.1694 168.967H71.8784V178.961H70.73V172.563C70.73 172.267 70.7345 171.97 70.7437 171.674C70.7528 171.373 70.7642 171.091 70.7778 170.826C70.7915 170.558 70.8052 170.325 70.8188 170.129H70.7642L67.3667 178.961H66.4165ZM77.2446 171.346C78.1379 171.346 78.8009 171.546 79.2339 171.948C79.6668 172.349 79.8833 172.989 79.8833 173.868V178.961H79.0562L78.8374 177.854H78.7827C78.5731 178.127 78.3543 178.357 78.1265 178.544C77.8986 178.726 77.6343 178.865 77.3335 178.961C77.0373 179.052 76.6727 179.098 76.2397 179.098C75.784 179.098 75.3784 179.018 75.0229 178.859C74.672 178.699 74.394 178.458 74.189 178.134C73.9884 177.81 73.8882 177.4 73.8882 176.904C73.8882 176.156 74.1844 175.582 74.7769 175.181C75.3693 174.78 76.2716 174.561 77.4839 174.525L78.7759 174.47V174.012C78.7759 173.365 78.6369 172.911 78.3589 172.652C78.0809 172.392 77.689 172.262 77.1831 172.262C76.7912 172.262 76.4175 172.319 76.062 172.433C75.7065 172.547 75.3693 172.681 75.0503 172.836L74.7017 171.975C75.0389 171.802 75.4263 171.654 75.8638 171.531C76.3013 171.407 76.7616 171.346 77.2446 171.346ZM78.7622 175.27L77.6206 175.318C76.6864 175.354 76.0278 175.507 75.645 175.776C75.2622 176.045 75.0708 176.425 75.0708 176.917C75.0708 177.346 75.2007 177.662 75.4604 177.867C75.7202 178.073 76.0643 178.175 76.4927 178.175C77.158 178.175 77.7026 177.99 78.1265 177.621C78.5503 177.252 78.7622 176.698 78.7622 175.96V175.27ZM87.0679 176.91C87.0679 177.389 86.9471 177.792 86.7056 178.12C86.4686 178.444 86.1268 178.688 85.6802 178.852C85.2381 179.016 84.7095 179.098 84.0942 179.098C83.5701 179.098 83.1167 179.057 82.7339 178.975C82.3511 178.893 82.0161 178.777 81.729 178.626V177.58C82.0343 177.731 82.3989 177.867 82.8228 177.99C83.2466 178.114 83.6795 178.175 84.1216 178.175C84.7687 178.175 85.2381 178.07 85.5298 177.861C85.8215 177.651 85.9673 177.366 85.9673 177.006C85.9673 176.801 85.908 176.621 85.7896 176.466C85.6756 176.307 85.4819 176.154 85.2085 176.008C84.9351 175.858 84.5568 175.694 84.0737 175.516C83.5952 175.334 83.1805 175.154 82.8296 174.976C82.4832 174.794 82.2144 174.573 82.0229 174.313C81.8361 174.053 81.7427 173.716 81.7427 173.301C81.7427 172.668 81.9979 172.182 82.5083 171.845C83.0233 171.503 83.6978 171.332 84.5317 171.332C84.9829 171.332 85.4045 171.378 85.7964 171.469C86.1929 171.556 86.562 171.674 86.9038 171.824L86.521 172.734C86.2111 172.601 85.8807 172.49 85.5298 172.399C85.1789 172.308 84.8211 172.262 84.4565 172.262C83.9325 172.262 83.5291 172.349 83.2466 172.522C82.9686 172.695 82.8296 172.932 82.8296 173.233C82.8296 173.465 82.8934 173.656 83.021 173.807C83.1532 173.957 83.3628 174.099 83.6499 174.231C83.937 174.363 84.3153 174.518 84.7847 174.696C85.2541 174.869 85.6597 175.049 86.0015 175.236C86.3433 175.418 86.6053 175.641 86.7876 175.906C86.9744 176.165 87.0679 176.5 87.0679 176.91ZM91.313 178.168C91.4998 178.168 91.6912 178.152 91.8872 178.12C92.0832 178.088 92.2427 178.05 92.3657 178.004V178.886C92.2336 178.945 92.049 178.995 91.812 179.036C91.5796 179.077 91.3517 179.098 91.1284 179.098C90.7319 179.098 90.3719 179.03 90.0483 178.893C89.7248 178.752 89.465 178.515 89.269 178.182C89.0776 177.849 88.9819 177.389 88.9819 176.801V172.358H87.9155V171.804L88.9888 171.36L89.4399 169.733H90.1235V171.469H92.3179V172.358H90.1235V176.767C90.1235 177.236 90.2306 177.587 90.4448 177.82C90.6636 178.052 90.953 178.168 91.313 178.168ZM96.7681 171.332C97.4061 171.332 97.953 171.474 98.4087 171.756C98.8644 172.039 99.2131 172.435 99.4546 172.946C99.6961 173.451 99.8169 174.044 99.8169 174.723V175.427H94.6421C94.6558 176.307 94.8745 176.976 95.2983 177.437C95.7222 177.897 96.3192 178.127 97.0894 178.127C97.5633 178.127 97.9826 178.084 98.3472 177.997C98.7118 177.911 99.09 177.783 99.4819 177.615V178.613C99.1037 178.781 98.7277 178.904 98.354 178.982C97.9849 179.059 97.5474 179.098 97.0415 179.098C96.3215 179.098 95.6925 178.952 95.1548 178.66C94.6216 178.364 94.2069 177.931 93.9106 177.362C93.6144 176.792 93.4663 176.095 93.4663 175.27C93.4663 174.463 93.6007 173.766 93.8696 173.178C94.1431 172.586 94.5259 172.13 95.0181 171.811C95.5148 171.492 96.0981 171.332 96.7681 171.332ZM96.7544 172.262C96.1483 172.262 95.6652 172.46 95.3052 172.857C94.9451 173.253 94.731 173.807 94.6626 174.518H98.6274C98.6229 174.071 98.5522 173.679 98.4155 173.342C98.2834 173 98.0806 172.736 97.8071 172.549C97.5337 172.358 97.1828 172.262 96.7544 172.262ZM105.149 171.332C105.299 171.332 105.457 171.341 105.621 171.36C105.785 171.373 105.931 171.394 106.058 171.421L105.915 172.474C105.792 172.442 105.655 172.417 105.504 172.399C105.354 172.38 105.213 172.371 105.081 172.371C104.78 172.371 104.495 172.433 104.226 172.556C103.962 172.674 103.729 172.848 103.529 173.075C103.328 173.299 103.171 173.57 103.057 173.889C102.943 174.203 102.886 174.554 102.886 174.942V178.961H101.745V171.469H102.688L102.811 172.85H102.859C103.014 172.572 103.201 172.319 103.419 172.091C103.638 171.859 103.891 171.674 104.178 171.537C104.47 171.401 104.793 171.332 105.149 171.332ZM112.32 176.91C112.32 177.389 112.199 177.792 111.958 178.12C111.721 178.444 111.379 178.688 110.932 178.852C110.49 179.016 109.961 179.098 109.346 179.098C108.822 179.098 108.369 179.057 107.986 178.975C107.603 178.893 107.268 178.777 106.981 178.626V177.58C107.286 177.731 107.651 177.867 108.075 177.99C108.499 178.114 108.931 178.175 109.374 178.175C110.021 178.175 110.49 178.07 110.782 177.861C111.073 177.651 111.219 177.366 111.219 177.006C111.219 176.801 111.16 176.621 111.042 176.466C110.928 176.307 110.734 176.154 110.46 176.008C110.187 175.858 109.809 175.694 109.326 175.516C108.847 175.334 108.432 175.154 108.082 174.976C107.735 174.794 107.466 174.573 107.275 174.313C107.088 174.053 106.995 173.716 106.995 173.301C106.995 172.668 107.25 172.182 107.76 171.845C108.275 171.503 108.95 171.332 109.784 171.332C110.235 171.332 110.656 171.378 111.048 171.469C111.445 171.556 111.814 171.674 112.156 171.824L111.773 172.734C111.463 172.601 111.133 172.49 110.782 172.399C110.431 172.308 110.073 172.262 109.708 172.262C109.184 172.262 108.781 172.349 108.499 172.522C108.221 172.695 108.082 172.932 108.082 173.233C108.082 173.465 108.145 173.656 108.273 173.807C108.405 173.957 108.615 174.099 108.902 174.231C109.189 174.363 109.567 174.518 110.037 174.696C110.506 174.869 110.912 175.049 111.253 175.236C111.595 175.418 111.857 175.641 112.04 175.906C112.226 176.165 112.32 176.5 112.32 176.91ZM50.4409 194.126C50.4409 193.356 50.5138 192.606 50.6597 191.877C50.8101 191.148 51.0379 190.453 51.3433 189.792C51.6486 189.131 52.0337 188.523 52.4985 187.967H53.5854C52.9246 188.833 52.4279 189.795 52.0952 190.852C51.7625 191.909 51.5962 192.996 51.5962 194.113C51.5962 194.842 51.6691 195.562 51.8149 196.273C51.9653 196.979 52.1864 197.66 52.478 198.317C52.7743 198.973 53.1388 199.593 53.5718 200.176H52.4985C52.0337 199.629 51.6486 199.032 51.3433 198.385C51.0379 197.742 50.8101 197.061 50.6597 196.341C50.5138 195.621 50.4409 194.883 50.4409 194.126ZM61.0161 195.302C61.0161 195.894 60.868 196.4 60.5718 196.82C60.2801 197.234 59.87 197.551 59.3413 197.77C58.8127 197.989 58.1906 198.098 57.4751 198.098C57.0968 198.098 56.7391 198.08 56.4019 198.043C56.0646 198.007 55.7547 197.954 55.4722 197.886C55.1896 197.818 54.9412 197.733 54.7271 197.633V196.519C55.0688 196.66 55.4858 196.792 55.978 196.915C56.4702 197.034 56.9852 197.093 57.5229 197.093C58.0243 197.093 58.4481 197.027 58.7944 196.895C59.1408 196.758 59.4028 196.564 59.5806 196.314C59.7629 196.059 59.854 195.753 59.854 195.398C59.854 195.056 59.7788 194.771 59.6284 194.543C59.478 194.311 59.2274 194.101 58.8765 193.914C58.5301 193.723 58.0562 193.52 57.4546 193.306C57.0308 193.156 56.6571 192.991 56.3335 192.814C56.0099 192.631 55.7388 192.426 55.52 192.198C55.3013 191.971 55.1349 191.706 55.021 191.406C54.9116 191.105 54.8569 190.761 54.8569 190.373C54.8569 189.84 54.9914 189.384 55.2603 189.006C55.5337 188.623 55.9097 188.332 56.3882 188.131C56.8713 187.926 57.425 187.823 58.0493 187.823C58.5825 187.823 59.0747 187.874 59.5259 187.974C59.9816 188.074 60.3986 188.209 60.7769 188.377L60.4146 189.375C60.0545 189.225 59.6717 189.1 59.2661 188.999C58.8651 188.899 58.4504 188.849 58.022 188.849C57.5936 188.849 57.2313 188.913 56.9351 189.04C56.6434 189.163 56.4201 189.339 56.2651 189.567C56.1102 189.795 56.0327 190.066 56.0327 190.38C56.0327 190.731 56.1056 191.023 56.2515 191.255C56.4019 191.488 56.6388 191.695 56.9624 191.877C57.2905 192.055 57.7235 192.242 58.2612 192.438C58.8491 192.652 59.3481 192.88 59.7583 193.121C60.1685 193.358 60.4806 193.65 60.6948 193.996C60.909 194.338 61.0161 194.773 61.0161 195.302ZM67.4556 197.961L64.0991 189.115H64.0444C64.0627 189.302 64.0786 189.53 64.0923 189.799C64.106 190.068 64.1174 190.362 64.1265 190.681C64.1356 190.995 64.1401 191.317 64.1401 191.645V197.961H63.0601V187.967H64.7827L67.9478 196.28H67.9956L71.2085 187.967H72.9175V197.961H71.769V191.563C71.769 191.267 71.7736 190.97 71.7827 190.674C71.7918 190.373 71.8032 190.091 71.8169 189.826C71.8306 189.558 71.8442 189.325 71.8579 189.129H71.8032L68.4058 197.961H67.4556ZM77.853 194.113C77.853 194.874 77.7778 195.616 77.6274 196.341C77.4816 197.061 77.256 197.745 76.9507 198.392C76.6499 199.039 76.2648 199.634 75.7954 200.176H74.7222C75.1597 199.597 75.5243 198.977 75.8159 198.317C76.1121 197.656 76.3332 196.972 76.479 196.266C76.6294 195.555 76.7046 194.835 76.7046 194.106C76.7046 193.363 76.6294 192.631 76.479 191.911C76.3286 191.191 76.1053 190.499 75.8091 189.833C75.5174 189.168 75.1506 188.546 74.7085 187.967H75.7954C76.2648 188.528 76.6499 189.138 76.9507 189.799C77.256 190.455 77.4816 191.148 77.6274 191.877C77.7778 192.602 77.853 193.347 77.853 194.113Z" fill="#252525"/>
<rect x="242.5" y="22.863" width="85" height="45" rx="15.5" fill="#FCFCFC"/>
<rect x="242.5" y="22.863" width="85" height="45" rx="15.5" stroke="#C3C3C3"/>
<path d="M263.426 41.363L262.195 38.1912H258.189L256.966 41.363H255.79L259.7 31.3279H260.746L264.629 41.363H263.426ZM261.847 37.1589L260.678 34.0076C260.65 33.9255 260.605 33.7911 260.541 33.6042C260.482 33.4174 260.42 33.2237 260.356 33.0232C260.293 32.8227 260.24 32.6609 260.199 32.5378C260.154 32.7247 260.104 32.9115 260.049 33.0984C259.999 33.2807 259.949 33.4516 259.898 33.6111C259.848 33.766 259.805 33.8982 259.769 34.0076L258.579 37.1589H261.847ZM269.394 33.7341C270.282 33.7341 270.954 33.9529 271.41 34.3904C271.866 34.8233 272.094 35.5206 272.094 36.4822V41.363H270.973V36.5574C270.973 35.933 270.829 35.4659 270.542 35.156C270.259 34.8461 269.824 34.6912 269.236 34.6912C268.407 34.6912 267.824 34.9259 267.486 35.3953C267.149 35.8647 266.98 36.546 266.98 37.4392V41.363H265.846V33.8708H266.762L266.933 34.9509H266.994C267.154 34.6866 267.356 34.4656 267.603 34.2878C267.849 34.1056 268.124 33.9688 268.43 33.8777C268.735 33.782 269.056 33.7341 269.394 33.7341ZM277.234 33.7478C278.128 33.7478 278.791 33.9483 279.224 34.3494C279.657 34.7504 279.873 35.3907 279.873 36.2703V41.363H279.046L278.827 40.2556H278.772C278.563 40.5291 278.344 40.7592 278.116 40.946C277.888 41.1283 277.624 41.2673 277.323 41.363C277.027 41.4542 276.662 41.4998 276.229 41.4998C275.774 41.4998 275.368 41.42 275.013 41.2605C274.662 41.101 274.384 40.8595 274.179 40.5359C273.978 40.2123 273.878 39.8022 273.878 39.3054C273.878 38.558 274.174 37.9838 274.767 37.5828C275.359 37.1817 276.261 36.963 277.474 36.9265L278.766 36.8718V36.4138C278.766 35.7667 278.627 35.3132 278.349 35.0535C278.071 34.7937 277.679 34.6638 277.173 34.6638C276.781 34.6638 276.407 34.7208 276.052 34.8347C275.696 34.9486 275.359 35.0831 275.04 35.238L274.691 34.3767C275.029 34.2035 275.416 34.0554 275.854 33.9324C276.291 33.8093 276.751 33.7478 277.234 33.7478ZM278.752 37.6716L277.61 37.7195C276.676 37.7559 276.018 37.9086 275.635 38.1775C275.252 38.4464 275.061 38.8269 275.061 39.3191C275.061 39.7475 275.19 40.0642 275.45 40.2693C275.71 40.4744 276.054 40.5769 276.482 40.5769C277.148 40.5769 277.692 40.3923 278.116 40.0232C278.54 39.6541 278.752 39.1003 278.752 38.3621V37.6716ZM283.353 41.363H282.211V30.7263H283.353V41.363ZM286.887 33.8708V41.363H285.752V33.8708H286.887ZM286.333 31.0681C286.52 31.0681 286.679 31.1296 286.812 31.2527C286.948 31.3712 287.017 31.558 287.017 31.8132C287.017 32.0639 286.948 32.2507 286.812 32.3738C286.679 32.4968 286.52 32.5583 286.333 32.5583C286.137 32.5583 285.973 32.4968 285.841 32.3738C285.713 32.2507 285.649 32.0639 285.649 31.8132C285.649 31.558 285.713 31.3712 285.841 31.2527C285.973 31.1296 286.137 31.0681 286.333 31.0681ZM294.14 39.3123C294.14 39.7908 294.019 40.1941 293.777 40.5222C293.54 40.8458 293.199 41.0896 292.752 41.2537C292.31 41.4177 291.781 41.4998 291.166 41.4998C290.642 41.4998 290.188 41.4587 289.806 41.3767C289.423 41.2947 289.088 41.1785 288.801 41.0281V39.9822C289.106 40.1326 289.471 40.2693 289.895 40.3923C290.318 40.5154 290.751 40.5769 291.193 40.5769C291.84 40.5769 292.31 40.4721 292.602 40.2625C292.893 40.0528 293.039 39.768 293.039 39.408C293.039 39.2029 292.98 39.0229 292.861 38.8679C292.747 38.7084 292.554 38.5557 292.28 38.4099C292.007 38.2595 291.629 38.0955 291.146 37.9177C290.667 37.7354 290.252 37.5554 289.901 37.3777C289.555 37.1954 289.286 36.9744 289.095 36.7146C288.908 36.4548 288.814 36.1176 288.814 35.7029C288.814 35.0694 289.07 34.5841 289.58 34.2468C290.095 33.905 290.77 33.7341 291.604 33.7341C292.055 33.7341 292.476 33.7797 292.868 33.8708C293.265 33.9574 293.634 34.0759 293.976 34.2263L293.593 35.1355C293.283 35.0033 292.952 34.8917 292.602 34.8005C292.251 34.7094 291.893 34.6638 291.528 34.6638C291.004 34.6638 290.601 34.7504 290.318 34.9236C290.04 35.0968 289.901 35.3337 289.901 35.6345C289.901 35.8669 289.965 36.0583 290.093 36.2087C290.225 36.3591 290.435 36.5004 290.722 36.6326C291.009 36.7647 291.387 36.9197 291.856 37.0974C292.326 37.2706 292.731 37.4506 293.073 37.6375C293.415 37.8197 293.677 38.0431 293.859 38.3074C294.046 38.5671 294.14 38.9021 294.14 39.3123ZM298.385 40.5701C298.572 40.5701 298.763 40.5541 298.959 40.5222C299.155 40.4903 299.314 40.4516 299.438 40.406V41.2878C299.305 41.3471 299.121 41.3972 298.884 41.4382C298.651 41.4792 298.424 41.4998 298.2 41.4998C297.804 41.4998 297.444 41.4314 297.12 41.2947C296.797 41.1534 296.537 40.9164 296.341 40.5837C296.149 40.2511 296.054 39.7908 296.054 39.2029V34.7595H294.987V34.2058L296.061 33.7615L296.512 32.1345H297.195V33.8708H299.39V34.7595H297.195V39.1687C297.195 39.6381 297.302 39.989 297.517 40.2214C297.735 40.4539 298.025 40.5701 298.385 40.5701ZM303.758 33.7478C304.651 33.7478 305.314 33.9483 305.747 34.3494C306.18 34.7504 306.396 35.3907 306.396 36.2703V41.363H305.569L305.351 40.2556H305.296C305.086 40.5291 304.868 40.7592 304.64 40.946C304.412 41.1283 304.147 41.2673 303.847 41.363C303.55 41.4542 303.186 41.4998 302.753 41.4998C302.297 41.4998 301.892 41.42 301.536 41.2605C301.185 41.101 300.907 40.8595 300.702 40.5359C300.502 40.2123 300.401 39.8022 300.401 39.3054C300.401 38.558 300.698 37.9838 301.29 37.5828C301.882 37.1817 302.785 36.963 303.997 36.9265L305.289 36.8718V36.4138C305.289 35.7667 305.15 35.3132 304.872 35.0535C304.594 34.7937 304.202 34.6638 303.696 34.6638C303.304 34.6638 302.931 34.7208 302.575 34.8347C302.22 34.9486 301.882 35.0831 301.563 35.238L301.215 34.3767C301.552 34.2035 301.939 34.0554 302.377 33.9324C302.814 33.8093 303.275 33.7478 303.758 33.7478ZM305.275 37.6716L304.134 37.7195C303.2 37.7559 302.541 37.9086 302.158 38.1775C301.775 38.4464 301.584 38.8269 301.584 39.3191C301.584 39.7475 301.714 40.0642 301.974 40.2693C302.233 40.4744 302.577 40.5769 303.006 40.5769C303.671 40.5769 304.216 40.3923 304.64 40.0232C305.063 39.6541 305.275 39.1003 305.275 38.3621V37.6716ZM313.581 39.3123C313.581 39.7908 313.46 40.1941 313.219 40.5222C312.982 40.8458 312.64 41.0896 312.193 41.2537C311.751 41.4177 311.223 41.4998 310.607 41.4998C310.083 41.4998 309.63 41.4587 309.247 41.3767C308.864 41.2947 308.529 41.1785 308.242 41.0281V39.9822C308.548 40.1326 308.912 40.2693 309.336 40.3923C309.76 40.5154 310.193 40.5769 310.635 40.5769C311.282 40.5769 311.751 40.4721 312.043 40.2625C312.335 40.0528 312.48 39.768 312.48 39.408C312.48 39.2029 312.421 39.0229 312.303 38.8679C312.189 38.7084 311.995 38.5557 311.722 38.4099C311.448 38.2595 311.07 38.0955 310.587 37.9177C310.108 37.7354 309.694 37.5554 309.343 37.3777C308.996 37.1954 308.728 36.9744 308.536 36.7146C308.349 36.4548 308.256 36.1176 308.256 35.7029C308.256 35.0694 308.511 34.5841 309.021 34.2468C309.536 33.905 310.211 33.7341 311.045 33.7341C311.496 33.7341 311.918 33.7797 312.31 33.8708C312.706 33.9574 313.075 34.0759 313.417 34.2263L313.034 35.1355C312.724 35.0033 312.394 34.8917 312.043 34.8005C311.692 34.7094 311.334 34.6638 310.97 34.6638C310.446 34.6638 310.042 34.7504 309.76 34.9236C309.482 35.0968 309.343 35.3337 309.343 35.6345C309.343 35.8669 309.407 36.0583 309.534 36.2087C309.666 36.3591 309.876 36.5004 310.163 36.6326C310.45 36.7647 310.828 36.9197 311.298 37.0974C311.767 37.2706 312.173 37.4506 312.515 37.6375C312.856 37.8197 313.118 38.0431 313.301 38.3074C313.488 38.5671 313.581 38.9021 313.581 39.3123ZM268.949 60.4998C268.001 60.4998 267.249 60.1762 266.693 59.5291C266.142 58.8819 265.866 57.9203 265.866 56.6443C265.866 55.3546 266.149 54.3816 266.714 53.7253C267.279 53.0645 268.031 52.7341 268.97 52.7341C269.366 52.7341 269.713 52.7865 270.009 52.8914C270.305 52.9962 270.56 53.1375 270.774 53.3152C270.989 53.4884 271.169 53.6866 271.314 53.9099H271.396C271.378 53.7686 271.36 53.575 271.342 53.3289C271.324 53.0828 271.314 52.8822 271.314 52.7273V49.7263H272.449V60.363H271.533L271.362 59.2966H271.314C271.173 59.5199 270.993 59.7227 270.774 59.905C270.56 60.0873 270.303 60.2332 270.002 60.3425C269.706 60.4473 269.355 60.4998 268.949 60.4998ZM269.127 59.5564C269.929 59.5564 270.496 59.3285 270.829 58.8728C271.162 58.4171 271.328 57.7403 271.328 56.8425V56.6375C271.328 55.685 271.169 54.9535 270.85 54.4431C270.535 53.9327 269.961 53.6775 269.127 53.6775C268.43 53.6775 267.908 53.9464 267.562 54.4841C267.215 55.0173 267.042 55.7465 267.042 56.6716C267.042 57.5922 267.213 58.3031 267.555 58.8044C267.901 59.3057 268.425 59.5564 269.127 59.5564ZM277.74 52.7341C278.378 52.7341 278.925 52.8754 279.381 53.158C279.837 53.4405 280.185 53.837 280.427 54.3474C280.668 54.8533 280.789 55.4457 280.789 56.1248V56.8289H275.614C275.628 57.7084 275.847 58.3783 276.271 58.8386C276.694 59.2989 277.291 59.5291 278.062 59.5291C278.535 59.5291 278.955 59.4858 279.319 59.3992C279.684 59.3126 280.062 59.185 280.454 59.0164V60.0144C280.076 60.183 279.7 60.3061 279.326 60.3835C278.957 60.461 278.52 60.4998 278.014 60.4998C277.294 60.4998 276.665 60.3539 276.127 60.0623C275.594 59.766 275.179 59.3331 274.883 58.7634C274.587 58.1938 274.438 57.4965 274.438 56.6716C274.438 55.865 274.573 55.1677 274.842 54.5798C275.115 53.9874 275.498 53.5317 275.99 53.2126C276.487 52.8936 277.07 52.7341 277.74 52.7341ZM277.727 53.6638C277.12 53.6638 276.637 53.8621 276.277 54.2585C275.917 54.655 275.703 55.2087 275.635 55.9197H279.6C279.595 55.4731 279.524 55.0811 279.388 54.7439C279.256 54.4021 279.053 54.1378 278.779 53.9509C278.506 53.7595 278.155 53.6638 277.727 53.6638ZM295.192 55.3523C295.192 56.1726 295.081 56.9154 294.857 57.5808C294.634 58.2462 294.301 58.809 293.859 59.2693C293.422 59.7296 292.875 60.0645 292.219 60.2742L294.57 62.7419H292.909L290.975 60.4861C290.915 60.4861 290.854 60.4884 290.79 60.4929C290.731 60.4975 290.672 60.4998 290.612 60.4998C289.838 60.4998 289.161 60.3767 288.582 60.1306C288.008 59.8845 287.529 59.5336 287.146 59.0779C286.768 58.6222 286.483 58.0776 286.292 57.4441C286.105 56.8106 286.012 56.1088 286.012 55.3386C286.012 54.3178 286.18 53.4223 286.518 52.6521C286.855 51.8819 287.365 51.2826 288.049 50.8542C288.737 50.4259 289.598 50.2117 290.633 50.2117C291.622 50.2117 292.453 50.4236 293.128 50.8474C293.807 51.2712 294.32 51.8682 294.666 52.6384C295.017 53.4041 295.192 54.3087 295.192 55.3523ZM287.235 55.3523C287.235 56.2 287.356 56.9337 287.598 57.5535C287.839 58.1733 288.208 58.6518 288.705 58.989C289.206 59.3263 289.842 59.4949 290.612 59.4949C291.387 59.4949 292.021 59.3263 292.513 58.989C293.009 58.6518 293.376 58.1733 293.613 57.5535C293.85 56.9337 293.969 56.2 293.969 55.3523C293.969 54.0626 293.698 53.0554 293.155 52.3308C292.618 51.6016 291.777 51.2371 290.633 51.2371C289.858 51.2371 289.22 51.4034 288.719 51.7361C288.217 52.0688 287.844 52.5427 287.598 53.158C287.356 53.7686 287.235 54.5001 287.235 55.3523ZM303.689 60.363L302.459 57.1912H298.453L297.229 60.363H296.054L299.964 50.3279H301.01L304.893 60.363H303.689ZM302.11 56.1589L300.941 53.0076C300.914 52.9255 300.868 52.7911 300.805 52.6042C300.745 52.4174 300.684 52.2237 300.62 52.0232C300.556 51.8227 300.504 51.6609 300.463 51.5378C300.417 51.7247 300.367 51.9115 300.312 52.0984C300.262 52.2807 300.212 52.4516 300.162 52.6111C300.112 52.766 300.069 52.8982 300.032 53.0076L298.843 56.1589H302.11Z" fill="#252525"/>
</g>
<defs>
<clipPath id="clip0_3221_2926">
<rect width="328" height="232" fill="white" transform="translate(0 0.363037)"/>
</clipPath>
</defs>
</svg>
